Lato-BoldItalic.ufo
<glyph name="exclam" format="2">
  <advance width="529.9"/>
  <unicode hex="0021"/>
  <guideline x="334.04"/>
  <guideline x="100.0" y="0.0" angle="82.9991"/>
  <outline>
    <contour>
      <point x="249.62" y="1446.8" type="line"/>
      <point x="179.62" y="873.24" type="line" smooth="yes"/>
      <point x="164.06" y="752.12"/>
      <point x="162.3" y="640.24"/>
      <point x="165.02" y="508.76" type="curve"/>
      <point x="326.1" y="508.76" type="line"/>
      <point x="361.02" y="640.24"/>
      <point x="388.18" y="752.12"/>
      <point x="402.62" y="873.24" type="curve"/>
      <point x="472.62" y="1446.8" type="line"/>
    </contour>
    <contour>
      <point x="62.78" y="136.92000000000002" type="curve" smooth="yes"/>
      <point x="62.78" y="51.0"/>
      <point x="128.22" y="-14.44"/>
      <point x="214.14" y="-14.44" type="curve" smooth="yes"/>
      <point x="298.5" y="-14.44"/>
      <point x="365.94" y="51.0"/>
      <point x="365.94" y="136.92000000000002" type="curve" smooth="yes"/>
      <point x="365.94" y="221.28"/>
      <point x="298.5" y="288.72"/>
      <point x="214.14" y="288.72" type="curve" smooth="yes"/>
      <point x="128.22" y="288.72"/>
      <point x="62.78" y="221.28"/>
    </contour>
  </outline>
</glyph>
<glyph name="numbersign" format="2">
  <advance width="1160"/>
  <unicode hex="0023"/>
  <outline>
    <contour>
      <point x="220.72" y="513" type="line"/>
      <point x="215.6" y="470.24" type="line"/>
      <point x="68.08" y="0" type="line" name="n02"/>
      <point x="174.8" y="0" type="line" smooth="yes"/>
      <point x="224.92" y="0"/>
      <point x="274.6" y="24.28"/>
      <point x="292.64" y="87.76" type="curve"/>
      <point x="410.76" y="470.24" type="line"/>
      <point x="415.88" y="513" type="line"/>
      <point x="550.04" y="940.04" type="line"/>
      <point x="554.72" y="983.92" type="line"/>
      <point x="699.56" y="1445.24" type="line" name="n11"/>
      <point x="590.16" y="1445.24" type="line" smooth="yes"/>
      <point x="539.6" y="1445.24"/>
      <point x="494.6" y="1414.72"/>
      <point x="478.12" y="1363.72" type="curve" smooth="yes"/>
      <point x="359.56" y="983.92" type="line"/>
      <point x="353.32" y="940.04" type="line"/>
    </contour>
    <contour>
      <point x="626.84" y="513" type="line"/>
      <point x="621.72" y="470.24" type="line"/>
      <point x="505.16" y="100.24" type="line"/>
      <point x="486.68" y="45.68"/>
      <point x="516.08" y="0"/>
      <point x="560.4" y="0" type="curve" smooth="yes"/>
      <point x="670.92" y="0" type="line"/>
      <point x="816.88" y="470.24" type="line"/>
      <point x="822" y="513" type="line"/>
      <point x="954.6" y="940.04" type="line"/>
      <point x="960.84" y="983.92" type="line"/>
      <point x="1079.4" y="1361.28" type="line" smooth="yes"/>
      <point x="1094.76" y="1409.6"/>
      <point x="1064.24" y="1445.24"/>
      <point x="1015.68" y="1445.24" type="curve" smooth="yes"/>
      <point x="908.96" y="1445.24" type="line"/>
      <point x="764.12" y="983.92" type="line"/>
      <point x="759.44" y="940.04" type="line"/>
    </contour>
    <contour>
      <point x="1017.32" y="408.52" type="line" name="n36"/>
      <point x="1039.6" y="484.72" type="line"/>
      <point x="1058.32" y="556.68"/>
      <point x="1038.28" y="582.52"/>
      <point x="989.72" y="582.52" type="curve" smooth="yes" name="n40"/>
      <point x="50" y="582.52" type="line"/>
      <point x="28.16" y="506.32" type="line" smooth="yes"/>
      <point x="9" y="435.92"/>
      <point x="29.04" y="408.52"/>
      <point x="77.6" y="408.52" type="curve" smooth="yes"/>
    </contour>
    <contour>
      <point x="113.64" y="864.28" type="line" name="n46"/>
      <point x="1036.2" y="864.28" type="line" smooth="yes"/>
      <point x="1103.48" y="864.28"/>
      <point x="1136" y="887"/>
      <point x="1150.04" y="937.12" type="curve"/>
      <point x="1181.68" y="1036.72" type="line"/>
      <point x="259.12" y="1036.72" type="line" smooth="yes" name="n52"/>
      <point x="190.28" y="1036.72"/>
      <point x="158.88" y="1014"/>
      <point x="143.28" y="963.88" type="curve" smooth="yes"/>
    </contour>
  </outline>
  <guideline angle="82.9991" x="580" y="0"/>
</glyph>
<glyph name="dollar" format="2">
  <advance width="1160.0"/>
  <unicode hex="0024"/>
  <guideline x="580.0" y="0.0" angle="82.9991"/>
  <outline>
    <contour>
      <point x="1130.54" y="1293.6" type="line"/>
      <point x="1048.98" y="1384.92"/>
      <point x="923.78" y="1459.68"/>
      <point x="720.7" y="1459.68" type="curve" smooth="yes"/>
      <point x="386.94" y="1459.68"/>
      <point x="180.14" y="1236.0"/>
      <point x="180.14" y="995.44" type="curve" smooth="yes"/>
      <point x="180.14" y="552.64"/>
      <point x="827.02" y="709.28"/>
      <point x="827.02" y="434.24" type="curve" smooth="yes"/>
      <point x="827.02" y="281.56"/>
      <point x="714.54" y="183.4"/>
      <point x="507.86" y="183.4" type="curve" smooth="yes"/>
      <point x="296.9" y="183.4"/>
      <point x="234.46" y="316.4"/>
      <point x="166.78" y="316.4" type="curve" smooth="yes"/>
      <point x="142.06" y="316.4"/>
      <point x="118.22" y="303.48"/>
      <point x="102.86" y="283.88" type="curve"/>
      <point x="16.179999999999993" y="173.8" type="line"/>
      <point x="116.89999999999999" y="59.8"/>
      <point x="292.9" y="-16.0"/>
      <point x="482.46" y="-16.0" type="curve" smooth="yes"/>
      <point x="839.3" y="-16.0"/>
      <point x="1060.06" y="218.08"/>
      <point x="1060.06" y="492.84000000000003" type="curve" smooth="yes"/>
      <point x="1060.06" y="901.56"/>
      <point x="409.62" y="772.08"/>
      <point x="409.62" y="1049.36" type="curve" smooth="yes"/>
      <point x="409.62" y="1163.6"/>
      <point x="498.34000000000003" y="1258.72"/>
      <point x="718.7" y="1258.72" type="curve" smooth="yes"/>
      <point x="869.38" y="1258.72"/>
      <point x="950.14" y="1166.16"/>
      <point x="997.98" y="1166.16" type="curve" smooth="yes"/>
      <point x="1023.82" y="1166.16"/>
      <point x="1041.86" y="1177.52"/>
      <point x="1062.58" y="1204.92" type="curve"/>
    </contour>
    <contour>
      <point x="343.3" y="-224.07999999999998" type="line"/>
      <point x="431.3" y="-224.07999999999998" type="line" smooth="yes"/>
      <point x="467.38" y="-224.07999999999998"/>
      <point x="498.34000000000003" y="-194.68"/>
      <point x="503.02" y="-164.39999999999998" type="curve"/>
      <point x="873.9" y="1646.08" type="line"/>
      <point x="785.9" y="1646.08" type="line" smooth="yes"/>
      <point x="749.82" y="1646.08"/>
      <point x="719.3" y="1616.68"/>
      <point x="714.18" y="1584.84" type="curve"/>
    </contour>
  </outline>
</glyph>
<glyph name="percent" format="2">
  <advance width="1522.88"/>
  <unicode hex="0025"/>
  <guideline x="741.7" y="0.0" angle="82.9991"/>
  <outline>
    <contour>
      <point x="757.54" y="1150.28" type="curve" smooth="yes"/>
      <point x="757.54" y="1339.16"/>
      <point x="649.06" y="1459.68"/>
      <point x="487.62" y="1459.68" type="curve" smooth="yes"/>
      <point x="289.74" y="1459.68"/>
      <point x="130.14" y="1297.6"/>
      <point x="130.14" y="1043.24" type="curve" smooth="yes"/>
      <point x="130.14" y="857.92"/>
      <point x="238.18" y="737.4"/>
      <point x="398.5" y="737.4" type="curve" smooth="yes"/>
      <point x="578.34" y="737.4"/>
      <point x="757.54" y="895.92"/>
    </contour>
    <contour>
      <point x="573.3" y="1148.72" type="curve" smooth="yes"/>
      <point x="573.3" y="960.08"/>
      <point x="504.38" y="894.24"/>
      <point x="417.66" y="894.24" type="curve" smooth="yes"/>
      <point x="356.7" y="894.24"/>
      <point x="313.94" y="934.56"/>
      <point x="313.94" y="1043.24" type="curve" smooth="yes"/>
      <point x="313.94" y="1231.88"/>
      <point x="379.74" y="1304.4"/>
      <point x="468.46" y="1304.4" type="curve" smooth="yes"/>
      <point x="528.98" y="1304.4"/>
      <point x="573.3" y="1260.52"/>
    </contour>
    <contour>
      <point x="65.74" y="0.0" type="line"/>
      <point x="241.98000000000002" y="0.0" type="line" smooth="yes"/>
      <point x="276.06" y="0.0"/>
      <point x="300.78" y="16.04"/>
      <point x="318.82" y="36.08" type="curve"/>
      <point x="1485.06" y="1445.24" type="line"/>
      <point x="1311.94" y="1445.24" type="line"/>
      <point x="1271.18" y="1445.24"/>
      <point x="1248.46" y="1426.08"/>
      <point x="1229.98" y="1407.6" type="curve"/>
    </contour>
    <contour>
      <point x="1419.74" y="395.32" type="curve" smooth="yes"/>
      <point x="1419.74" y="584.2"/>
      <point x="1311.26" y="704.72"/>
      <point x="1149.82" y="704.72" type="curve" smooth="yes"/>
      <point x="951.94" y="704.72"/>
      <point x="792.34" y="542.64"/>
      <point x="792.34" y="286.72" type="curve" smooth="yes"/>
      <point x="792.34" y="102.96000000000001"/>
      <point x="900.38" y="-17.56"/>
      <point x="1060.7" y="-17.56" type="curve" smooth="yes"/>
      <point x="1240.54" y="-17.56"/>
      <point x="1419.74" y="139.4"/>
    </contour>
    <contour>
      <point x="1235.5" y="393.76" type="curve" smooth="yes"/>
      <point x="1235.5" y="205.12"/>
      <point x="1166.58" y="137.72"/>
      <point x="1079.86" y="137.72" type="curve" smooth="yes"/>
      <point x="1018.9" y="137.72"/>
      <point x="976.14" y="179.60000000000002"/>
      <point x="976.14" y="286.72" type="curve" smooth="yes"/>
      <point x="976.14" y="475.36"/>
      <point x="1041.94" y="547.88"/>
      <point x="1130.66" y="547.88" type="curve" smooth="yes"/>
      <point x="1191.18" y="547.88"/>
      <point x="1235.5" y="505.56"/>
    </contour>
  </outline>
</glyph>
<glyph name="ampersand" format="2">
  <advance width="1336.54"/>
  <unicode hex="0026"/>
  <guideline x="658.2" y="0.0" angle="82.9991"/>
  <outline>
    <contour>
      <point x="470.38" y="842.84" type="line"/>
      <point x="237.9" y="773.28"/>
      <point x="42.1" y="593.96"/>
      <point x="42.1" y="349.92" type="curve" smooth="yes"/>
      <point x="42.1" y="126.08"/>
      <point x="190.3" y="-16.0"/>
      <point x="436.1" y="-16.0" type="curve" smooth="yes"/>
      <point x="827.26" y="-16.0"/>
      <point x="1157.22" y="343.88"/>
      <point x="1213.5" y="782.6800000000001" type="curve"/>
      <point x="1045.94" y="782.6800000000001" type="line"/>
      <point x="1013.54" y="782.6800000000001"/>
      <point x="999.4" y="761.52"/>
      <point x="993.5" y="730.9" type="curve"/>
      <point x="939.92" y="445.86"/>
      <point x="732.38" y="175.6"/>
      <point x="486.9" y="175.6" type="curve" smooth="yes"/>
      <point x="359.14" y="175.6"/>
      <point x="287.62" y="254.88"/>
      <point x="287.62" y="381.56" type="curve" smooth="yes"/>
      <point x="287.62" y="535.16"/>
      <point x="376.26" y="668.36"/>
      <point x="611.42" y="747.28" type="curve"/>
    </contour>
    <contour>
      <point x="729.18" y="1461.24" type="curve"/>
      <point x="468.78" y="1461.24"/>
      <point x="304.06" y="1272.0"/>
      <point x="304.06" y="1045.72" type="curve" smooth="yes"/>
      <point x="304.06" y="942.2"/>
      <point x="338.9" y="822.8"/>
      <point x="424.42" y="711.04" type="curve" smooth="yes"/>
      <point x="912.54" y="69.28" type="line"/>
      <point x="952.1800000000001" y="18.72"/>
      <point x="980.02" y="0.0"/>
      <point x="1057.54" y="0.0" type="curve" smooth="yes"/>
      <point x="1263.86" y="0.0" type="line"/>
      <point x="604.22" y="856.52" type="line" smooth="yes"/>
      <point x="550.1" y="931.76"/>
      <point x="526.1800000000001" y="999.2"/>
      <point x="526.1800000000001" y="1061.52" type="curve"/>
      <point x="526.1800000000001" y="1180.66"/>
      <point x="595.78" y="1277.44"/>
      <point x="707.34" y="1277.44" type="curve"/>
      <point x="788.86" y="1277.44"/>
      <point x="835.26" y="1220.36"/>
      <point x="852.42" y="1149.28" type="curve" smooth="yes"/>
      <point x="863.34" y="1112.32"/>
      <point x="881.82" y="1103.64"/>
      <point x="922.14" y="1111.44" type="curve" smooth="yes"/>
      <point x="1064.52" y="1139.52" type="line"/>
      <point x="1067.64" y="1311.32"/>
      <point x="949.1800000000001" y="1461.24"/>
    </contour>
  </outline>
</glyph>
<glyph name="quotesingle" format="2">
  <advance width="404.48"/>
  <unicode hex="0027"/>
  <guideline x="220.4"/>
  <guideline x="100.0" y="0.0" angle="82.9991"/>
  <outline>
    <contour>
      <point x="199.7" y="1445.24" type="line"/>
      <point x="163.26" y="1157.48" type="line"/>
      <point x="165.98" y="1000.8" type="line"/>
      <point x="170.66" y="943.76"/>
      <point x="189.82" y="911.68"/>
      <point x="236.38" y="911.68" type="curve"/>
      <point x="290.74" y="911.68"/>
      <point x="314.58" y="943.76"/>
      <point x="330.18" y="1000.8" type="curve"/>
      <point x="370.46000000000004" y="1157.48" type="line"/>
      <point x="406.46000000000004" y="1445.24" type="line"/>
    </contour>
  </outline>
</glyph>
<glyph name="parenleft" format="2">
  <advance width="533.04"/>
  <unicode hex="0028"/>
  <guideline x="276.0" y="0.0" angle="82.9991"/>
  <outline>
    <contour>
      <point x="275.92" y="433.04" type="curve"/>
      <point x="275.92" y="810.88"/>
      <point x="384.56" y="1116.12"/>
      <point x="559.48" y="1408.68" type="curve" smooth="yes"/>
      <point x="593.56" y="1461.92"/>
      <point x="574.4" y="1486.64"/>
      <point x="550.56" y="1504.24" type="curve"/>
      <point x="451.64" y="1567.96" type="line"/>
      <point x="156.0" y="1154.8"/>
      <point x="67.84" y="813.24"/>
      <point x="67.84" y="414.12" type="curve"/>
      <point x="67.84" y="185.84"/>
      <point x="113.84" y="-87.36"/>
      <point x="222.04" y="-313.32" type="curve"/>
      <point x="335.0" y="-249.6" type="line"/>
      <point x="363.96" y="-232.0"/>
      <point x="388.24" y="-207.28"/>
      <point x="368.2" y="-154.04" type="curve"/>
      <point x="307.2" y="14.080000000000002"/>
      <point x="275.92" y="248.48"/>
    </contour>
  </outline>
</glyph>
<glyph name="parenright" format="2">
  <advance width="532"/>
  <unicode hex="0029"/>
  <outline>
    <contour>
      <point x="260.32" y="821.6" type="curve" smooth="yes"/>
      <point x="260.32" y="453.88"/>
      <point x="151.68" y="138.52"/>
      <point x="-23.24" y="-154.04" type="curve"/>
      <point x="-57.32" y="-207.28"/>
      <point x="-38.6" y="-232"/>
      <point x="-14.32" y="-249.6" type="curve"/>
      <point x="83.04" y="-313.32" type="line" name="n07"/>
      <point x="380.24" y="99.84"/>
      <point x="467.96" y="441.4"/>
      <point x="467.96" y="840.52" type="curve" smooth="yes"/>
      <point x="467.96" y="1070.36"/>
      <point x="421.96" y="1342"/>
      <point x="314.2" y="1567.96" type="curve" name="n13"/>
      <point x="200.8" y="1504.24" type="line"/>
      <point x="171.84" y="1486.64"/>
      <point x="148" y="1461.92"/>
      <point x="167.6" y="1408.68" type="curve" smooth="yes"/>
      <point x="227.04" y="1240.56"/>
      <point x="260.32" y="1006.16"/>
    </contour>
  </outline>
  <guideline angle="82.9991" x="276" y="0"/>
</glyph>
<glyph name="asterisk" format="2">
  <advance width="792.02"/>
  <unicode hex="002A"/>
  <guideline x="368.0" y="0.0" angle="82.9991"/>
  <outline>
    <contour>
      <point x="191.36" y="958.4" type="line"/>
      <point x="346.12" y="1051.44" type="line" smooth="yes"/>
      <point x="385.08" y="1073.48"/>
      <point x="415.6" y="1097.32"/>
      <point x="434.04" y="1134.04" type="curve"/>
      <point x="414.88" y="1177.48" type="line"/>
      <point x="376.84" y="1181.96"/>
      <point x="339.64" y="1171.04"/>
      <point x="302.24" y="1149.0" type="curve" smooth="yes"/>
      <point x="147.48000000000002" y="1055.96" type="line"/>
    </contour>
    <contour>
      <point x="477.56" y="838.64" type="line"/>
      <point x="500.88" y="1024.52" type="line" smooth="yes"/>
      <point x="506.0" y="1067.04"/>
      <point x="500.88" y="1103.8"/>
      <point x="480.6" y="1134.48" type="curve"/>
      <point x="434.04" y="1134.48" type="line"/>
      <point x="405.32" y="1105.8"/>
      <point x="392.4" y="1067.04"/>
      <point x="387.28" y="1022.96" type="curve" smooth="yes"/>
      <point x="363.96" y="838.64" type="line"/>
    </contour>
    <contour>
      <point x="747.64" y="1054.4" type="line"/>
      <point x="615.76" y="1149.0" type="line" smooth="yes"/>
      <point x="583.48" y="1172.6"/>
      <point x="546.72" y="1181.96"/>
      <point x="510.68" y="1177.48" type="curve"/>
      <point x="480.16" y="1134.04" type="line"/>
      <point x="488.36" y="1096.88"/>
      <point x="515.32" y="1073.48"/>
      <point x="548.04" y="1051.44" type="curve"/>
      <point x="681.04" y="958.4" type="line"/>
    </contour>
    <contour>
      <point x="447.56" y="1514.76" type="line"/>
      <point x="424.24" y="1328.88" type="line" smooth="yes"/>
      <point x="419.12" y="1287.92"/>
      <point x="424.24" y="1250.72"/>
      <point x="443.4" y="1220.04" type="curve"/>
      <point x="491.52" y="1220.04" type="line"/>
      <point x="519.8" y="1249.16"/>
      <point x="532.72" y="1287.92"/>
      <point x="537.84" y="1330.44" type="curve" smooth="yes"/>
      <point x="561.16" y="1514.76" type="line"/>
    </contour>
    <contour>
      <point x="176.36" y="1299.0" type="line"/>
      <point x="309.36" y="1204.4" type="line" smooth="yes"/>
      <point x="341.64" y="1182.36"/>
      <point x="376.84" y="1171.44"/>
      <point x="414.88" y="1177.04" type="curve"/>
      <point x="443.4" y="1220.48" type="line"/>
      <point x="436.32" y="1255.64"/>
      <point x="409.8" y="1281.48"/>
      <point x="377.52" y="1301.96" type="curve" smooth="yes"/>
      <point x="244.52" y="1396.56" type="line"/>
    </contour>
    <contour>
      <point x="734.2" y="1395.0" type="line"/>
      <point x="579.44" y="1301.96" type="line" smooth="yes"/>
      <point x="540.48" y="1281.48"/>
      <point x="509.52" y="1255.64"/>
      <point x="491.52" y="1220.48" type="curve"/>
      <point x="510.68" y="1177.04" type="line"/>
      <point x="546.72" y="1170.56"/>
      <point x="583.92" y="1183.92"/>
      <point x="622.88" y="1204.4" type="curve" smooth="yes"/>
      <point x="777.64" y="1297.44" type="line"/>
    </contour>
    <contour>
      <point x="410.88" y="1204.44" type="line"/>
      <point x="395.72" y="1139.16" type="line"/>
      <point x="446.52" y="1099.28" type="line"/>
      <point x="518.48" y="1137.6" type="line"/>
      <point x="528.28" y="1212.68" type="line"/>
      <point x="476.6" y="1239.2" type="line"/>
    </contour>
  </outline>
</glyph>
<glyph name="plus" format="2">
  <advance width="1160.0"/>
  <unicode hex="002B"/>
  <guideline x="580.0" y="0.0" angle="82.9991"/>
  <outline>
    <contour>
      <point x="89.78" y="582.0" type="line"/>
      <point x="1063.26" y="582.0" type="line"/>
      <point x="1085.54" y="761.12" type="line"/>
      <point x="112.06" y="761.12" type="line"/>
    </contour>
    <contour>
      <point x="551.42" y="1171.84" type="line"/>
      <point x="427.18" y="169.28" type="line"/>
      <point x="621.9" y="169.28" type="line"/>
      <point x="744.58" y="1171.84" type="line"/>
    </contour>
  </outline>
</glyph>
<glyph name="comma" format="2">
  <advance width="470"/>
  <unicode hex="002C"/>
  <outline>
    <contour>
      <point x="30.66" y="153.4" type="curve" smooth="yes"/>
      <point x="30.66" y="67.48"/>
      <point x="88.98" y="2.92"/>
      <point x="174.02" y="2.92" type="curve" smooth="yes" name="n03"/>
      <point x="205.82" y="2.92"/>
      <point x="229.18" y="10.92"/>
      <point x="245.86" y="22.24" type="curve"/>
      <point x="176.34" y="45.64" type="line"/>
      <point x="176.34" y="-90.6"/>
      <point x="44.26" y="-165.64"/>
      <point x="44.26" y="-208.84" type="curve" smooth="yes"/>
      <point x="44.26" y="-223.32"/>
      <point x="48.94" y="-233.56"/>
      <point x="61.86" y="-244.92" type="curve"/>
      <point x="104.86" y="-284.8" type="line" name="n14"/>
      <point x="247.74" y="-172.24"/>
      <point x="325.82" y="-8.28"/>
      <point x="325.82" y="118.68" type="curve" smooth="yes"/>
      <point x="325.82" y="210.8"/>
      <point x="276.42" y="288.72"/>
      <point x="174.9" y="288.72" type="curve" smooth="yes" name="n20"/>
      <point x="88.98" y="288.72"/>
      <point x="30.66" y="229.08"/>
    </contour>
  </outline>
  <guideline angle="82.9991" x="185" y="0"/>
</glyph>
<glyph name="hyphen" format="2">
  <advance width="694.26"/>
  <unicode hex="002D"/>
  <unicode hex="00AD"/>
  <unicode hex="2010"/>
  <guideline x="332.22" y="0.0" angle="82.9991"/>
  <outline>
    <contour>
      <point x="93.16" y="503.12" type="line"/>
      <point x="572.48" y="503.12" type="line"/>
      <point x="597.88" y="704.08" type="line"/>
      <point x="117.44" y="704.08" type="line"/>
    </contour>
  </outline>
</glyph>
<glyph name="period" format="2">
  <advance width="476"/>
  <unicode hex="002E"/>
  <outline>
    <contour>
      <point x="31.48" y="136.92" type="curve" smooth="yes"/>
      <point x="31.48" y="51"/>
      <point x="96.92" y="-14.44"/>
      <point x="182.84" y="-14.44" type="curve" smooth="yes" name="n03"/>
      <point x="267.2" y="-14.44"/>
      <point x="334.64" y="51"/>
      <point x="334.64" y="136.92" type="curve" smooth="yes"/>
      <point x="334.64" y="221.28"/>
      <point x="267.2" y="288.72"/>
      <point x="182.84" y="288.72" type="curve" smooth="yes" name="n09"/>
      <point x="96.92" y="288.72"/>
      <point x="31.48" y="221.28"/>
    </contour>
  </outline>
  <guideline angle="82.9991" x="185" y="0"/>
</glyph>
<glyph name="slash" format="2">
  <advance width="859"/>
  <unicode hex="002F"/>
  <outline>
    <contour>
      <point x="904.84" y="1455.6" type="line" name="n00"/>
      <point x="804.36" y="1455.6" type="line" smooth="yes"/>
      <point x="747.56" y="1455.6"/>
      <point x="699.44" y="1423.52"/>
      <point x="672.04" y="1370.28" type="curve"/>
      <point x="-30.2" y="-96.72" type="line" name="n05"/>
      <point x="71.4" y="-96.72" type="line" smooth="yes"/>
      <point x="119.96" y="-96.72"/>
      <point x="178.32" y="-65.08"/>
      <point x="207.28" y="-6.72" type="curve"/>
    </contour>
  </outline>
  <guideline angle="82.9991" x="315" y="0"/>
</glyph>
<glyph name="zero" format="2">
  <advance width="1160.0"/>
  <unicode hex="0030"/>
  <guideline x="595.94" y="0.0" angle="82.9991"/>
  <outline>
    <contour>
      <point x="1094.54" y="881.08" type="curve" smooth="yes"/>
      <point x="1094.54" y="1268.78"/>
      <point x="924.08" y="1462.02"/>
      <point x="682.34" y="1462.02" type="curve" smooth="yes"/>
      <point x="357.68" y="1462.02"/>
      <point x="91.24000000000001" y="1169.32"/>
      <point x="91.24000000000001" y="564.38" type="curve" smooth="yes"/>
      <point x="91.24000000000001" y="177.46"/>
      <point x="259.36" y="-15.56"/>
      <point x="501.1" y="-15.56" type="curve" smooth="yes"/>
      <point x="824.98" y="-15.56"/>
      <point x="1094.54" y="274.92"/>
    </contour>
    <contour>
      <point x="850.14" y="893.78" type="curve" smooth="yes"/>
      <point x="850.14" y="353.56"/>
      <point x="684.28" y="183.84"/>
      <point x="524.94" y="183.84" type="curve" smooth="yes"/>
      <point x="422.56" y="183.84"/>
      <point x="335.20000000000005" y="275.6"/>
      <point x="335.20000000000005" y="549.56" type="curve" smooth="yes"/>
      <point x="335.20000000000005" y="1088.56"/>
      <point x="497.04" y="1261.84"/>
      <point x="657.72" y="1261.84" type="curve" smooth="yes"/>
      <point x="760.88" y="1261.84"/>
      <point x="850.14" y="1169.64"/>
    </contour>
  </outline>
</glyph>
<glyph name="one" format="2">
  <advance width="1160"/>
  <unicode hex="0031"/>
  <outline>
    <contour>
      <point x="676.5" y="1447.78" type="line" name="n00"/>
      <point x="636.3" y="1315.6"/>
      <point x="599.44" y="1165.82"/>
      <point x="583.74" y="1036.76" type="curve" smooth="yes"/>
      <point x="456.28" y="0" type="line"/>
      <point x="694.78" y="0" type="line"/>
      <point x="872.46" y="1447.78" type="line"/>
    </contour>
    <contour>
      <point x="188.52" y="0" type="line" name="n07"/>
      <point x="930.14" y="0" type="line"/>
      <point x="952.64" y="179.9" type="line"/>
      <point x="211.02" y="179.9" type="line" name="n10"/>
    </contour>
    <contour>
      <point x="222.92" y="1072.72" type="line"/>
      <point x="284.86" y="968.78" type="line" smooth="yes"/>
      <point x="298.44" y="946.4"/>
      <point x="343.66" y="923.78"/>
      <point x="392.78" y="960.2" type="curve"/>
      <point x="642.06" y="1171.84" type="line"/>
      <point x="676.5" y="1447.78" type="line"/>
    </contour>
  </outline>
  <guideline angle="82.9991" x="458" y="0"/>
</glyph>
<glyph name="two" format="2">
  <advance width="1160"/>
  <unicode hex="0032"/>
  <outline>
    <contour>
      <point x="699.02" y="1462.02" type="curve" smooth="yes" name="n00"/>
      <point x="461.26" y="1462.02"/>
      <point x="261.94" y="1320.46"/>
      <point x="189.78" y="1043.42" type="curve"/>
      <point x="313.1" y="1021.58" type="line" smooth="yes"/>
      <point x="376.26" y="1010.66"/>
      <point x="409.78" y="1028.7"/>
      <point x="438.52" y="1088.28" type="curve"/>
      <point x="473.58" y="1186.34"/>
      <point x="556.72" y="1258.72"/>
      <point x="660.14" y="1258.72" type="curve" smooth="yes" name="n10"/>
      <point x="761.66" y="1258.72"/>
      <point x="822.88" y="1196.36"/>
      <point x="822.88" y="1082.84" type="curve" smooth="yes"/>
      <point x="822.88" y="912.9"/>
      <point x="735.52" y="794.32"/>
      <point x="558.44" y="621.8" type="curve" smooth="yes"/>
      <point x="104.2" y="180" type="line"/>
      <point x="70.22" y="150.7"/>
      <point x="53.86" y="111.94"/>
      <point x="49.96" y="80.2" type="curve" smooth="yes"/>
      <point x="40.16" y="0" type="line"/>
      <point x="957.92" y="0" type="line" name="n22"/>
      <point x="975.52" y="143.82" type="line" smooth="yes"/>
      <point x="981.2" y="191.94"/>
      <point x="953.02" y="224.02"/>
      <point x="901.78" y="224.02" type="curve" smooth="yes" name="n26"/>
      <point x="577.3" y="224.02" type="line" smooth="yes"/>
      <point x="479.28" y="224.02"/>
      <point x="340" y="184.58"/>
      <point x="247.82" y="138.46" type="curve"/>
      <point x="237.2" y="44.76" type="line"/>
      <point x="736.02" y="534.48" type="line"/>
      <point x="917.44" y="710.9"/>
      <point x="1069.18" y="860.68"/>
      <point x="1069.18" y="1104.34" type="curve" smooth="yes"/>
      <point x="1069.18" y="1318.44"/>
      <point x="925.76" y="1462.02"/>
    </contour>
  </outline>
  <guideline angle="82.9991" x="488" y="0"/>
</glyph>
<glyph name="three" format="2">
  <advance width="1160"/>
  <unicode hex="0033"/>
  <outline>
    <contour>
      <point x="704.04" y="1462.02" type="curve" smooth="yes" name="n00"/>
      <point x="466.5" y="1462.02"/>
      <point x="267.18" y="1320.46"/>
      <point x="195.02" y="1043.42" type="curve"/>
      <point x="317.34" y="1021.58" type="line" smooth="yes"/>
      <point x="381.5" y="1010.66"/>
      <point x="414.36" y="1028.7"/>
      <point x="443.32" y="1088.28" type="curve"/>
      <point x="478.38" y="1186.34"/>
      <point x="561.74" y="1258.72"/>
      <point x="665.38" y="1258.72" type="curve" smooth="yes" name="n10"/>
      <point x="766.9" y="1258.72"/>
      <point x="827.58" y="1197.46"/>
      <point x="827.58" y="1085.92" type="curve" smooth="yes"/>
      <point x="827.58" y="921.32"/>
      <point x="745.94" y="828.26"/>
      <point x="516.1" y="826.28" type="curve"/>
      <point x="495.38" y="654.28" type="line"/>
      <point x="717.6" y="653.84"/>
      <point x="772.34" y="579.22"/>
      <point x="772.34" y="474.84" type="curve" smooth="yes"/>
      <point x="772.34" y="325.94"/>
      <point x="677.96" y="186.52"/>
      <point x="515.6" y="186.52" type="curve" smooth="yes" name="n23"/>
      <point x="388.18" y="186.52"/>
      <point x="345.18" y="287.86"/>
      <point x="309.76" y="379.38" type="curve"/>
      <point x="294.28" y="422"/>
      <point x="242.06" y="432.82"/>
      <point x="184.24" y="409.76" type="curve" smooth="yes"/>
      <point x="73.94" y="365.64" type="line"/>
      <point x="119.7" y="122.44"/>
      <point x="229.9" y="-16"/>
      <point x="494.1" y="-16" type="curve" smooth="yes" name="n33"/>
      <point x="760.7" y="-16"/>
      <point x="1010.06" y="161.38"/>
      <point x="1010.06" y="476.06" type="curve" smooth="yes"/>
      <point x="1010.06" y="671.9"/>
      <point x="876.44" y="786.08"/>
      <point x="606.28" y="798.1" type="curve"/>
      <point x="597.7" y="726.58" type="line"/>
      <point x="892.26" y="749.28"/>
      <point x="1064.52" y="841.12"/>
      <point x="1064.52" y="1132.38" type="curve" smooth="yes"/>
      <point x="1064.52" y="1318.76"/>
      <point x="932.56" y="1462.02"/>
    </contour>
  </outline>
  <guideline angle="82.9991" x="488" y="0"/>
</glyph>
<glyph name="four" format="2">
  <advance width="1160"/>
  <unicode hex="0034"/>
  <outline>
    <contour>
      <point x="1008.7" y="1446.46" type="line" name="n00"/>
      <point x="783.1" y="1446.46" type="line"/>
      <point x="42.22" y="530.34" type="line"/>
      <point x="51.8" y="407.68" type="line" smooth="yes"/>
      <point x="54.36" y="377.5"/>
      <point x="78.98" y="355.56"/>
      <point x="109.92" y="355.56" type="curve" smooth="yes" name="n06"/>
      <point x="988.92" y="355.56" type="line" smooth="yes"/>
      <point x="1019.42" y="355.56"/>
      <point x="1039.8" y="377.5"/>
      <point x="1043.14" y="403.44" type="curve" smooth="yes"/>
      <point x="1059.74" y="542.48" type="line"/>
      <point x="100.68" y="542.48" type="line" name="n12"/>
      <point x="204.84" y="431.18" type="line"/>
      <point x="930.28" y="1354.6" type="line"/>
      <point x="843.84" y="1371.08" type="line"/>
      <point x="791.04" y="1252.02"/>
      <point x="761.08" y="1122.82"/>
      <point x="749.72" y="1027.94" type="curve" smooth="yes"/>
      <point x="623.6" y="0" type="line" name="n19"/>
      <point x="831.02" y="0" type="line"/>
    </contour>
  </outline>
  <guideline angle="82.9991" x="512" y="0"/>
</glyph>
<glyph name="five" format="2">
  <advance width="1160"/>
  <unicode hex="0035"/>
  <outline>
    <contour>
      <point x="1069.72" y="1446.02" type="line"/>
      <point x="407.52" y="1446.02" type="line" name="n01"/>
      <point x="210.22" y="746.04" type="line"/>
      <point x="353.36" y="703.72" type="line"/>
      <point x="420.04" y="728.38"/>
      <point x="486.76" y="741.16"/>
      <point x="548.84" y="741.16" type="curve" smooth="yes" name="n06"/>
      <point x="689.24" y="741.16"/>
      <point x="762.6" y="659.22"/>
      <point x="762.6" y="527.72" type="curve" smooth="yes"/>
      <point x="762.6" y="343.34"/>
      <point x="667.74" y="185.84"/>
      <point x="476.88" y="185.84" type="curve" smooth="yes" name="n12"/>
      <point x="320.72" y="185.84"/>
      <point x="278.74" y="287.64"/>
      <point x="215.5" y="287.64" type="curve" smooth="yes"/>
      <point x="191.56" y="287.64"/>
      <point x="168.84" y="277.06"/>
      <point x="150.24" y="255.12" type="curve" smooth="yes"/>
      <point x="64.46" y="152.74" type="line"/>
      <point x="143.96" y="63.3"/>
      <point x="270.68" y="-16"/>
      <point x="438" y="-16" type="curve" smooth="yes" name="n22"/>
      <point x="751.96" y="-16"/>
      <point x="1003.88" y="217.12"/>
      <point x="1003.88" y="557.7" type="curve" smooth="yes"/>
      <point x="1003.88" y="770.16"/>
      <point x="876.86" y="938.22"/>
      <point x="624.38" y="938.22" type="curve" smooth="yes" name="n28"/>
      <point x="547.26" y="938.22"/>
      <point x="458.92" y="924.66"/>
      <point x="358.58" y="892.98" type="curve"/>
      <point x="412.18" y="745.16" type="line"/>
      <point x="603.68" y="1424.08" type="line"/>
      <point x="405.4" y="1227.46" type="line" name="n34"/>
      <point x="902.96" y="1227.46" type="line" smooth="yes"/>
      <point x="1003.78" y="1227.46"/>
      <point x="1049" y="1275.58"/>
      <point x="1056.8" y="1343.2" type="curve" smooth="yes"/>
    </contour>
  </outline>
  <guideline angle="82.9991" x="461" y="0"/>
</glyph>
<glyph name="six" format="2">
  <advance width="1067.0"/>
  <unicode hex="0036"/>
  <outline>
    <contour>
      <point x="327.4" y="406.14" type="curve"/>
      <point x="327.4" y="587.5"/>
      <point x="443.68" y="720.78"/>
      <point x="595.46" y="720.78" type="curve" smooth="yes"/>
      <point x="723.28" y="720.78"/>
      <point x="803.38" y="633.24"/>
      <point x="803.38" y="492.98" type="curve" smooth="yes"/>
      <point x="803.38" y="312.88"/>
      <point x="680.86" y="181.06"/>
      <point x="526.96" y="181.06" type="curve" smooth="yes"/>
      <point x="393.92" y="181.06"/>
      <point x="327.4" y="273.56"/>
    </contour>
    <contour>
      <point x="327.84000000000003" y="496.98" type="line"/>
      <point x="348.62" y="658.28"/>
      <point x="444.03999999999996" y="771.3"/>
      <point x="573.58" y="919.46" type="curve"/>
      <point x="1033.04" y="1446.02" type="line"/>
      <point x="821.16" y="1446.02" type="line" smooth="yes"/>
      <point x="764.9" y="1446.02"/>
      <point x="713.88" y="1420.28"/>
      <point x="687.26" y="1388.54" type="curve"/>
      <point x="315.12" y="923.22" type="line" smooth="yes"/>
      <point x="172.06" y="744.84"/>
      <point x="100.82" y="592.58"/>
      <point x="100.82" y="415.94" type="curve" smooth="yes"/>
      <point x="100.82" y="160.22"/>
      <point x="249.64" y="-16.0"/>
      <point x="507.02" y="-16.0" type="curve" smooth="yes"/>
      <point x="815.04" y="-16.0"/>
      <point x="1044.78" y="227.7"/>
      <point x="1044.78" y="530.42" type="curve" smooth="yes"/>
      <point x="1044.78" y="772.86"/>
      <point x="883.34" y="901.46"/>
      <point x="700.2" y="901.46" type="curve" smooth="yes"/>
      <point x="462.56" y="901.46"/>
      <point x="303.48" y="711.04"/>
      <point x="277.6" y="495.65999999999997" type="curve"/>
    </contour>
  </outline>
</glyph>
<glyph name="seven" format="2">
  <advance width="1160.0"/>
  <unicode hex="0037"/>
  <guideline x="491.38" y="0.0" angle="82.9991"/>
  <outline>
    <contour>
      <point x="227.0" y="1446.02" type="line"/>
      <point x="207.28" y="1283.14" type="line" smooth="yes"/>
      <point x="203.94" y="1254.08"/>
      <point x="227.22" y="1227.46"/>
      <point x="255.5" y="1227.46" type="curve" smooth="yes"/>
      <point x="1082.54" y="1227.46" type="line"/>
      <point x="909.06" y="1251.4" type="line"/>
      <point x="864.06" y="1212.6399999999999"/>
      <point x="829.42" y="1169.2"/>
      <point x="793.22" y="1112.84" type="curve" smooth="yes"/>
      <point x="149.01999999999998" y="0.0" type="line"/>
      <point x="321.7" y="0.0" type="line" smooth="yes"/>
      <point x="388.64" y="0.0"/>
      <point x="430.18" y="36.76"/>
      <point x="457.8" y="82.2" type="curve" smooth="yes"/>
      <point x="1093.76" y="1217.22" type="line"/>
      <point x="1109.24" y="1243.84"/>
      <point x="1130.74" y="1280.26"/>
      <point x="1138.76" y="1341.2" type="curve"/>
      <point x="1151.46" y="1446.02" type="line"/>
    </contour>
  </outline>
</glyph>
<glyph name="eight" format="2">
  <advance width="1160.0"/>
  <unicode hex="0038"/>
  <guideline x="525.44" y="0.0" angle="82.9991"/>
  <outline>
    <contour>
      <point x="502.66" y="-16.0" type="curve"/>
      <point x="802.78" y="-16.0"/>
      <point x="1023.18" y="168.96"/>
      <point x="1023.18" y="457.58" type="curve" smooth="yes"/>
      <point x="1023.18" y="654.6"/>
      <point x="896.08" y="779.58"/>
      <point x="615.9" y="787.92" type="curve"/>
      <point x="606.1" y="711.08" type="line"/>
      <point x="903.94" y="722.08"/>
      <point x="1059.62" y="878.5"/>
      <point x="1059.62" y="1117.02" type="curve" smooth="yes"/>
      <point x="1059.62" y="1310.76"/>
      <point x="911.74" y="1462.02"/>
      <point x="683.9" y="1462.02" type="curve"/>
      <point x="417.28" y="1462.02"/>
      <point x="212.26" y="1274.1"/>
      <point x="212.26" y="1026.78" type="curve" smooth="yes"/>
      <point x="212.26" y="841.5"/>
      <point x="334.3" y="720.08"/>
      <point x="577.1" y="711.08" type="curve"/>
      <point x="585.9" y="787.92" type="line"/>
      <point x="237.4" y="777.8"/>
      <point x="85.06" y="611.66"/>
      <point x="85.06" y="353.9" type="curve" smooth="yes"/>
      <point x="85.06" y="130.28"/>
      <point x="247.78" y="-16.0"/>
    </contour>
    <contour>
      <point x="607.14" y="842.96" type="curve"/>
      <point x="485.26" y="842.96"/>
      <point x="443.74" y="931.82"/>
      <point x="443.74" y="1024.88" type="curve" smooth="yes"/>
      <point x="443.74" y="1162.12"/>
      <point x="512.62" y="1279.78"/>
      <point x="661.62" y="1279.78" type="curve"/>
      <point x="776.52" y="1279.78"/>
      <point x="826.5799999999999" y="1197.34"/>
      <point x="826.5799999999999" y="1102.76" type="curve" smooth="yes"/>
      <point x="826.5799999999999" y="959.0"/>
      <point x="756.42" y="842.96"/>
    </contour>
    <contour>
      <point x="524.94" y="171.70000000000002" type="curve"/>
      <point x="395.82" y="171.70000000000002"/>
      <point x="332.14" y="257.26"/>
      <point x="332.14" y="371.16" type="curve" smooth="yes"/>
      <point x="332.14" y="569.46"/>
      <point x="440.24" y="653.7"/>
      <point x="584.08" y="653.7" type="curve"/>
      <point x="704.92" y="653.7"/>
      <point x="778.44" y="587.58"/>
      <point x="778.44" y="459.7" type="curve" smooth="yes"/>
      <point x="778.44" y="292.38"/>
      <point x="690.28" y="171.70000000000002"/>
    </contour>
  </outline>
</glyph>
<glyph name="nine" format="2">
  <advance width="1160.0"/>
  <unicode hex="0039"/>
  <guideline x="506.08" y="0.0" angle="82.9991"/>
  <outline>
    <contour>
      <point x="846.5" y="1050.32" type="curve"/>
      <point x="846.5" y="888.54"/>
      <point x="747.92" y="760.36"/>
      <point x="589.64" y="760.36" type="curve" smooth="yes"/>
      <point x="468.82" y="760.36"/>
      <point x="402.86" y="835.88"/>
      <point x="402.86" y="965.58" type="curve" smooth="yes"/>
      <point x="402.86" y="1141.0"/>
      <point x="505.96" y="1264.96"/>
      <point x="653.7" y="1264.96" type="curve" smooth="yes"/>
      <point x="769.96" y="1264.96"/>
      <point x="846.5" y="1183.92"/>
    </contour>
    <contour>
      <point x="853.84" y="971.14" type="line"/>
      <point x="832.74" y="808.9"/>
      <point x="760.08" y="704.08"/>
      <point x="639.1800000000001" y="562.46" type="curve" smooth="yes"/>
      <point x="154.4" y="0.0" type="line"/>
      <point x="374.08" y="0.0" type="line" smooth="yes"/>
      <point x="428.78" y="0.0"/>
      <point x="478.02" y="24.18"/>
      <point x="503.3" y="55.14" type="curve"/>
      <point x="862.88" y="531.4" type="line" smooth="yes"/>
      <point x="993.4" y="700.78"/>
      <point x="1073.08" y="846.8"/>
      <point x="1073.08" y="1052.9" type="curve" smooth="yes"/>
      <point x="1073.08" y="1291.4"/>
      <point x="929.6" y="1462.02"/>
      <point x="680.66" y="1462.02" type="curve" smooth="yes"/>
      <point x="384.4" y="1462.02"/>
      <point x="161.24" y="1225.0"/>
      <point x="161.24" y="936.16" type="curve" smooth="yes"/>
      <point x="161.24" y="703.28"/>
      <point x="316.56" y="578.9"/>
      <point x="483.12" y="578.9" type="curve" smooth="yes"/>
      <point x="689.14" y="578.9"/>
      <point x="871.52" y="723.64"/>
      <point x="901.86" y="971.14" type="curve"/>
    </contour>
  </outline>
</glyph>
<glyph name="less" format="2">
  <advance width="1160.0"/>
  <unicode hex="003C"/>
  <guideline x="533.0" y="0.0" angle="82.9991"/>
  <outline>
    <contour>
      <point x="167.7" y="724.36" type="line"/>
      <point x="158.68" y="648.84" type="line"/>
      <point x="321.74" y="649.28"/>
      <point x="452.38" y="662.62"/>
      <point x="551.8199999999999" y="710.28" type="curve" smooth="yes"/>
      <point x="937.64" y="895.1" type="line" smooth="yes"/>
      <point x="970.58" y="910.68"/>
      <point x="985.94" y="933.62"/>
      <point x="989.28" y="960.56" type="curve" smooth="yes"/>
      <point x="1010.56" y="1138.48" type="line"/>
    </contour>
    <contour>
      <point x="155.56" y="623.44" type="line"/>
      <point x="896.5" y="209.32" type="line"/>
      <point x="918.78" y="387.24" type="line"/>
      <point x="922.12" y="414.18"/>
      <point x="912.44" y="437.12"/>
      <point x="883.84" y="452.70000000000005" type="curve"/>
      <point x="542.9200000000001" y="637.52" type="line"/>
      <point x="455.06" y="685.4"/>
      <point x="327.2" y="698.52"/>
      <point x="164.36" y="698.96" type="curve"/>
    </contour>
  </outline>
</glyph>
<glyph name="equal" format="2">
  <advance width="1160.0"/>
  <unicode hex="003D"/>
  <guideline x="580.0" y="0.0" angle="82.9991"/>
  <outline>
    <contour>
      <point x="111.4" y="407.68" type="line"/>
      <point x="994.08" y="407.68" type="line"/>
      <point x="1016.36" y="586.8" type="line"/>
      <point x="133.68" y="586.8" type="line"/>
    </contour>
    <contour>
      <point x="155.2" y="757.84" type="line"/>
      <point x="1037.88" y="757.84" type="line"/>
      <point x="1058.6" y="936.96" type="line"/>
      <point x="177.48" y="936.96" type="line"/>
    </contour>
  </outline>
</glyph>
<glyph name="greater" format="2">
  <advance width="1160"/>
  <unicode hex="003E"/>
  <outline>
    <contour>
      <point x="1007.3" y="623.44" type="line"/>
      <point x="1016.1" y="698.96" type="line"/>
      <point x="853.26" y="698.52"/>
      <point x="721.84" y="685.18"/>
      <point x="622.18" y="637.52" type="curve" smooth="yes"/>
      <point x="237.14" y="452.7" type="line" smooth="yes"/>
      <point x="203.42" y="437.12"/>
      <point x="189.06" y="414.18"/>
      <point x="185.72" y="387.24" type="curve" smooth="yes"/>
      <point x="163.44" y="209.32" type="line" name="n09"/>
    </contour>
    <contour>
      <point x="1019.44" y="724.36" type="line"/>
      <point x="277.5" y="1138.48" type="line" name="n11"/>
      <point x="256.22" y="960.56" type="line" smooth="yes"/>
      <point x="252.88" y="933.62"/>
      <point x="261.56" y="910.68"/>
      <point x="290.94" y="895.1" type="curve" smooth="yes"/>
      <point x="631.08" y="710.28" type="line" smooth="yes"/>
      <point x="719.16" y="662.4"/>
      <point x="847.8" y="649.28"/>
      <point x="1010.42" y="648.84" type="curve"/>
    </contour>
  </outline>
  <guideline angle="82.9991" x="533" y="0"/>
</glyph>
<glyph name="question" format="2">
  <advance width="861.0"/>
  <unicode hex="003F"/>
  <guideline x="390.2" y="0.0" angle="82.9991"/>
  <outline>
    <contour>
      <point x="149.48" y="1314.1" type="curve"/>
      <point x="200.5" y="1214.5" type="line"/>
      <point x="212.08" y="1192.56"/>
      <point x="222.1" y="1183.98"/>
      <point x="245.72" y="1183.98" type="curve"/>
      <point x="287.34000000000003" y="1183.98"/>
      <point x="342.14" y="1266.52"/>
      <point x="479.8" y="1266.52" type="curve" smooth="yes"/>
      <point x="576.6" y="1266.52"/>
      <point x="626.2" y="1212.84"/>
      <point x="626.2" y="1127.68" type="curve"/>
      <point x="626.2" y="918.0"/>
      <point x="301.6" y="873.72"/>
      <point x="297.2" y="671.84" type="curve" smooth="yes"/>
      <point x="292.36" y="508.76" type="line"/>
      <point x="456.56" y="508.76" type="line"/>
      <point x="497.03999999999996" y="655.8" type="line" smooth="yes"/>
      <point x="548.56" y="835.54"/>
      <point x="846.76" y="835.56"/>
      <point x="846.76" y="1173.36" type="curve" smooth="yes"/>
      <point x="846.76" y="1332.48"/>
      <point x="732.56" y="1461.24"/>
      <point x="523.92" y="1461.24" type="curve" smooth="yes"/>
      <point x="365.84" y="1461.24"/>
      <point x="245.56" y="1394.58"/>
    </contour>
    <contour>
      <point x="199.88" y="136.92000000000002" type="curve" smooth="yes"/>
      <point x="199.88" y="51.0"/>
      <point x="265.32" y="-14.44"/>
      <point x="351.24" y="-14.44" type="curve" smooth="yes"/>
      <point x="435.6" y="-14.44"/>
      <point x="503.03999999999996" y="51.0"/>
      <point x="503.03999999999996" y="136.92000000000002" type="curve" smooth="yes"/>
      <point x="503.03999999999996" y="221.28"/>
      <point x="435.6" y="288.72"/>
      <point x="351.24" y="288.72" type="curve" smooth="yes"/>
      <point x="265.32" y="288.72"/>
      <point x="199.88" y="221.28"/>
    </contour>
  </outline>
</glyph>
<glyph name="at" format="2">
  <advance width="1544"/>
  <unicode hex="0040"/>
  <outline>
    <contour>
      <point x="1036.44" y="183.76" type="curve" smooth="yes"/>
      <point x="1283.92" y="183.76"/>
      <point x="1485.28" y="445.2"/>
      <point x="1485.28" y="780.28" type="curve" smooth="yes"/>
      <point x="1485.28" y="1148.96"/>
      <point x="1223.24" y="1379.32"/>
      <point x="902.04" y="1379.32" type="curve" smooth="yes" name="n06"/>
      <point x="452.56" y="1379.32"/>
      <point x="76.56" y="963.84"/>
      <point x="76.56" y="463.68" type="curve" smooth="yes"/>
      <point x="76.56" y="32.76"/>
      <point x="343.24" y="-240.68"/>
      <point x="747.84" y="-240.68" type="curve" smooth="yes" name="n12"/>
      <point x="967.92" y="-240.68"/>
      <point x="1144.16" y="-177.76"/>
      <point x="1282.12" y="-86.68" type="curve"/>
      <point x="1264.52" y="-18.52" type="line"/>
      <point x="1254.72" y="14"/>
      <point x="1228.44" y="41.4"/>
      <point x="1168.96" y="8.88" type="curve"/>
      <point x="1093.84" y="-36.52"/>
      <point x="955.92" y="-84.52"/>
      <point x="765.44" y="-84.52" type="curve" smooth="yes" name="n22"/>
      <point x="458.4" y="-84.52"/>
      <point x="249.88" y="110.72"/>
      <point x="249.88" y="472.36" type="curve" smooth="yes"/>
      <point x="249.88" y="902.56"/>
      <point x="529.16" y="1225.16"/>
      <point x="882.88" y="1225.16" type="curve" smooth="yes" name="n28"/>
      <point x="1147.72" y="1225.16"/>
      <point x="1316.64" y="1068.76"/>
      <point x="1316.64" y="780.28" type="curve" smooth="yes"/>
      <point x="1316.64" y="526.76"/>
      <point x="1208.64" y="333.24"/>
      <point x="1088.8" y="333.24" type="curve" smooth="yes"/>
      <point x="1021.76" y="333.24"/>
      <point x="984.56" y="373"/>
      <point x="1042.88" y="545.8" type="curve"/>
      <point x="1177.8" y="916.12" type="line"/>
      <point x="1116.84" y="945.48"/>
      <point x="1057.72" y="960.16"/>
      <point x="959.36" y="960.16" type="curve" smooth="yes" name="n41"/>
      <point x="602.72" y="960.16"/>
      <point x="409.2" y="666.56"/>
      <point x="409.2" y="422.76" type="curve" smooth="yes"/>
      <point x="409.2" y="288.24"/>
      <point x="473.24" y="185.08"/>
      <point x="608.64" y="185.08" type="curve" smooth="yes"/>
      <point x="744.68" y="185.08"/>
      <point x="863.8" y="264.4"/>
      <point x="983.68" y="479.36" type="curve"/>
      <point x="873.64" y="424.16" type="line"/>
      <point x="848.36" y="253.44"/>
      <point x="926.96" y="183.76"/>
    </contour>
    <contour>
      <point x="982.2" y="864.64" type="line"/>
      <point x="857.52" y="521.72" type="line"/>
      <point x="808.76" y="379.84"/>
      <point x="736.92" y="340.8"/>
      <point x="675.92" y="340.8" type="curve" smooth="yes" name="n58"/>
      <point x="622.72" y="340.8"/>
      <point x="595.44" y="381.8"/>
      <point x="595.44" y="448.6" type="curve" smooth="yes"/>
      <point x="595.44" y="631.16"/>
      <point x="742.64" y="810.68"/>
      <point x="902.76" y="810.68" type="curve" smooth="yes" name="n64"/>
      <point x="952.96" y="810.68"/>
      <point x="998.56" y="799.56"/>
      <point x="1035.88" y="777.76" type="curve"/>
    </contour>
  </outline>
  <guideline angle="0" x="0" y="700"/>
  <guideline angle="90" x="755" y="0"/>
  <guideline angle="82.9991" x="100" y="0"/>
</glyph>
<glyph name="B" format="2">
  <advance width="1228"/>
  <unicode hex="0042"/>
  <anchor x="259.16" y="418.96" name="Bar"/>
  <anchor x="666.82" y="1518.62" name="Top"/>
  <anchor x="524.34" y="-70" name="bottom"/>
  <anchor x="666.82" y="1518.62" name="top"/>
  <outline>
    <contour>
      <point x="585.82" y="0" type="line" smooth="yes" name="n00"/>
      <point x="924.18" y="0"/>
      <point x="1128.26" y="201.48"/>
      <point x="1128.26" y="467.72" type="curve" smooth="yes"/>
      <point x="1128.26" y="663.96"/>
      <point x="975.78" y="769.04"/>
      <point x="662.66" y="769.04" type="curve"/>
      <point x="593.3" y="702.64" type="line"/>
      <point x="1001.66" y="702.64"/>
      <point x="1170.98" y="886.2"/>
      <point x="1170.98" y="1116.48" type="curve" smooth="yes"/>
      <point x="1170.98" y="1316.96"/>
      <point x="1038.5" y="1446.8"/>
      <point x="718.74" y="1446.8" type="curve" smooth="yes" name="n13"/>
      <point x="254.82" y="1446.8" type="line"/>
      <point x="76.58" y="0" type="line"/>
      <point x="336.14" y="0" type="line"/>
      <point x="488.98" y="1244.28" type="line"/>
      <point x="694.9" y="1244.28" type="line" smooth="yes" name="n18"/>
      <point x="838.86" y="1244.28"/>
      <point x="907.18" y="1191.76"/>
      <point x="907.18" y="1071.92" type="curve" smooth="yes"/>
      <point x="907.18" y="898.36"/>
      <point x="806.58" y="816.72"/>
      <point x="627.58" y="816.72" type="curve" smooth="yes"/>
      <point x="413.02" y="816.72" type="line" name="n25"/>
      <point x="390.74" y="636.04" type="line" name="n26"/>
      <point x="658.22" y="636.04" type="line" smooth="yes"/>
      <point x="809.58" y="636.04"/>
      <point x="871.82" y="568.84"/>
      <point x="871.82" y="464.16" type="curve" smooth="yes"/>
      <point x="871.82" y="310.44"/>
      <point x="791.62" y="204.08"/>
      <point x="606.54" y="204.08" type="curve" smooth="yes" name="n33"/>
      <point x="328.14" y="204.08" type="line"/>
      <point x="180.18" y="0" type="line"/>
    </contour>
  </outline>
  <guideline angle="82.9991" x="492" y="0"/>
</glyph>
<glyph name="D" format="2">
  <advance width="1416"/>
  <unicode hex="0044"/>
  <anchor x="740.4" y="1518.62" name="Top"/>
  <anchor x="547.74" y="-95.74" name="bottom"/>
  <anchor x="740.4" y="1518.62" name="top"/>
  <outline>
    <contour>
      <point x="1361.18" y="819.8" type="curve" smooth="yes"/>
      <point x="1361.18" y="1182.68"/>
      <point x="1132.66" y="1446.8"/>
      <point x="764.74" y="1446.8" type="curve" smooth="yes" name="n03"/>
      <point x="254.82" y="1446.8" type="line"/>
      <point x="76.58" y="0" type="line"/>
      <point x="586.5" y="0" type="line" smooth="yes" name="n06"/>
      <point x="1033.98" y="0"/>
      <point x="1361.18" y="339.88"/>
    </contour>
    <contour>
      <point x="1094.94" y="813.56" type="curve" smooth="yes"/>
      <point x="1094.94" y="439.48"/>
      <point x="902.98" y="208.76"/>
      <point x="611.9" y="208.76" type="curve" smooth="yes" name="n12"/>
      <point x="363.1" y="208.76" type="line"/>
      <point x="490.54" y="1238.04" type="line"/>
      <point x="739.34" y="1238.04" type="line" smooth="yes" name="n15"/>
      <point x="964.9" y="1238.04"/>
      <point x="1094.94" y="1072.84"/>
    </contour>
  </outline>
  <guideline angle="82.9991" x="705" y="0"/>
</glyph>
<glyph name="E" format="2">
  <advance width="1073"/>
  <unicode hex="0045"/>
  <anchor x="584.48" y="721.84" name="Slash"/>
  <anchor x="696.4" y="1518.62" name="Top"/>
  <anchor x="520.6" y="-70" name="bottom"/>
  <anchor x="-30.58" y="1120" name="onRight"/>
  <anchor x="696.4" y="1518.62" name="top"/>
  <outline>
    <contour>
      <point x="515.94" y="1446.8" type="line"/>
      <point x="254.82" y="1446.8" type="line"/>
      <point x="76.58" y="0" type="line"/>
      <point x="337.7" y="0" type="line" name="n03"/>
    </contour>
    <contour>
      <point x="415.02" y="829.64" type="line" name="n04"/>
      <point x="389.18" y="628.24" type="line" name="n05"/>
      <point x="871.66" y="628.24" type="line"/>
      <point x="897.5" y="829.64" type="line"/>
    </contour>
    <contour>
      <point x="489.22" y="1446.8" type="line" name="n08"/>
      <point x="463.82" y="1237.6" type="line" name="n09"/>
      <point x="1071.9" y="1237.6" type="line"/>
      <point x="1097.74" y="1446.8" type="line"/>
    </contour>
    <contour>
      <point x="338.38" y="209.2" type="line" name="n12"/>
      <point x="312.54" y="0" type="line"/>
      <point x="921.06" y="0" type="line"/>
      <point x="946.9" y="209.2" type="line"/>
    </contour>
  </outline>
  <guideline angle="82.9991" x="552" y="0"/>
</glyph>
<glyph name="F" format="2">
  <advance width="1062"/>
  <unicode hex="0046"/>
  <anchor x="692.64" y="1518.62" name="Top"/>
  <anchor x="365.56" y="-70" name="bottom"/>
  <anchor x="692.64" y="1518.62" name="top"/>
  <outline>
    <contour>
      <point x="515.94" y="1446.8" type="line"/>
      <point x="254.82" y="1446.8" type="line"/>
      <point x="76.58" y="0" type="line" name="n02"/>
      <point x="337.7" y="0" type="line"/>
    </contour>
    <contour>
      <point x="411.02" y="800.28" type="line" name="n04"/>
      <point x="385.62" y="591.08" type="line" name="n05"/>
      <point x="900.14" y="591.08" type="line"/>
      <point x="927.54" y="800.28" type="line"/>
    </contour>
    <contour>
      <point x="489.22" y="1446.8" type="line" name="n08"/>
      <point x="463.82" y="1237.6" type="line" name="n09"/>
      <point x="1071.9" y="1237.6" type="line"/>
      <point x="1097.74" y="1446.8" type="line"/>
    </contour>
  </outline>
  <guideline angle="82.9991" x="531" y="0"/>
</glyph>
<glyph name="G" format="2">
  <advance width="1355"/>
  <unicode hex="0047"/>
  <anchor x="881.32" y="1518.62" name="Top"/>
  <anchor x="697.36" y="-70" name="bottom"/>
  <anchor x="881.32" y="1518.62" name="top"/>
  <outline>
    <contour>
      <point x="1057.36" y="297.08" type="line"/>
      <point x="951.92" y="234.28"/>
      <point x="861.36" y="192.76"/>
      <point x="714" y="192.76" type="curve" smooth="yes" name="n03"/>
      <point x="493.6" y="192.76"/>
      <point x="346.64" y="359.48"/>
      <point x="346.64" y="634.8" type="curve" smooth="yes"/>
      <point x="346.64" y="997.52"/>
      <point x="548.84" y="1238.44"/>
      <point x="837.36" y="1238.44" type="curve" smooth="yes" name="n09"/>
      <point x="994.52" y="1238.44"/>
      <point x="1062.48" y="1186.28"/>
      <point x="1139.76" y="1134.8" type="curve" smooth="yes"/>
      <point x="1180.08" y="1108.28"/>
      <point x="1221.08" y="1118.08"/>
      <point x="1248.04" y="1156.4" type="curve"/>
      <point x="1332.04" y="1265.36" type="line"/>
      <point x="1234.72" y="1372.24"/>
      <point x="1092.2" y="1462.8"/>
      <point x="856.52" y="1462.8" type="curve" smooth="yes" name="n19"/>
      <point x="415.84" y="1462.8"/>
      <point x="80.84" y="1113.84"/>
      <point x="80.84" y="625.44" type="curve" smooth="yes"/>
      <point x="80.84" y="255.88"/>
      <point x="316.04" y="-16"/>
      <point x="669.88" y="-16" type="curve" smooth="yes" name="n25"/>
      <point x="887.88" y="-16"/>
      <point x="1049.92" y="33.08"/>
      <point x="1197.28" y="139.56" type="curve"/>
      <point x="1269.32" y="722.12" type="line"/>
      <point x="819.4" y="722.12" type="line" name="n30"/>
      <point x="802.24" y="573.28" type="line" smooth="yes"/>
      <point x="798.68" y="545.88"/>
      <point x="817.16" y="525.84"/>
      <point x="849.68" y="525.84" type="curve" smooth="yes" name="n34"/>
      <point x="1009.76" y="525.84" type="line"/>
      <point x="960" y="113.28" type="line"/>
    </contour>
  </outline>
  <guideline angle="82.9991" x="700" y="0"/>
</glyph>
<glyph name="H" format="2">
  <advance width="1435"/>
  <unicode hex="0048"/>
  <anchor x="817.46" y="1518.62" name="Top"/>
  <anchor x="633.92" y="-70" name="bottom"/>
  <anchor x="-30.58" y="1120" name="onRight"/>
  <anchor x="817.46" y="1518.62" name="top"/>
  <outline>
    <contour>
      <point x="515.94" y="1446.8" type="line" name="n00"/>
      <point x="254.82" y="1446.8" type="line"/>
      <point x="76.58" y="0" type="line" name="n02"/>
      <point x="337.7" y="0" type="line"/>
    </contour>
    <contour>
      <point x="413.46" y="820.28" type="line" name="n04"/>
      <point x="390.74" y="634.48" type="line" name="n05"/>
      <point x="1136.02" y="634.48" type="line"/>
      <point x="1160.3" y="820.28" type="line"/>
    </contour>
    <contour>
      <point x="1385.78" y="1446.8" type="line"/>
      <point x="1124.66" y="1446.8" type="line"/>
      <point x="946.42" y="0" type="line"/>
      <point x="1207.54" y="0" type="line"/>
    </contour>
  </outline>
  <guideline angle="82.9991" x="696" y="0"/>
</glyph>
<glyph name="J" format="2">
  <advance width="818"/>
  <unicode hex="004A"/>
  <anchor x="554.52" y="721.84" name="Bar"/>
  <anchor x="658.56" y="1518.62" name="Top"/>
  <anchor x="227.1" y="-70" name="bottom"/>
  <anchor x="658.56" y="1518.62" name="top"/>
  <outline>
    <contour>
      <point x="780.46" y="1446.8" type="line" name="n00"/>
      <point x="520.9" y="1446.8" type="line"/>
      <point x="405.14" y="496.24" type="line" smooth="yes"/>
      <point x="379.62" y="282.52"/>
      <point x="288.7" y="200.56"/>
      <point x="166.18" y="200.56" type="curve" smooth="yes" name="n05"/>
      <point x="104.98" y="200.56"/>
      <point x="66.74" y="214.08"/>
      <point x="36.5" y="214.08" type="curve" smooth="yes"/>
      <point x="1.54" y="214.08"/>
      <point x="-12.94" y="192.48"/>
      <point x="-16.5" y="165.08" type="curve" smooth="yes"/>
      <point x="-35.66" y="10.88" type="line"/>
      <point x="31.94" y="-7.56"/>
      <point x="95.3" y="-16"/>
      <point x="165.74" y="-16" type="curve" name="n15"/>
      <point x="455.54" y="-16.44"/>
      <point x="625.14" y="182"/>
      <point x="664.7" y="502.48" type="curve" smooth="yes"/>
    </contour>
  </outline>
  <guideline angle="82.9991" x="425" y="0"/>
</glyph>
<glyph name="L" format="2">
  <advance width="966"/>
  <unicode hex="004C"/>
  <anchor x="292.58" y="721.84" name="Bar"/>
  <anchor x="404.18" y="1518.62" name="Top"/>
  <anchor x="436.94" y="-70" name="bottom"/>
  <anchor x="404.18" y="1518.62" name="top"/>
  <outline>
    <contour>
      <point x="514.38" y="1446.8" type="line" name="n00"/>
      <point x="254.82" y="1446.8" type="line"/>
      <point x="76.58" y="0" type="line"/>
      <point x="336.14" y="0" type="line" name="n03"/>
    </contour>
    <contour>
      <point x="339.94" y="217" type="line" name="n04"/>
      <point x="312.54" y="0" type="line"/>
      <point x="862.66" y="0" type="line"/>
      <point x="888.5" y="217" type="line"/>
    </contour>
  </outline>
  <guideline angle="82.9991" x="468" y="0"/>
</glyph>
<glyph name="M" format="2">
  <advance width="1758.08"/>
  <unicode hex="004D"/>
  <guideline x="857.42" y="0.0" angle="82.9991"/>
  <anchor x="985.34" y="1518.62" name="Top"/>
  <anchor x="985.34" y="1518.62" name="top"/>
  <anchor x="798.92" y="-70.0" name="bottom"/>
  <outline>
    <contour>
      <point x="785.86" y="282.64" type="curve"/>
      <point x="896.38" y="282.64" type="line"/>
      <point x="880.34" y="379.12"/>
      <point x="864.08" y="487.18"/>
      <point x="832.22" y="580.76" type="curve" smooth="yes"/>
      <point x="532.66" y="1404.48" type="line"/>
      <point x="508.38" y="1440.12"/>
      <point x="495.02" y="1446.8"/>
      <point x="450.02" y="1446.8" type="curve" smooth="yes"/>
      <point x="254.82" y="1446.8" type="line"/>
      <point x="76.58" y="0.0" type="line"/>
      <point x="305.62" y="0.0" type="line"/>
      <point x="419.7" y="941.76" type="line" smooth="yes"/>
      <point x="427.94" y="1013.9200000000001"/>
      <point x="427.94" y="1123.96"/>
      <point x="427.94" y="1196.12" type="curve"/>
      <point x="380.5" y="1186.56" type="line"/>
      <point x="725.06" y="235.4" type="line"/>
      <point x="737.98" y="198.2"/>
      <point x="770.06" y="178.6"/>
      <point x="810.38" y="178.6" type="curve" smooth="yes"/>
      <point x="846.02" y="178.6" type="line" smooth="yes"/>
      <point x="886.34" y="178.6"/>
      <point x="921.54" y="198.2"/>
      <point x="944.26" y="235.4" type="curve" smooth="yes"/>
      <point x="1518.54" y="1186.56" type="line"/>
      <point x="1474.22" y="1196.12" type="line"/>
      <point x="1456.18" y="1123.96"/>
      <point x="1428.78" y="1010.8"/>
      <point x="1418.98" y="937.0799999999999" type="curve" smooth="yes"/>
      <point x="1303.34" y="0.0" type="line"/>
      <point x="1530.82" y="0.0" type="line"/>
      <point x="1709.06" y="1446.8" type="line"/>
      <point x="1512.3" y="1446.8" type="line" smooth="yes"/>
      <point x="1467.3" y="1446.8"/>
      <point x="1452.38" y="1440.12"/>
      <point x="1420.3" y="1404.48" type="curve" smooth="yes"/>
      <point x="917.98" y="580.76" type="line"/>
      <point x="861.5" y="486.4"/>
      <point x="823.74" y="379.12"/>
    </contour>
  </outline>
</glyph>
<glyph name="N" format="2">
  <advance width="1434.8"/>
  <unicode hex="004E"/>
  <guideline x="695.78" y="0.0" angle="82.9991"/>
  <anchor x="831.78" y="1518.18" name="Top"/>
  <anchor x="831.78" y="1518.18" name="top"/>
  <anchor x="637.28" y="-70.0" name="bottom"/>
  <outline>
    <contour>
      <point x="1065.58" y="364.76" type="line"/>
      <point x="471.38" y="1404.48" type="line"/>
      <point x="450.22" y="1441.68"/>
      <point x="435.74" y="1446.8"/>
      <point x="390.74" y="1446.8" type="curve"/>
      <point x="254.82" y="1446.8" type="line"/>
      <point x="76.58" y="0.0" type="line"/>
      <point x="305.62" y="0.0" type="line"/>
      <point x="419.7" y="938.64" type="line" smooth="yes"/>
      <point x="427.94" y="1010.8"/>
      <point x="432.62" y="1113.04"/>
      <point x="434.18" y="1196.12" type="curve"/>
      <point x="397.65999999999997" y="1082.04" type="line"/>
      <point x="988.3" y="45.88" type="line"/>
      <point x="1011.02" y="13.36"/>
      <point x="1033.74" y="0.0"/>
      <point x="1074.06" y="0.0" type="curve" smooth="yes"/>
      <point x="1207.54" y="0.0" type="line"/>
      <point x="1385.78" y="1446.8" type="line"/>
      <point x="1156.74" y="1446.8" type="line"/>
      <point x="1044.22" y="530.44" type="line" smooth="yes"/>
      <point x="1034.42" y="450.92"/>
      <point x="1027.06" y="335.08"/>
      <point x="1028.62" y="236.84" type="curve"/>
    </contour>
  </outline>
</glyph>
<glyph name="Q" format="2">
  <advance width="1506.36"/>
  <unicode hex="0051"/>
  <guideline x="732.0" y="0.0" angle="82.9991"/>
  <anchor x="867.2" y="1518.62" name="Top"/>
  <anchor x="867.2" y="1518.62" name="top"/>
  <anchor x="672.08" y="-70.0" name="bottom"/>
  <anchor x="17.22" y="1120.0" name="onRight"/>
  <anchor x="771.42" y="721.84" name="Slash"/>
  <outline>
    <contour>
      <point x="1063.52" y="165.16" type="line"/>
      <point x="777.2" y="141.12" type="line"/>
      <point x="1035.8" y="-224.39999999999998" type="line"/>
      <point x="1071.0" y="-268.96"/>
      <point x="1117.56" y="-283.88"/>
      <point x="1179.04" y="-283.88" type="curve" smooth="yes"/>
      <point x="1391.16" y="-283.88" type="line"/>
    </contour>
    <component base="O"/>
  </outline>
</glyph>
<glyph name="R" format="2">
  <advance width="1199"/>
  <unicode hex="0052"/>
  <anchor x="674.14" y="1518.62" name="Top"/>
  <anchor x="562.18" y="-70" name="bottom"/>
  <anchor x="674.14" y="1518.62" name="top"/>
  <outline>
    <contour>
      <point x="506.26" y="568.36" type="line" smooth="yes"/>
      <point x="554.7" y="568.36"/>
      <point x="573.82" y="554.12"/>
      <point x="590.26" y="519.88" type="curve"/>
      <point x="801.94" y="52.56" type="line"/>
      <point x="816.18" y="18.72"/>
      <point x="847.14" y="0" name="n06"/>
      <point x="891.46" y="0" type="curve" smooth="yes"/>
      <point x="1124.3" y="0" type="line"/>
      <point x="866.1" y="537.68" type="line"/>
      <point x="817.58" y="634.08"/>
      <point x="721.38" y="661.48"/>
      <point x="614.62" y="661.48" type="curve"/>
      <point x="524.66" y="588.64" type="line"/>
      <point x="579.86" y="588.64" type="line" smooth="yes" name="n14"/>
      <point x="920.7" y="588.64"/>
      <point x="1135.62" y="798.56"/>
      <point x="1135.62" y="1086.4" type="curve" smooth="yes"/>
      <point x="1135.62" y="1297.76"/>
      <point x="996.94" y="1446.8"/>
      <point x="664.02" y="1446.8" type="curve" smooth="yes" name="n20"/>
      <point x="253.26" y="1446.8" type="line"/>
      <point x="76.58" y="0" type="line"/>
      <point x="334.58" y="0" type="line"/>
      <point x="511.06" y="1430.96" type="line"/>
      <point x="273.7" y="1244.28" type="line"/>
      <point x="640.18" y="1244.28" type="line" smooth="yes" name="n26"/>
      <point x="799.98" y="1244.28"/>
      <point x="877.62" y="1169.88"/>
      <point x="877.62" y="1045.4" type="curve" smooth="yes"/>
      <point x="877.62" y="883.88"/>
      <point x="784.1" y="755.28"/>
      <point x="577.18" y="755.28" type="curve" smooth="yes" name="n32"/>
      <point x="340.82" y="755.28" type="line"/>
      <point x="283.78" y="568.36" type="line"/>
    </contour>
  </outline>
  <guideline angle="82.9991" x="570" y="0"/>
</glyph>
<glyph name="S" format="2">
  <advance width="1031"/>
  <unicode hex="0053"/>
  <anchor x="678.68" y="1518.62" name="Top"/>
  <anchor x="421.14" y="-70" name="bottom"/>
  <anchor x="678.68" y="1518.62" name="top"/>
  <outline>
    <contour>
      <point x="1018.56" y="1295.16" type="line"/>
      <point x="941.88" y="1392.72"/>
      <point x="805.52" y="1461.24"/>
      <point x="648.76" y="1461.24" type="curve" smooth="yes" name="n03"/>
      <point x="342.6" y="1461.24"/>
      <point x="153.36" y="1234"/>
      <point x="153.36" y="985.2" type="curve" smooth="yes"/>
      <point x="153.36" y="549.28"/>
      <point x="691.2" y="701.72"/>
      <point x="691.2" y="437.56" type="curve" smooth="yes"/>
      <point x="691.2" y="288.92"/>
      <point x="600.08" y="199"/>
      <point x="449.28" y="199" type="curve" smooth="yes" name="n12"/>
      <point x="268.12" y="199"/>
      <point x="214.8" y="332"/>
      <point x="150.68" y="332" type="curve" smooth="yes"/>
      <point x="127.52" y="332"/>
      <point x="103.68" y="317.52"/>
      <point x="88.76" y="299.48" type="curve"/>
      <point x="-3.04" y="173.8" type="line"/>
      <point x="87" y="59.8"/>
      <point x="247.2" y="-16"/>
      <point x="416.08" y="-16" type="curve" smooth="yes" name="n22"/>
      <point x="740.44" y="-16"/>
      <point x="942.52" y="220.08"/>
      <point x="942.52" y="503.08" type="curve" smooth="yes"/>
      <point x="942.52" y="909.16"/>
      <point x="400" y="800.6"/>
      <point x="400" y="1041.8" type="curve" smooth="yes"/>
      <point x="400" y="1158.24"/>
      <point x="479.16" y="1247.8"/>
      <point x="624.48" y="1247.8" type="curve" smooth="yes" name="n31"/>
      <point x="774.32" y="1247.8"/>
      <point x="827.68" y="1145.88"/>
      <point x="879.76" y="1145.88" type="curve" smooth="yes"/>
      <point x="905.6" y="1145.88"/>
      <point x="922.08" y="1158.8"/>
      <point x="941.24" y="1184.64" type="curve"/>
    </contour>
  </outline>
  <guideline angle="82.9991" x="475" y="0"/>
</glyph>
<glyph name="T" format="2">
  <advance width="1113.76"/>
  <unicode hex="0054"/>
  <guideline x="548.04" y="0.0" angle="82.9991"/>
  <anchor x="665.1" y="1518.62" name="Top"/>
  <anchor x="470.98" y="-70.0" name="bottom"/>
  <anchor x="595.74" y="721.84" name="Slash"/>
  <anchor x="665.1" y="1518.62" name="top"/>
  <outline>
    <contour>
      <point x="788.78" y="1446.8" type="line"/>
      <point x="529.22" y="1446.8" type="line"/>
      <point x="352.53999999999996" y="0.0" type="line"/>
      <point x="610.54" y="0.0" type="line"/>
    </contour>
    <contour>
      <point x="131.7" y="1446.8" type="line"/>
      <point x="106.3" y="1231.36" type="line"/>
      <point x="1158.02" y="1231.36" type="line"/>
      <point x="1184.98" y="1446.8" type="line"/>
    </contour>
  </outline>
</glyph>
<glyph name="U" format="2">
  <advance width="1383"/>
  <unicode hex="0055"/>
  <anchor x="797.94" y="1518.62" name="Top"/>
  <anchor x="611.72" y="-70" name="bottom"/>
  <anchor x="797.94" y="1518.62" name="top"/>
  <outline>
    <contour>
      <point x="641.68" y="209.92" type="curve" smooth="yes" name="n00"/>
      <point x="454.16" y="209.92"/>
      <point x="363.4" y="357.68"/>
      <point x="389.6" y="578.16" type="curve"/>
      <point x="496.04" y="1446.8" type="line" name="n04"/>
      <point x="236.48" y="1446.8" type="line"/>
      <point x="131.6" y="577.72" type="line"/>
      <point x="89.36" y="234.92"/>
      <point x="270.56" y="-16.44"/>
      <point x="614.28" y="-16.44" type="curve" smooth="yes" name="n09"/>
      <point x="958.44" y="-16.44"/>
      <point x="1200.76" y="234.92"/>
      <point x="1243.44" y="577.72" type="curve" smooth="yes"/>
      <point x="1349.88" y="1446.8" type="line"/>
      <point x="1090.32" y="1446.8" type="line"/>
      <point x="983.88" y="577.72" type="line" smooth="yes"/>
      <point x="957.24" y="357.24"/>
      <point x="828.76" y="209.92"/>
    </contour>
  </outline>
  <guideline angle="82.9991" x="677" y="0"/>
</glyph>
<glyph name="V" format="2">
  <advance width="1298"/>
  <unicode hex="0056"/>
  <anchor x="752.94" y="1518.62" name="Top"/>
  <anchor x="569.06" y="-70" name="bottom"/>
  <anchor x="752.94" y="1518.62" name="top"/>
  <outline>
    <contour>
      <point x="1405.72" y="1446.8" type="line" name="n00"/>
      <point x="1196.28" y="1446.8" type="line" smooth="yes"/>
      <point x="1152.84" y="1446.8"/>
      <point x="1115.64" y="1416.28"/>
      <point x="1102.72" y="1386.88" type="curve" smooth="yes"/>
      <point x="691.44" y="490.52" type="line"/>
      <point x="624.84" y="358.88"/>
      <point x="564.92" y="153.68"/>
      <point x="539.32" y="0" type="curve" name="n08"/>
      <point x="691.48" y="0" type="line"/>
    </contour>
    <contour>
      <point x="456.2" y="0" type="line"/>
      <point x="613.04" y="0" type="line"/>
      <point x="637.56" y="153.68"/>
      <point x="611.28" y="358.88"/>
      <point x="577.2" y="490.52" type="curve"/>
      <point x="383.4" y="1386.88" type="line"/>
      <point x="377.16" y="1420.96"/>
      <point x="349.76" y="1446.8"/>
      <point x="304.76" y="1446.8" type="curve" smooth="yes"/>
      <point x="96.44" y="1446.8" type="line"/>
    </contour>
  </outline>
  <guideline angle="82.9991" x="566" y="0"/>
</glyph>
<glyph name="W" format="2">
  <advance width="1937"/>
  <unicode hex="0057"/>
  <anchor x="1066.66" y="1518.62" name="Top"/>
  <anchor x="884.78" y="-70" name="bottom"/>
  <anchor x="1066.66" y="1518.62" name="top"/>
  <outline>
    <contour>
      <point x="1036.38" y="1446.8" type="line" smooth="yes" name="n00"/>
      <point x="992.94" y="1446.8"/>
      <point x="957.52" y="1416.5"/>
      <point x="944.38" y="1386.88" type="curve"/>
      <point x="583.9" y="504.56" type="line"/>
      <point x="527.1" y="369.8"/>
      <point x="470.74" y="153.68"/>
      <point x="447.14" y="0" type="curve" name="n07"/>
      <point x="581.26" y="0" type="line"/>
      <point x="989.62" y="997.68" type="line" smooth="yes"/>
      <point x="1029.94" y="1095.92"/>
      <point x="1084.3" y="1274.16"/>
      <point x="1098.78" y="1370.84" type="curve"/>
      <point x="1017.22" y="1370.84" type="line"/>
      <point x="1007.86" y="1274.16"/>
      <point x="1019.22" y="1095.92"/>
      <point x="1035.26" y="997.68" type="curve" smooth="yes"/>
      <point x="1197.86" y="0" type="line"/>
      <point x="1339.78" y="0" type="line"/>
      <point x="1352.26" y="153.68"/>
      <point x="1343.58" y="369.8"/>
      <point x="1320.86" y="504.56" type="curve"/>
      <point x="1176.74" y="1386.88" type="line"/>
      <point x="1167.16" y="1421.18"/>
      <point x="1141.54" y="1446.8"/>
      <point x="1096.54" y="1446.8" type="curve" smooth="yes"/>
    </contour>
    <contour>
      <point x="347.54" y="0" type="line"/>
      <point x="532.02" y="0" type="line"/>
      <point x="544.5" y="153.68"/>
      <point x="532.7" y="366.68"/>
      <point x="520.9" y="504.56" type="curve"/>
      <point x="393.82" y="1386.88" type="line" smooth="yes"/>
      <point x="389.14" y="1422.52"/>
      <point x="360.18" y="1446.8"/>
      <point x="315.18" y="1446.8" type="curve" smooth="yes"/>
      <point x="111.54" y="1446.8" type="line"/>
    </contour>
    <contour>
      <point x="2024.06" y="1446.8" type="line"/>
      <point x="1819.3" y="1446.8" type="line" smooth="yes"/>
      <point x="1775.86" y="1446.8"/>
      <point x="1735.1" y="1417.84"/>
      <point x="1725.3" y="1386.88" type="curve"/>
      <point x="1382.3" y="504.56" type="line"/>
      <point x="1336.42" y="366.68"/>
      <point x="1276.94" y="153.68"/>
      <point x="1253.34" y="0" type="curve"/>
      <point x="1433.14" y="0" type="line"/>
    </contour>
  </outline>
  <guideline angle="0" x="0" y="83"/>
  <guideline angle="82.9991" x="883" y="0"/>
</glyph>
<glyph name="X" format="2">
  <advance width="1261"/>
  <unicode hex="0058"/>
  <anchor x="735.3" y="1518.62" name="Top"/>
  <anchor x="551.3" y="-70" name="bottom"/>
  <anchor x="735.3" y="1518.62" name="top"/>
  <outline>
    <contour>
      <point x="487.66" y="743.56" type="line"/>
      <point x="738.3" y="743.56" type="line"/>
      <point x="440.9" y="1413.64" type="line" smooth="yes"/>
      <point x="430.22" y="1437.68"/>
      <point x="418.42" y="1446.8" name="n04"/>
      <point x="383.46" y="1446.8" type="curve" smooth="yes"/>
      <point x="148.18" y="1446.8" type="line"/>
    </contour>
    <contour>
      <point x="1323.58" y="1446.8" type="line"/>
      <point x="1052.86" y="1446.8" type="line" smooth="yes"/>
      <point x="1027.7" y="1446.8"/>
      <point x="1010.78" y="1435.44"/>
      <point x="993.86" y="1410.28" type="curve" smooth="yes"/>
      <point x="686.38" y="958.08" type="line"/>
      <point x="640.5" y="886.8"/>
      <point x="626.02" y="827.32"/>
      <point x="614.66" y="743.56" type="curve"/>
      <point x="801.82" y="743.56" type="line"/>
    </contour>
    <contour>
      <point x="817.86" y="814.84" type="line"/>
      <point x="567.22" y="814.84" type="line"/>
      <point x="899.46" y="45.2" type="line" smooth="yes"/>
      <point x="909.7" y="22.48"/>
      <point x="927.3" y="0" name="n21"/>
      <point x="962.26" y="0" type="curve" smooth="yes"/>
      <point x="1194.86" y="0" type="line"/>
    </contour>
    <contour>
      <point x="-84.26" y="0" type="line"/>
      <point x="174.86" y="0" type="line" smooth="yes"/>
      <point x="206.26" y="0"/>
      <point x="234.1" y="12.24"/>
      <point x="255.7" y="45.2" type="curve"/>
      <point x="630.06" y="590.96" type="line"/>
      <point x="669.7" y="645.08"/>
      <point x="687.3" y="730.64"/>
      <point x="700.22" y="814.84" type="curve"/>
      <point x="503.7" y="814.84" type="line"/>
    </contour>
  </outline>
  <guideline angle="82.9991" x="518" y="0"/>
</glyph>
<glyph name="Z" format="2">
  <advance width="1122"/>
  <unicode hex="005A"/>
  <anchor x="687.96" y="1518.62" name="Top"/>
  <anchor x="498.28" y="-70" name="bottom"/>
  <anchor x="687.96" y="1518.62" name="top"/>
  <outline>
    <contour>
      <point x="1134" y="1302.24" type="line"/>
      <point x="1147.8" y="1322.72"/>
      <point x="1159.16" y="1341.88"/>
      <point x="1162.72" y="1365.04" type="curve" smooth="yes"/>
      <point x="1174.08" y="1446.8" type="line"/>
      <point x="953.28" y="1446.8" type="line" name="n05"/>
      <point x="1.2" y="142.56" type="line"/>
      <point x="-12.16" y="122.52"/>
      <point x="-23.52" y="103.36"/>
      <point x="-27.08" y="80.2" type="curve"/>
      <point x="-36.88" y="0" type="line"/>
      <point x="183.92" y="0" type="line" name="n11"/>
    </contour>
    <contour>
      <point x="185.44" y="1446.8" type="line"/>
      <point x="159.6" y="1237.6" type="line"/>
      <point x="1011" y="1237.6" type="line" name="n14"/>
      <point x="1174.08" y="1446.8" type="line"/>
    </contour>
    <contour>
      <point x="124.64" y="209.2" type="line" name="n16"/>
      <point x="-36.88" y="0" type="line"/>
      <point x="979.36" y="0" type="line"/>
      <point x="1005.2" y="209.2" type="line"/>
    </contour>
  </outline>
  <guideline angle="82.9991" x="590" y="0"/>
</glyph>
<glyph name="bracketleft" format="2">
  <advance width="597"/>
  <unicode hex="005B"/>
  <outline>
    <contour>
      <point x="658.68" y="1545.68" type="line"/>
      <point x="275.64" y="1545.68" type="line" name="n01"/>
      <point x="266.48" y="1390.4" type="line" name="n02"/>
      <point x="577.6" y="1390.4" type="line" smooth="yes"/>
      <point x="613.68" y="1390.4"/>
      <point x="644.2" y="1417.8"/>
      <point x="647.76" y="1450.76" type="curve" smooth="yes"/>
    </contour>
    <contour>
      <point x="432.2" y="-305.96" type="line"/>
      <point x="443.56" y="-212.6" type="line" smooth="yes"/>
      <point x="448.24" y="-178.08"/>
      <point x="425.52" y="-150.68"/>
      <point x="389.44" y="-150.68" type="curve" smooth="yes"/>
      <point x="86.12" y="-150.68" type="line" name="n12"/>
      <point x="49.16" y="-305.96" type="line"/>
    </contour>
    <contour>
      <point x="475.48" y="1545.68" type="line"/>
      <point x="275.64" y="1545.68" type="line"/>
      <point x="49.16" y="-305.96" type="line"/>
      <point x="247" y="-305.96" type="line" name="n17"/>
    </contour>
  </outline>
  <guideline angle="82.9991" x="276" y="0"/>
</glyph>
<glyph name="backslash" format="2">
  <advance width="852.44"/>
  <unicode hex="005C"/>
  <guideline x="361.02" y="0.0" angle="82.9991"/>
  <outline>
    <contour>
      <point x="495.74" y="-6.719999999999999" type="line"/>
      <point x="510.22" y="-65.08"/>
      <point x="560.78" y="-96.72"/>
      <point x="610.9" y="-96.72" type="curve" smooth="yes"/>
      <point x="710.94" y="-96.72" type="line"/>
      <point x="369.34000000000003" y="1370.28" type="line" smooth="yes"/>
      <point x="354.86" y="1423.52"/>
      <point x="314.54" y="1455.6"/>
      <point x="257.74" y="1455.6" type="curve" smooth="yes"/>
      <point x="157.26" y="1455.6" type="line"/>
    </contour>
  </outline>
</glyph>
<glyph name="bracketright" format="2">
  <advance width="597.26"/>
  <unicode hex="005D"/>
  <guideline x="276.0" y="0.0" angle="82.9991"/>
  <outline>
    <contour>
      <point x="153.34" y="1450.76" type="line"/>
      <point x="149.78" y="1417.8"/>
      <point x="172.5" y="1390.4"/>
      <point x="209.02" y="1390.4" type="curve" smooth="yes"/>
      <point x="520.14" y="1390.4" type="line"/>
      <point x="549.3" y="1545.68" type="line"/>
      <point x="165.82" y="1545.68" type="line"/>
    </contour>
    <contour>
      <point x="321.26" y="-305.96" type="line"/>
      <point x="330.42" y="-150.68" type="line"/>
      <point x="19.3" y="-150.68" type="line" smooth="yes"/>
      <point x="-17.22" y="-150.68"/>
      <point x="-46.18" y="-178.07999999999998"/>
      <point x="-49.74" y="-212.6" type="curve"/>
      <point x="-62.22" y="-305.96" type="line"/>
    </contour>
    <contour>
      <point x="122.98" y="-305.96" type="line"/>
      <point x="321.26" y="-305.96" type="line"/>
      <point x="549.3" y="1545.68" type="line"/>
      <point x="351.02" y="1545.68" type="line"/>
    </contour>
  </outline>
</glyph>
<glyph name="asciicircum" format="2">
  <advance width="1160.0"/>
  <unicode hex="005E"/>
  <guideline x="580.0" y="0.0" angle="82.9991"/>
  <outline>
    <contour>
      <point x="176.07999999999998" y="776.12" type="line"/>
      <point x="366.36" y="776.12" type="line" smooth="yes"/>
      <point x="399.76" y="776.12"/>
      <point x="419.8" y="795.04"/>
      <point x="431.6" y="818.2" type="curve"/>
      <point x="586.8" y="1104.24" type="line" smooth="yes"/>
      <point x="648.72" y="1218.28"/>
      <point x="660.28" y="1307.36"/>
      <point x="662.28" y="1446.8" type="curve"/>
      <point x="548.88" y="1446.8" type="line"/>
    </contour>
    <contour>
      <point x="709.08" y="1446.8" type="line"/>
      <point x="601.92" y="1446.8" type="line"/>
      <point x="602.36" y="1307.36"/>
      <point x="615.48" y="1219.84"/>
      <point x="680.52" y="1104.24" type="curve" smooth="yes"/>
      <point x="838.84" y="818.2" type="line"/>
      <point x="852.2" y="794.6"/>
      <point x="871.12" y="776.12"/>
      <point x="900.96" y="776.12" type="curve" smooth="yes"/>
      <point x="1081.88" y="776.12" type="line"/>
    </contour>
  </outline>
</glyph>
<glyph name="underscore" format="2">
  <advance width="889"/>
  <unicode hex="005F"/>
  <outline>
    <contour>
      <point x="-8.96" y="-137.04" type="line" name="n00"/>
      <point x="-28.12" y="-293.2" type="line" name="n01"/>
      <point x="697.44" y="-293.2" type="line"/>
      <point x="717.04" y="-137.04" type="line"/>
    </contour>
  </outline>
  <guideline angle="82.9991" x="363" y="0"/>
</glyph>
<glyph name="grave" format="2">
  <advance width="736"/>
  <unicode hex="0060"/>
  <anchor x="400" y="1120" name="_top"/>
  <outline>
    <contour>
      <point x="238.02" y="1462.8" type="line" name="n00"/>
      <point x="436.02" y="1201.88" type="line" smooth="yes"/>
      <point x="455.18" y="1175.6"/>
      <point x="472.88" y="1165.8" name="n03"/>
      <point x="506.74" y="1165.8" type="curve" smooth="yes"/>
      <point x="635.96" y="1165.8" type="line"/>
      <point x="533.02" y="1409.6" type="line" smooth="yes"/>
      <point x="518.56" y="1444.76"/>
      <point x="500.42" y="1462.8"/>
      <point x="451.56" y="1462.8" type="curve" smooth="yes"/>
    </contour>
  </outline>
  <guideline angle="82.9991" x="368" y="0"/>
</glyph>
<glyph name="a" format="2">
  <advance width="1042.3"/>
  <unicode hex="0061"/>
  <guideline x="517.56" y="0.0" angle="82.9991"/>
  <anchor x="557.54" y="1120.0" name="top"/>
  <anchor x="814.96" y="177.56" name="hook"/>
  <anchor x="464.8" y="-70.0" name="bottom"/>
  <outline>
    <contour>
      <point x="855.12" y="0.0" type="line"/>
      <point x="978.48" y="995.48" type="line"/>
      <point x="734.96" y="983.0" type="line"/>
      <point x="646.88" y="278.6" type="line"/>
      <point x="654.68" y="261.03999999999996" type="line"/>
      <point x="643.68" y="82.64" type="line"/>
      <point x="643.68" y="36.08"/>
      <point x="661.28" y="0.0"/>
      <point x="724.32" y="0.0" type="curve" smooth="yes"/>
    </contour>
    <contour>
      <point x="978.48" y="995.48" type="line"/>
      <point x="889.72" y="1029.92"/>
      <point x="795.84" y="1041.92"/>
      <point x="703.56" y="1041.92" type="curve" smooth="yes"/>
      <point x="321.56" y="1041.92"/>
      <point x="34.64" y="719.72"/>
      <point x="34.64" y="350.96" type="curve" smooth="yes"/>
      <point x="34.64" y="106.6"/>
      <point x="157.24" y="-15.120000000000001"/>
      <point x="312.08" y="-15.120000000000001" type="curve" smooth="yes"/>
      <point x="521.68" y="-15.120000000000001"/>
      <point x="681.64" y="197.76"/>
      <point x="776.96" y="485.96" type="curve"/>
      <point x="694.52" y="608.24" type="line"/>
      <point x="640.24" y="378.03999999999996"/>
      <point x="527.96" y="188.96"/>
      <point x="408.8" y="188.96" type="curve" smooth="yes"/>
      <point x="330.12" y="188.96"/>
      <point x="281.72" y="252.12"/>
      <point x="281.72" y="396.2" type="curve" smooth="yes"/>
      <point x="281.72" y="648.2"/>
      <point x="448.32" y="864.36"/>
      <point x="669.24" y="864.36" type="curve" smooth="yes"/>
      <point x="723.2" y="864.36"/>
      <point x="785.88" y="856.6"/>
      <point x="843.0" y="833.52" type="curve"/>
    </contour>
  </outline>
</glyph>
<glyph name="b" format="2">
  <advance width="1077.64"/>
  <unicode hex="0062"/>
  <guideline x="534.22" y="0.0" angle="82.9991"/>
  <anchor x="450.8" y="-70.0" name="bottom"/>
  <anchor x="673.4" y="1120.0" name="top"/>
  <anchor x="591.62" y="177.56" name="hook"/>
  <anchor x="304.36" y="1238.0" name="bar"/>
  <anchor x="392.1" y="1518.62" name="Top"/>
  <outline>
    <contour>
      <point x="174.07999999999998" y="0.0" type="line" smooth="yes"/>
      <point x="227.76" y="0.0"/>
      <point x="246.04" y="21.6"/>
      <point x="260.52" y="68.6" type="curve"/>
      <point x="283.18" y="155.5" type="line"/>
      <point x="300.78" y="171.74" type="line"/>
      <point x="462.36" y="1486.8" type="line"/>
      <point x="220.4" y="1486.8" type="line"/>
      <point x="40.16" y="0.0" type="line"/>
    </contour>
    <contour>
      <point x="243.76" y="139.44" type="line"/>
      <point x="297.32" y="46.88"/>
      <point x="391.04" y="-15.120000000000001"/>
      <point x="512.6" y="-15.120000000000001" type="curve" smooth="yes"/>
      <point x="785.64" y="-15.120000000000001"/>
      <point x="1012.44" y="311.15999999999997"/>
      <point x="1012.44" y="659.56" type="curve" smooth="yes"/>
      <point x="1012.44" y="920.2"/>
      <point x="901.24" y="1042.36"/>
      <point x="730.36" y="1042.36" type="curve" smooth="yes"/>
      <point x="521.2" y="1042.36"/>
      <point x="337.88" y="829.92"/>
      <point x="241.0" y="541.72" type="curve"/>
      <point x="323.44" y="427.24" type="line"/>
      <point x="379.28" y="657.44"/>
      <point x="516.04" y="846.08"/>
      <point x="633.64" y="846.08" type="curve" smooth="yes"/>
      <point x="717.0" y="846.08"/>
      <point x="767.36" y="777.12"/>
      <point x="767.36" y="634.6" type="curve" smooth="yes"/>
      <point x="767.36" y="413.2"/>
      <point x="649.72" y="174.92000000000002"/>
      <point x="474.04" y="174.92000000000002" type="curve" smooth="yes"/>
      <point x="403.72" y="174.92000000000002"/>
      <point x="323.8" y="202.4"/>
      <point x="280.52" y="280.64" type="curve"/>
    </contour>
  </outline>
</glyph>
<glyph name="e" format="2">
  <advance width="973.82"/>
  <unicode hex="0065"/>
  <guideline x="473.22" y="0.0" angle="82.9991"/>
  <anchor x="588.38" y="1120.0" name="top"/>
  <anchor x="448.16" y="-70.0" name="bottom"/>
  <anchor x="869.1" y="177.56" name="hook"/>
  <outline>
    <contour>
      <point x="256.32" y="427.64" type="line"/>
      <point x="779.88" y="476.04"/>
      <point x="910.84" y="601.84"/>
      <point x="910.84" y="787.48" type="curve" smooth="yes"/>
      <point x="910.84" y="904.52"/>
      <point x="802.68" y="1040.8"/>
      <point x="588.6" y="1040.8" type="curve" smooth="yes"/>
      <point x="258.32" y="1040.8"/>
      <point x="42.64" y="736.24"/>
      <point x="42.64" y="411.92" type="curve" smooth="yes"/>
      <point x="42.64" y="153.4"/>
      <point x="200.56" y="-15.120000000000001"/>
      <point x="439.52" y="-15.120000000000001" type="curve" smooth="yes"/>
      <point x="624.76" y="-15.120000000000001"/>
      <point x="746.36" y="47.56"/>
      <point x="887.96" y="189.8" type="curve"/>
      <point x="825.12" y="266.68" type="line" smooth="yes"/>
      <point x="813.32" y="280.04"/>
      <point x="797.28" y="289.4"/>
      <point x="780.8" y="289.4" type="curve" smooth="yes"/>
      <point x="702.0" y="289.4"/>
      <point x="666.4" y="178.04"/>
      <point x="488.32" y="178.04" type="curve" smooth="yes"/>
      <point x="351.84000000000003" y="178.04"/>
      <point x="283.03999999999996" y="257.88"/>
      <point x="283.03999999999996" y="418.16" type="curve" smooth="yes"/>
      <point x="284.6" y="668.76"/>
      <point x="399.36" y="866.36"/>
      <point x="574.56" y="866.36" type="curve" smooth="yes"/>
      <point x="655.88" y="866.36"/>
      <point x="688.48" y="818.72"/>
      <point x="688.48" y="778.12" type="curve" smooth="yes"/>
      <point x="688.48" y="696.04"/>
      <point x="632.3199999999999" y="633.32"/>
      <point x="285.28" y="588.04" type="curve"/>
    </contour>
  </outline>
</glyph>
<glyph name="f" format="2">
  <advance width="661.86"/>
  <unicode hex="0066"/>
  <guideline x="317.92" y="0.0" angle="82.9991"/>
  <anchor x="362.94" y="177.56" name="hook"/>
  <anchor x="593.52" y="1508.76" name="top"/>
  <anchor x="286.02" y="485.98" name="bar"/>
  <anchor x="517.0" y="1518.62" name="Top"/>
  <anchor x="176.42000000000002" y="-421.0" name="bottom"/>
  <outline>
    <contour>
      <point x="468.82" y="1084.88" type="line"/>
      <point x="487.46000000000004" y="1236.68"/>
      <point x="559.58" y="1291.04"/>
      <point x="667.3" y="1291.04" type="curve" smooth="yes"/>
      <point x="704.78" y="1291.04"/>
      <point x="741.02" y="1292.68"/>
      <point x="746.58" y="1323.16" type="curve"/>
      <point x="769.3" y="1452.84" type="line"/>
      <point x="732.38" y="1465.28"/>
      <point x="693.94" y="1471.72"/>
      <point x="650.58" y="1471.72" type="curve" smooth="yes"/>
      <point x="431.7" y="1471.72"/>
      <point x="265.78" y="1327.6"/>
      <point x="236.22" y="1092.68" type="curve" smooth="yes"/>
      <point x="73.78" y="-247.32" type="line"/>
      <point x="172.94" y="-247.32" type="line" smooth="yes"/>
      <point x="244.02" y="-247.32"/>
      <point x="279.65999999999997" y="-209.44"/>
      <point x="300.38" y="-144.84" type="curve"/>
      <point x="350.86" y="42.76" type="line"/>
      <point x="459.74" y="938.48" type="line"/>
      <point x="455.06" y="965.2" type="line"/>
    </contour>
    <contour>
      <point x="668.14" y="840.44" type="line"/>
      <point x="690.86" y="1017.56" type="line"/>
      <point x="89.42" y="1017.56" type="line"/>
      <point x="76.94" y="916.4" type="line" smooth="yes"/>
      <point x="72.25999999999999" y="879.2"/>
      <point x="94.54" y="861.6"/>
      <point x="125.94" y="853.8" type="curve"/>
      <point x="245.18" y="832.64" type="line"/>
      <point x="279.46" y="840.44" type="line"/>
    </contour>
  </outline>
</glyph>
<glyph name="g" format="2">
  <advance width="1004.56"/>
  <unicode hex="0067"/>
  <guideline x="485.3"/>
  <guideline x="100.0" y="0.0" angle="82.9991"/>
  <anchor x="566.98" y="1120.0" name="top"/>
  <anchor x="410.76" y="-421.0" name="bottom"/>
  <outline>
    <contour>
      <point x="457.5" y="482.24" type="curve" smooth="yes"/>
      <point x="370.54" y="482.24"/>
      <point x="322.22" y="540.84"/>
      <point x="322.22" y="641.56" type="curve" smooth="yes"/>
      <point x="322.22" y="761.64"/>
      <point x="384.74" y="874.16"/>
      <point x="504.3" y="874.16" type="curve" smooth="yes"/>
      <point x="592.82" y="874.16"/>
      <point x="641.58" y="818.44"/>
      <point x="641.58" y="719.72" type="curve" smooth="yes"/>
      <point x="640.02" y="604.76"/>
      <point x="577.06" y="482.24"/>
    </contour>
    <contour>
      <point x="867.5" y="729.08" type="curve"/>
      <point x="867.5" y="941.0"/>
      <point x="714.02" y="1042.36"/>
      <point x="532.38" y="1042.36" type="curve" smooth="yes"/>
      <point x="247.94" y="1042.36"/>
      <point x="97.42" y="842.96"/>
      <point x="97.42" y="643.12" type="curve" smooth="yes"/>
      <point x="97.42" y="433.44"/>
      <point x="232.18" y="331.2"/>
      <point x="387.3" y="331.2" type="curve" smooth="yes"/>
      <point x="529.26" y="331.2"/>
      <point x="600.78" y="382.8"/>
      <point x="672.58" y="457.28" type="curve"/>
      <point x="660.98" y="506.04" type="line"/>
      <point x="588.62" y="402.52"/>
      <point x="557.7" y="325.56"/>
      <point x="557.7" y="258.2" type="curve"/>
      <point x="557.26" y="162.76"/>
      <point x="618.46" y="106.24"/>
      <point x="618.02" y="-2.6799999999999926" type="curve" smooth="yes"/>
      <point x="617.58" y="-107.92"/>
      <point x="516.62" y="-187.51999999999998"/>
      <point x="367.54" y="-187.51999999999998" type="curve" smooth="yes"/>
      <point x="235.46" y="-187.51999999999998"/>
      <point x="170.98000000000002" y="-144.72"/>
      <point x="170.98000000000002" y="-65.75999999999999" type="curve"/>
      <point x="171.42000000000002" y="27.12"/>
      <point x="304.54" y="104.92"/>
      <point x="637.66" y="44.239999999999995" type="curve"/>
      <point x="601.58" y="187.04" type="line"/>
      <point x="365.98" y="238.8"/>
      <point x="-62.74" y="198.64000000000001"/>
      <point x="-63.18" y="-96.96000000000001" type="curve"/>
      <point x="-63.18" y="-248.07999999999998"/>
      <point x="95.54" y="-358.84"/>
      <point x="346.82" y="-358.84" type="curve" smooth="yes"/>
      <point x="656.78" y="-358.84"/>
      <point x="840.8199999999999" y="-185.88"/>
      <point x="842.8199999999999" y="17.60000000000001" type="curve" smooth="yes"/>
      <point x="843.26" y="161.51999999999998"/>
      <point x="734.8199999999999" y="227.32"/>
      <point x="735.26" y="336.2" type="curve"/>
      <point x="735.26" y="487.56"/>
      <point x="866.62" y="546.36"/>
    </contour>
    <contour>
      <point x="789.06" y="798.08" type="line"/>
      <point x="961.82" y="843.76" type="line"/>
      <point x="989.86" y="854.68"/>
      <point x="1006.34" y="876.28"/>
      <point x="1011.02" y="908.36" type="curve" smooth="yes"/>
      <point x="1021.94" y="989.68" type="line"/>
      <point x="636.46" y="989.68" type="line"/>
    </contour>
  </outline>
</glyph>
<glyph name="h" format="2">
  <advance width="1082"/>
  <unicode hex="0068"/>
  <anchor x="558.28" y="721.84" name="Slash"/>
  <anchor x="392.88" y="1518.62" name="Top"/>
  <anchor x="465.76" y="-70" name="bottom"/>
  <anchor x="392.88" y="1518.62" name="top"/>
  <outline>
    <contour>
      <point x="286.8" y="0" type="line" name="n00"/>
      <point x="467.04" y="1486.8" type="line" name="n01"/>
      <point x="220.4" y="1486.8" type="line"/>
      <point x="40.16" y="0" type="line"/>
    </contour>
    <contour>
      <point x="902.48" y="0" type="line"/>
      <point x="979.6" y="652.96" type="line"/>
      <point x="732.96" y="652.96" type="line"/>
      <point x="655.84" y="0" type="line"/>
    </contour>
    <contour>
      <point x="979.6" y="652.96" type="line"/>
      <point x="1010.72" y="902.12"/>
      <point x="904.36" y="1042.36"/>
      <point x="730.8" y="1042.36" type="curve" smooth="yes" name="n11"/>
      <point x="545.68" y="1042.36"/>
      <point x="363.04" y="896.24"/>
      <point x="253.24" y="597.96" type="curve"/>
      <point x="335.24" y="477.24" type="line"/>
      <point x="387.28" y="694.16"/>
      <point x="524.48" y="839.84"/>
      <point x="636.76" y="839.84" type="curve" smooth="yes" name="n18"/>
      <point x="719.44" y="839.84"/>
      <point x="749.6" y="785.16"/>
      <point x="732.96" y="652.96" type="curve"/>
    </contour>
  </outline>
  <guideline angle="82.9991" x="502" y="0"/>
</glyph>
<glyph name="i" format="2">
  <advance width="490.28"/>
  <unicode hex="0069"/>
  <guideline x="257.46"/>
  <guideline x="100.0" y="0.0" angle="82.9991"/>
  <anchor x="292.22" y="177.56" name="hook"/>
  <anchor x="330.52" y="1518.62" name="Top"/>
  <anchor x="330.52" y="1518.62" name="top"/>
  <anchor x="165.8" y="-70.0" name="bottom"/>
  <outline>
    <contour>
      <point x="172.72" y="1026.8" type="line"/>
      <point x="49.599999999999994" y="0.0" type="line"/>
      <point x="293.12" y="0.0" type="line"/>
      <point x="416.24" y="1026.8" type="line"/>
    </contour>
    <contour>
      <point x="478.64" y="1325.28" type="curve"/>
      <point x="478.64" y="1413.0"/>
      <point x="404.28" y="1484.24"/>
      <point x="323.68" y="1484.24" type="curve" smooth="yes"/>
      <point x="245.76" y="1484.24"/>
      <point x="171.84" y="1411.44"/>
      <point x="171.84" y="1325.28" type="curve" smooth="yes"/>
      <point x="171.84" y="1239.56"/>
      <point x="244.2" y="1168.32"/>
      <point x="322.12" y="1168.32" type="curve" smooth="yes"/>
      <point x="401.15999999999997" y="1168.32"/>
      <point x="478.64" y="1239.56"/>
    </contour>
  </outline>
</glyph>
<glyph name="j" format="2">
  <advance width="489"/>
  <unicode hex="006A"/>
  <anchor x="324.16" y="1518.62" name="Top"/>
  <anchor x="215.84" y="485.98" name="bar"/>
  <anchor x="121.02" y="-421" name="bottom"/>
  <anchor x="324.16" y="1518.62" name="top"/>
  <outline>
    <contour>
      <point x="173.5" y="1026.8" type="line" name="n00"/>
      <point x="43.98" y="-33.16" type="line"/>
      <point x="29.98" y="-139.6"/>
      <point x="-2.82" y="-174.6"/>
      <point x="-92.34" y="-174.6" type="curve" smooth="yes" name="n04"/>
      <point x="-137.22" y="-174.6"/>
      <point x="-150.78" y="-180.04"/>
      <point x="-158.1" y="-206.72" type="curve"/>
      <point x="-182.38" y="-341.08" type="line"/>
      <point x="-145.22" y="-353.52"/>
      <point x="-110.74" y="-359.96"/>
      <point x="-58.46" y="-359.96" type="curve" smooth="yes" name="n11"/>
      <point x="151.38" y="-359.96"/>
      <point x="264.14" y="-213.56"/>
      <point x="285.94" y="-33.16" type="curve" smooth="yes"/>
      <point x="415.46" y="1026.8" type="line"/>
    </contour>
    <contour>
      <point x="469.82" y="1325.28" type="curve" smooth="yes"/>
      <point x="469.82" y="1413"/>
      <point x="395.46" y="1484.24"/>
      <point x="314.86" y="1484.24" type="curve" smooth="yes" name="n19"/>
      <point x="236.94" y="1484.24"/>
      <point x="163.02" y="1411.44"/>
      <point x="163.02" y="1325.28" type="curve" smooth="yes"/>
      <point x="163.02" y="1239.56"/>
      <point x="235.38" y="1168.32"/>
      <point x="313.3" y="1168.32" type="curve" smooth="yes" name="n25"/>
      <point x="392.34" y="1168.32"/>
      <point x="469.82" y="1239.56"/>
    </contour>
  </outline>
  <guideline angle="90" x="204" y="0"/>
  <guideline angle="82.9991" x="100" y="0"/>
</glyph>
<glyph name="k" format="2">
  <advance width="1001"/>
  <unicode hex="006B"/>
  <anchor x="413.16" y="1518.62" name="Top"/>
  <anchor x="442.06" y="-70" name="bottom"/>
  <anchor x="815.2" y="177.56" name="hook"/>
  <anchor x="413.16" y="1518.62" name="top"/>
  <outline>
    <contour>
      <point x="220.62" y="1486.8" type="line" name="n00"/>
      <point x="38.38" y="0" type="line" name="n01"/>
      <point x="281.9" y="0" type="line"/>
      <point x="464.14" y="1486.8" type="line"/>
    </contour>
    <contour>
      <point x="273.94" y="635.84" type="line"/>
      <point x="298.46" y="469.64" type="line"/>
      <point x="372.54" y="469.64" type="line" smooth="yes"/>
      <point x="410.1" y="469.64"/>
      <point x="422.54" y="463.64"/>
      <point x="437.42" y="432.28" type="curve"/>
      <point x="635.98" y="44.76" type="line"/>
      <point x="650.22" y="11.36"/>
      <point x="673.82" y="0"/>
      <point x="710.34" y="0" type="curve" smooth="yes"/>
      <point x="924.46" y="0" type="line"/>
      <point x="670.7" y="497.76" type="line"/>
      <point x="637.98" y="569.92"/>
      <point x="593.9" y="615.12"/>
      <point x="481.46" y="615.12" type="curve"/>
      <point x="474.34" y="539.6" type="line"/>
      <point x="566.3" y="539.6"/>
      <point x="634.46" y="576.8"/>
      <point x="691.9" y="645.84" type="curve"/>
      <point x="1030.3" y="1026.8" type="line" name="n23"/>
      <point x="809.94" y="1026.8" type="line" smooth="yes"/>
      <point x="772.1" y="1026.8"/>
      <point x="748.06" y="1011.44"/>
      <point x="725.58" y="982.72" type="curve"/>
      <point x="453.5" y="669.44" type="line" smooth="yes"/>
      <point x="432.38" y="644.08"/>
      <point x="416.14" y="635.84"/>
      <point x="385.22" y="635.84" type="curve" smooth="yes"/>
    </contour>
  </outline>
  <guideline angle="82.9991" x="413" y="0"/>
</glyph>
<glyph name="l" format="2">
  <advance width="477"/>
  <unicode hex="006C"/>
  <anchor x="346.56" y="1518.62" name="Top"/>
  <anchor x="257.02" y="743.68" name="bar"/>
  <anchor x="152.1" y="-70" name="bottom"/>
  <anchor x="294.78" y="177.56" name="hook"/>
  <anchor x="346.56" y="1518.62" name="top"/>
  <outline>
    <contour>
      <point x="285.88" y="0" type="line" name="n00"/>
      <point x="466.56" y="1486.8" type="line" name="n01"/>
      <point x="223.04" y="1486.8" type="line"/>
      <point x="42.8" y="0" type="line"/>
    </contour>
  </outline>
  <guideline angle="82.9991" x="212" y="0"/>
</glyph>
<glyph name="m" format="2">
  <advance width="1586"/>
  <unicode hex="006D"/>
  <anchor x="704.4" y="-70" name="bottom"/>
  <anchor x="1394.5" y="177.56" name="hook"/>
  <anchor x="881.74" y="1120" name="top"/>
  <outline>
    <contour>
      <point x="282.12" y="0" type="line" name="n00"/>
      <point x="368.84" y="723.32" type="line"/>
      <point x="362.6" y="738.24" type="line"/>
      <point x="372.28" y="946.6" type="line"/>
      <point x="372.28" y="1002.52"/>
      <point x="342.2" y="1027.68" name="n05"/>
      <point x="290.08" y="1027.68" type="curve" smooth="yes"/>
      <point x="164.4" y="1027.68" type="line"/>
      <point x="40.16" y="0" type="line"/>
    </contour>
    <contour>
      <point x="844.92" y="0" type="line"/>
      <point x="922.04" y="652.96" type="line"/>
      <point x="678.52" y="652.96" type="line"/>
      <point x="601.4" y="0" type="line"/>
    </contour>
    <contour>
      <point x="893.52" y="652.96" type="line"/>
      <point x="924.64" y="902.12"/>
      <point x="845.8" y="1042.36"/>
      <point x="686.28" y="1042.36" type="curve" smooth="yes" name="n16"/>
      <point x="515.2" y="1042.36"/>
      <point x="360.36" y="896.24"/>
      <point x="250.56" y="597.96" type="curve"/>
      <point x="331" y="477.24" type="line"/>
      <point x="383.92" y="697.24"/>
      <point x="484.44" y="838.28"/>
      <point x="600.04" y="838.28" type="curve" smooth="yes" name="n23"/>
      <point x="675.36" y="838.28"/>
      <point x="695.16" y="785.16"/>
      <point x="678.52" y="652.96" type="curve"/>
    </contour>
    <contour>
      <point x="1406.6" y="0" type="line"/>
      <point x="1483.72" y="652.96" type="line"/>
      <point x="1240.2" y="652.96" type="line"/>
      <point x="1163.08" y="0" type="line"/>
    </contour>
    <contour>
      <point x="1483.72" y="652.96" type="line"/>
      <point x="1514.84" y="902.12"/>
      <point x="1422.44" y="1042.36"/>
      <point x="1248.88" y="1042.36" type="curve" smooth="yes"/>
      <point x="1068.8" y="1042.36"/>
      <point x="921.8" y="907.68"/>
      <point x="814.44" y="611.6" type="curve"/>
      <point x="894.88" y="490.88" type="line"/>
      <point x="946.04" y="706.92"/>
      <point x="1050.96" y="838.28"/>
      <point x="1159.52" y="838.28" type="curve" smooth="yes"/>
      <point x="1234.4" y="838.28"/>
      <point x="1256.84" y="785.16"/>
      <point x="1240.2" y="652.96" type="curve"/>
    </contour>
  </outline>
  <guideline angle="82.9991" x="772" y="0"/>
</glyph>
<glyph name="n" format="2">
  <advance width="1082"/>
  <unicode hex="006E"/>
  <anchor x="466.76" y="-70" name="bottom"/>
  <anchor x="892.58" y="177.56" name="hook"/>
  <anchor x="599.56" y="1120" name="top"/>
  <outline>
    <contour>
      <point x="287.58" y="0" type="line" name="n00"/>
      <point x="368.06" y="723.32" type="line"/>
      <point x="361.82" y="738.24" type="line"/>
      <point x="371.5" y="946.6" type="line"/>
      <point x="371.5" y="1002.52"/>
      <point x="341.42" y="1027.68" name="n05"/>
      <point x="289.3" y="1027.68" type="curve" smooth="yes"/>
      <point x="163.62" y="1027.68" type="line"/>
      <point x="40.94" y="0" type="line"/>
    </contour>
    <contour>
      <point x="903.7" y="0" type="line"/>
      <point x="980.82" y="652.96" type="line"/>
      <point x="734.18" y="652.96" type="line"/>
      <point x="657.06" y="0" type="line"/>
    </contour>
    <contour>
      <point x="980.82" y="652.96" type="line"/>
      <point x="1011.94" y="902.12"/>
      <point x="905.14" y="1042.36"/>
      <point x="733.58" y="1042.36" type="curve" smooth="yes" name="n16"/>
      <point x="546.9" y="1042.36"/>
      <point x="365.82" y="896.24"/>
      <point x="256.02" y="597.96" type="curve"/>
      <point x="336.46" y="477.24" type="line"/>
      <point x="388.06" y="694.16"/>
      <point x="525.26" y="838.28"/>
      <point x="639.54" y="838.28" type="curve" smooth="yes" name="n23"/>
      <point x="720.66" y="838.28"/>
      <point x="750.82" y="785.16"/>
      <point x="734.18" y="652.96" type="curve"/>
    </contour>
  </outline>
  <guideline angle="90" x="503" y="0"/>
  <guideline angle="82.9991" x="100" y="0"/>
</glyph>
<glyph name="o" format="2">
  <advance width="1047"/>
  <unicode hex="006F"/>
  <anchor x="429.78" y="-70" name="bottom"/>
  <anchor x="605.98" y="1120" name="top"/>
  <outline>
    <contour>
      <point x="461.64" y="176.48" type="curve" smooth="yes" name="n00"/>
      <point x="347.2" y="176.48"/>
      <point x="291.16" y="253.4"/>
      <point x="291.16" y="417.2" type="curve" smooth="yes"/>
      <point x="291.16" y="651.68"/>
      <point x="395.84" y="850.76"/>
      <point x="561.56" y="850.76" type="curve" smooth="yes" name="n06"/>
      <point x="675.56" y="850.76"/>
      <point x="732.04" y="775.84"/>
      <point x="732.04" y="610.48" type="curve" smooth="yes"/>
      <point x="732.04" y="378.44"/>
      <point x="627.36" y="176.48"/>
    </contour>
    <contour>
      <point x="439.36" y="-15.12" type="curve" smooth="yes" name="n12"/>
      <point x="734.28" y="-15.12"/>
      <point x="979.12" y="259.24"/>
      <point x="979.12" y="612.04" type="curve" smooth="yes"/>
      <point x="979.12" y="886.8"/>
      <point x="810.56" y="1042.36"/>
      <point x="583.84" y="1042.36" type="curve" smooth="yes" name="n18"/>
      <point x="288.92" y="1042.36"/>
      <point x="44.08" y="772"/>
      <point x="44.08" y="415.64" type="curve" smooth="yes"/>
      <point x="44.08" y="140.44"/>
      <point x="212.64" y="-15.12"/>
    </contour>
  </outline>
  <guideline angle="90" x="486" y="0"/>
  <guideline angle="82.9991" x="100" y="0"/>
</glyph>
<glyph name="q" format="2">
  <advance width="1043"/>
  <unicode hex="0071"/>
  <anchor x="421.8" y="-421" name="bottom"/>
  <anchor x="657.24" y="1120" name="top"/>
  <outline>
    <contour>
      <point x="813.46" y="-335.04" type="line" name="n00"/>
      <point x="979.26" y="995.48" type="line"/>
      <point x="735.74" y="983" type="line"/>
      <point x="579.3" y="-241.76" type="line" smooth="yes"/>
      <point x="573.74" y="-283.8"/>
      <point x="590.66" y="-335.04"/>
      <point x="653.46" y="-335.04" type="curve" smooth="yes"/>
    </contour>
    <contour>
      <point x="979.26" y="995.48" type="line"/>
      <point x="890.5" y="1029.92"/>
      <point x="796.62" y="1041.92"/>
      <point x="704.34" y="1041.92" type="curve" smooth="yes" name="n10"/>
      <point x="322.34" y="1041.92"/>
      <point x="35.42" y="719.72"/>
      <point x="35.42" y="350.96" type="curve" smooth="yes"/>
      <point x="35.42" y="106.6"/>
      <point x="158.02" y="-15.12"/>
      <point x="312.86" y="-15.12" type="curve" smooth="yes" name="n16"/>
      <point x="522.46" y="-15.12"/>
      <point x="682.42" y="197.76"/>
      <point x="777.74" y="485.96" type="curve"/>
      <point x="695.3" y="608.24" type="line"/>
      <point x="641.02" y="378.04"/>
      <point x="528.74" y="188.96"/>
      <point x="409.58" y="188.96" type="curve" smooth="yes" name="n23"/>
      <point x="330.9" y="188.96"/>
      <point x="282.5" y="252.12"/>
      <point x="282.5" y="396.2" type="curve" smooth="yes"/>
      <point x="282.5" y="648.2"/>
      <point x="449.1" y="864.36"/>
      <point x="670.02" y="864.36" type="curve" smooth="yes" name="n29"/>
      <point x="723.98" y="864.36"/>
      <point x="786.66" y="856.6"/>
      <point x="843.78" y="833.52" type="curve"/>
    </contour>
  </outline>
  <guideline angle="82.9991" x="477" y="0"/>
</glyph>
<glyph name="r" format="2">
  <advance width="706.54"/>
  <unicode hex="0072"/>
  <guideline x="363.56" y="0.0" angle="82.9991"/>
  <anchor x="452.02" y="1120.0" name="top"/>
  <anchor x="148.04" y="-70.0" name="bottom"/>
  <anchor x="289.38" y="177.56" name="hook"/>
  <anchor x="217.36" y="485.98" name="bar"/>
  <outline>
    <contour>
      <point x="282.12" y="0.0" type="line"/>
      <point x="368.84000000000003" y="723.3199999999999" type="line"/>
      <point x="362.6" y="738.24" type="line"/>
      <point x="372.28" y="946.6" type="line"/>
      <point x="372.28" y="1002.52"/>
      <point x="342.2" y="1027.68"/>
      <point x="290.08" y="1027.68" type="curve" smooth="yes"/>
      <point x="164.4" y="1027.68" type="line"/>
      <point x="40.16" y="0.0" type="line"/>
    </contour>
    <contour>
      <point x="315.4" y="349.32" type="line"/>
      <point x="383.28" y="729.0"/>
      <point x="515.64" y="852.16"/>
      <point x="697.16" y="777.04" type="curve"/>
      <point x="741.72" y="1015.0" type="line"/>
      <point x="537.24" y="1105.72"/>
      <point x="336.72" y="853.48"/>
      <point x="236.07999999999998" y="406.08" type="curve"/>
    </contour>
  </outline>
</glyph>
<glyph name="t" format="2">
  <advance width="731.54"/>
  <unicode hex="0074"/>
  <guideline x="354.44" y="0.0" angle="82.9991"/>
  <anchor x="321.06" y="-70.0" name="bottom"/>
  <anchor x="382.82" y="721.84" name="Slash"/>
  <anchor x="255.78" y="485.98" name="bar"/>
  <anchor x="379.6" y="1120.0" name="top"/>
  <outline>
    <contour>
      <point x="214.1" y="954.52" type="line"/>
      <point x="142.78" y="381.56" type="line" smooth="yes"/>
      <point x="127.22" y="252.4"/>
      <point x="126.78" y="228.64"/>
      <point x="126.78" y="209.96" type="curve" smooth="yes"/>
      <point x="131.46" y="67.88"/>
      <point x="221.34" y="-16.0"/>
      <point x="366.38" y="-16.0" type="curve" smooth="yes"/>
      <point x="456.65999999999997" y="-16.0"/>
      <point x="549.82" y="16.2"/>
      <point x="623.46" y="74.88" type="curve"/>
      <point x="569.98" y="195.88" type="line" smooth="yes"/>
      <point x="562.74" y="211.92000000000002"/>
      <point x="556.62" y="218.6"/>
      <point x="541.7" y="218.6" type="curve" smooth="yes"/>
      <point x="519.9" y="218.6"/>
      <point x="498.9" y="184.96"/>
      <point x="443.26" y="184.96" type="curve" smooth="yes"/>
      <point x="397.78" y="184.96"/>
      <point x="371.86" y="215.6"/>
      <point x="371.86" y="266.12" type="curve" smooth="yes"/>
      <point x="371.86" y="271.88"/>
      <point x="372.3" y="287.15999999999997"/>
      <point x="386.3" y="395.15999999999997" type="curve"/>
      <point x="503.38" y="1339.76" type="line"/>
      <point x="371.02" y="1339.76" type="line" smooth="yes"/>
      <point x="343.18" y="1339.76"/>
      <point x="324.14" y="1323.96"/>
      <point x="315.34" y="1297.68" type="curve"/>
    </contour>
    <contour>
      <point x="308.98" y="1017.56" type="line"/>
      <point x="263.78" y="1025.36" type="line"/>
      <point x="77.5" y="991.72" type="line"/>
      <point x="66.14" y="892.12" type="line"/>
      <point x="61.46" y="858.04"/>
      <point x="79.5" y="840.0"/>
      <point x="103.1" y="840.0" type="curve" smooth="yes"/>
      <point x="690.3" y="840.0" type="line"/>
      <point x="711.02" y="1017.56" type="line"/>
    </contour>
  </outline>
</glyph>
<glyph name="u" format="2">
  <advance width="1082"/>
  <unicode hex="0075"/>
  <anchor x="492.92" y="-70" name="bottom"/>
  <anchor x="878.76" y="177.56" name="hook"/>
  <anchor x="587.04" y="1120" name="top"/>
  <outline>
    <contour>
      <point x="770.3" y="1026.8" type="line" name="n00"/>
      <point x="683.58" y="304.36" type="line"/>
      <point x="689.82" y="286.36" type="line"/>
      <point x="679.7" y="85.76" type="line"/>
      <point x="679.7" y="28.28"/>
      <point x="709.78" y="0" name="n05"/>
      <point x="768.14" y="0" type="curve" smooth="yes"/>
      <point x="892.7" y="0" type="line"/>
      <point x="1016.94" y="1026.8" type="line"/>
    </contour>
    <contour>
      <point x="154.18" y="1026.8" type="line"/>
      <point x="77.06" y="374.72" type="line"/>
      <point x="323.7" y="374.72" type="line"/>
      <point x="400.82" y="1026.8" type="line"/>
    </contour>
    <contour>
      <point x="77.06" y="374.72" type="line"/>
      <point x="45.94" y="125.56"/>
      <point x="152.74" y="-15.12"/>
      <point x="324.3" y="-15.12" type="curve" smooth="yes" name="n16"/>
      <point x="510.98" y="-15.12"/>
      <point x="692.06" y="131.44"/>
      <point x="801.86" y="429.72" type="curve"/>
      <point x="721.42" y="550.44" type="line"/>
      <point x="669.82" y="333.52"/>
      <point x="532.62" y="188.96"/>
      <point x="418.34" y="188.96" type="curve" smooth="yes" name="n23"/>
      <point x="337.22" y="188.96"/>
      <point x="307.06" y="242.52"/>
      <point x="323.7" y="374.72" type="curve"/>
    </contour>
  </outline>
  <guideline angle="82.9991" x="498" y="0"/>
</glyph>
<glyph name="v" format="2">
  <advance width="983.46"/>
  <unicode hex="0076"/>
  <guideline x="497.08" y="0.0" angle="82.9991"/>
  <anchor x="608.14" y="177.56" name="hook"/>
  <anchor x="549.56" y="1120.0" name="top"/>
  <anchor x="413.0" y="-70.0" name="bottom"/>
  <outline>
    <contour>
      <point x="314.62" y="0.0" type="line"/>
      <point x="456.1" y="0.0" type="line"/>
      <point x="456.1" y="151.92000000000002"/>
      <point x="452.54" y="287.8"/>
      <point x="429.38" y="436.16" type="curve" smooth="yes"/>
      <point x="321.78" y="980.04" type="line"/>
      <point x="316.65999999999997" y="1006.32"/>
      <point x="295.5" y="1026.8"/>
      <point x="260.53999999999996" y="1026.8" type="curve" smooth="yes"/>
      <point x="58.22" y="1026.8" type="line"/>
    </contour>
    <contour>
      <point x="1028.26" y="1026.8" type="line"/>
      <point x="833.74" y="1026.8" type="line" smooth="yes"/>
      <point x="803.68" y="1026.8"/>
      <point x="777.18" y="1006.76"/>
      <point x="765.38" y="980.04" type="curve" smooth="yes"/>
      <point x="520.46" y="436.16" type="line" smooth="yes"/>
      <point x="458.54" y="284.24"/>
      <point x="420.9" y="151.92000000000002"/>
      <point x="387.26" y="0.0" type="curve"/>
      <point x="522.5" y="0.0" type="line"/>
    </contour>
  </outline>
</glyph>
<glyph name="w" format="2">
  <advance width="1476"/>
  <unicode hex="0077"/>
  <anchor x="655.12" y="-70" name="bottom"/>
  <anchor x="786.9" y="1120" name="top"/>
  <outline>
    <contour>
      <point x="237.94" y="0" type="line" name="n00"/>
      <point x="421.1" y="0" type="line" smooth="yes"/>
      <point x="445.38" y="0"/>
      <point x="463.42" y="14.92"/>
      <point x="474.78" y="44.32" type="curve"/>
      <point x="718.1" y="631.84" type="line"/>
      <point x="758.86" y="733.64"/>
      <point x="784.7" y="835"/>
      <point x="804.3" y="936.8" type="curve"/>
      <point x="744.14" y="936.8" type="line"/>
      <point x="741.02" y="835"/>
      <point x="741.02" y="735.2"/>
      <point x="755.94" y="633.4" type="curve"/>
      <point x="854.38" y="44.32" type="line" smooth="yes"/>
      <point x="859.06" y="13.36"/>
      <point x="872.42" y="0"/>
      <point x="892.46" y="0" type="curve" smooth="yes"/>
      <point x="1083.42" y="0" type="line"/>
      <point x="1506.74" y="1026.8" type="line" name="n18"/>
      <point x="1326.26" y="1026.8" type="line" smooth="yes"/>
      <point x="1296.42" y="1026.8"/>
      <point x="1268.58" y="1006.76"/>
      <point x="1259.9" y="980.04" type="curve"/>
      <point x="1061.1" y="436.16" type="line"/>
      <point x="1008.98" y="281.12"/>
      <point x="975.14" y="152.8"/>
      <point x="947.74" y="0.88" type="curve"/>
      <point x="1013.46" y="0.44" type="line"/>
      <point x="1022.82" y="152.36"/>
      <point x="1008.34" y="286.24"/>
      <point x="987.18" y="436.16" type="curve"/>
      <point x="901.66" y="982.24" type="line"/>
      <point x="898.54" y="1008.52"/>
      <point x="876.26" y="1028.12" name="n33"/>
      <point x="842.18" y="1028.12" type="curve" smooth="yes"/>
      <point x="736.78" y="1028.12" type="line" smooth="yes"/>
      <point x="707.38" y="1028.12"/>
      <point x="679.98" y="1008.52"/>
      <point x="670.18" y="982.24" type="curve"/>
      <point x="446.9" y="436.16" type="line"/>
      <point x="386.98" y="284.68"/>
      <point x="336.86" y="152.8"/>
      <point x="303.22" y="0.88" type="curve"/>
      <point x="377.86" y="0.88" type="line"/>
      <point x="385.66" y="152.8"/>
      <point x="383.66" y="284.68"/>
      <point x="373.42" y="436.16" type="curve"/>
      <point x="313.06" y="980.04" type="line"/>
      <point x="307.94" y="1007.2"/>
      <point x="285.22" y="1026.8"/>
      <point x="251.82" y="1026.8" type="curve" smooth="yes"/>
      <point x="63.98" y="1026.8" type="line"/>
    </contour>
  </outline>
  <guideline angle="82.9991" x="657" y="0"/>
</glyph>
<glyph name="y" format="2">
  <advance width="983.34"/>
  <unicode hex="0079"/>
  <guideline x="497.08" y="0.0" angle="82.9991"/>
  <anchor x="564.62" y="1120.0" name="top"/>
  <anchor x="683.48" y="-70.0" name="bottom"/>
  <outline>
    <contour>
      <point x="339.9" y="1.7599999999999998" type="line"/>
      <point x="467.34000000000003" y="1.7599999999999998" type="line"/>
      <point x="475.14" y="155.24"/>
      <point x="482.5" y="308.28"/>
      <point x="451.54" y="451.96000000000004" type="curve" smooth="yes"/>
      <point x="326.34000000000003" y="980.04" type="line"/>
      <point x="319.65999999999997" y="1005.64"/>
      <point x="303.18" y="1026.8"/>
      <point x="266.65999999999997" y="1026.8" type="curve" smooth="yes"/>
      <point x="59.66" y="1026.8" type="line"/>
    </contour>
    <contour>
      <point x="1031.7" y="1026.8" type="line"/>
      <point x="833.62" y="1026.8" type="line" smooth="yes"/>
      <point x="807.34" y="1026.8"/>
      <point x="779.5" y="1007.64"/>
      <point x="766.14" y="980.92" type="curve" smooth="yes"/>
      <point x="512.98" y="453.52000000000004" type="line" smooth="yes"/>
      <point x="474.9" y="369.56"/>
      <point x="436.82" y="283.6"/>
      <point x="417.22" y="198.08" type="curve"/>
      <point x="360.18" y="154.6" type="line"/>
      <point x="90.66" y="-335.04" type="line"/>
      <point x="274.26" y="-335.04" type="line" smooth="yes"/>
      <point x="310.78" y="-335.04"/>
      <point x="335.5" y="-318.56"/>
      <point x="353.98" y="-283.15999999999997" type="curve" smooth="yes"/>
    </contour>
  </outline>
</glyph>
<glyph name="z" format="2">
  <advance width="866"/>
  <unicode hex="007A"/>
  <anchor x="338.48" y="-70" name="bottom"/>
  <anchor x="666" y="177.56" name="hook"/>
  <anchor x="506.84" y="1120" name="top"/>
  <outline>
    <contour>
      <point x="858.32" y="1026.8" type="line"/>
      <point x="127.16" y="1026.8" type="line" name="n01"/>
      <point x="104.44" y="835.2" type="line" name="n02"/>
      <point x="617.92" y="835.2" type="line"/>
      <point x="562" y="856.8" type="line"/>
      <point x="28.4" y="190.04" type="line" smooth="yes"/>
      <point x="5.68" y="162.64"/>
      <point x="-10.8" y="125.88"/>
      <point x="-12.36" y="104.28" type="curve"/>
      <point x="-24.84" y="0" type="line"/>
      <point x="721.24" y="0" type="line" name="n10"/>
      <point x="743.52" y="191.6" type="line" name="n11"/>
      <point x="212" y="191.6" type="line"/>
      <point x="271.04" y="164.88" type="line"/>
      <point x="804.64" y="830.08" type="line" smooth="yes"/>
      <point x="823.9" y="854.02"/>
      <point x="842.28" y="888"/>
      <point x="845.4" y="923.2" type="curve"/>
    </contour>
  </outline>
  <guideline angle="82.9991" x="410" y="0"/>
</glyph>
<glyph name="braceleft" format="2">
  <advance width="580.22"/>
  <unicode hex="007B"/>
  <guideline y="630.78"/>
  <guideline x="276.0" y="0.0" angle="82.9991"/>
  <outline>
    <contour>
      <point x="202.22" y="939.76" type="curve" smooth="yes"/>
      <point x="202.22" y="771.72"/>
      <point x="168.14" y="689.92"/>
      <point x="70.14" y="689.92" type="curve"/>
      <point x="52.54" y="549.8" type="line"/>
      <point x="159.22" y="609.28" type="line"/>
      <point x="290.74" y="609.28"/>
      <point x="386.46000000000004" y="710.28"/>
      <point x="398.94" y="845.72" type="curve" smooth="yes"/>
      <point x="409.86" y="959.56"/>
      <point x="398.1" y="1071.76"/>
      <point x="412.14" y="1208.32" type="curve" smooth="yes"/>
      <point x="421.5" y="1322.96"/>
      <point x="474.9" y="1390.4"/>
      <point x="561.9" y="1390.4" type="curve" smooth="yes"/>
      <point x="569.14" y="1390.4" type="line"/>
      <point x="586.5" y="1390.4"/>
      <point x="621.7" y="1403.76"/>
      <point x="625.26" y="1437.84" type="curve"/>
      <point x="637.74" y="1545.68" type="line"/>
      <point x="590.42" y="1545.68" type="line" smooth="yes"/>
      <point x="323.18" y="1545.68"/>
      <point x="196.7" y="1384.48"/>
      <point x="196.7" y="1100.68" type="curve" smooth="yes"/>
      <point x="196.7" y="1057.72"/>
      <point x="202.22" y="981.16"/>
    </contour>
    <contour>
      <point x="147.3" y="441.0" type="curve"/>
      <point x="147.3" y="289.28"/>
      <point x="54.94" y="152.4"/>
      <point x="54.94" y="-21.12" type="curve" smooth="yes"/>
      <point x="54.94" y="-188.8"/>
      <point x="150.78" y="-305.96"/>
      <point x="362.38" y="-305.96" type="curve" smooth="yes"/>
      <point x="411.26" y="-305.96" type="line"/>
      <point x="424.18" y="-199.68" type="line"/>
      <point x="428.86" y="-165.6"/>
      <point x="398.34000000000003" y="-150.68"/>
      <point x="379.86" y="-150.68" type="curve" smooth="yes"/>
      <point x="372.18" y="-150.68" type="line" smooth="yes"/>
      <point x="299.82" y="-150.68"/>
      <point x="262.58" y="-96.75999999999999"/>
      <point x="262.58" y="-16.88" type="curve" smooth="yes"/>
      <point x="262.58" y="144.4"/>
      <point x="346.7" y="281.68"/>
      <point x="346.7" y="436.76" type="curve" smooth="yes"/>
      <point x="346.7" y="541.44"/>
      <point x="279.62" y="628.88"/>
      <point x="162.34" y="628.88" type="curve"/>
      <point x="70.14" y="689.92" type="line"/>
      <point x="52.54" y="549.8" type="line"/>
      <point x="117.38" y="549.8"/>
      <point x="147.3" y="504.28"/>
    </contour>
  </outline>
</glyph>
<glyph name="bar" format="2">
  <advance width="539"/>
  <unicode hex="007C"/>
  <outline>
    <contour>
      <point x="172.64" y="-335.04" type="line" name="n00"/>
      <point x="364.24" y="-335.04" type="line"/>
      <point x="364.24" y="1547.24" type="line" name="n02"/>
      <point x="172.64" y="1547.24" type="line"/>
    </contour>
  </outline>
  <guideline angle="82.9991" x="300" y="0"/>
</glyph>
<glyph name="braceright" format="2">
  <advance width="580"/>
  <unicode hex="007D"/>
  <outline>
    <contour>
      <point x="435.56" y="798.72" type="curve" smooth="yes"/>
      <point x="435.56" y="948.88"/>
      <point x="525.92" y="1087.32"/>
      <point x="525.92" y="1259.28" type="curve" smooth="yes"/>
      <point x="525.92" y="1428.52"/>
      <point x="430.08" y="1545.68"/>
      <point x="220.04" y="1545.68" type="curve" smooth="yes" name="n06"/>
      <point x="171.16" y="1545.68" type="line"/>
      <point x="158.68" y="1437.84" type="line"/>
      <point x="153.56" y="1403.76"/>
      <point x="184.08" y="1390.4"/>
      <point x="203" y="1390.4" type="curve" smooth="yes"/>
      <point x="210.24" y="1390.4" type="line" smooth="yes" name="n12"/>
      <point x="282.6" y="1390.4"/>
      <point x="319.84" y="1336.48"/>
      <point x="319.84" y="1256.6" type="curve" smooth="yes"/>
      <point x="319.84" y="1095.32"/>
      <point x="234.16" y="956.48"/>
      <point x="234.16" y="802.96" type="curve" smooth="yes"/>
      <point x="234.16" y="696.72"/>
      <point x="301.24" y="609.28"/>
      <point x="420.52" y="609.28" type="curve"/>
      <point x="512.28" y="549.8" type="line"/>
      <point x="528.76" y="689.92" type="line"/>
      <point x="463.48" y="689.92"/>
      <point x="435.56" y="735.44"/>
    </contour>
    <contour>
      <point x="380.2" y="298.4" type="curve" smooth="yes"/>
      <point x="380.2" y="468"/>
      <point x="414.72" y="549.8"/>
      <point x="512.28" y="549.8" type="curve"/>
      <point x="528.76" y="689.92" type="line"/>
      <point x="422.08" y="628.88" type="line"/>
      <point x="291.68" y="628.88"/>
      <point x="194.84" y="527.88"/>
      <point x="183.92" y="392.44" type="curve"/>
      <point x="173" y="280.16"/>
      <point x="184.32" y="166.4"/>
      <point x="170.28" y="31.4" type="curve"/>
      <point x="160.92" y="-83.24"/>
      <point x="107.52" y="-150.68"/>
      <point x="20.52" y="-150.68" type="curve" smooth="yes" name="n40"/>
      <point x="13.28" y="-150.68" type="line" smooth="yes"/>
      <point x="-5.64" y="-150.68"/>
      <point x="-39.28" y="-165.6"/>
      <point x="-42.4" y="-199.68" type="curve"/>
      <point x="-56.88" y="-305.96" type="line"/>
      <point x="-8" y="-305.96" type="line" smooth="yes" name="n46"/>
      <point x="257.68" y="-305.96"/>
      <point x="384.16" y="-144.76"/>
      <point x="384.16" y="139.04" type="curve" smooth="yes"/>
      <point x="384.16" y="182"/>
      <point x="380.2" y="258.56"/>
    </contour>
  </outline>
  <guideline angle="0" x="0" y="630"/>
  <guideline angle="82.9991" x="276" y="0"/>
</glyph>
<glyph name="asciitilde" format="2">
  <advance width="1160"/>
  <unicode hex="007E"/>
  <outline>
    <contour>
      <point x="743.18" y="649.68" type="curve" smooth="yes" name="n00"/>
      <point x="658.86" y="649.68"/>
      <point x="539.22" y="737.52"/>
      <point x="398.54" y="737.52" type="curve" smooth="yes" name="n03"/>
      <point x="207.7" y="737.52"/>
      <point x="96.26" y="603.88"/>
      <point x="96.26" y="397.4" type="curve" name="n06"/>
      <point x="295.66" y="397.4" type="line"/>
      <point x="296.1" y="482.88"/>
      <point x="339.58" y="533.44"/>
      <point x="414.14" y="533.44" type="curve" smooth="yes" name="n10"/>
      <point x="498.46" y="533.44"/>
      <point x="618.1" y="445.6"/>
      <point x="758.78" y="445.6" type="curve" smooth="yes" name="n13"/>
      <point x="949.62" y="445.6"/>
      <point x="1061.06" y="579.24"/>
      <point x="1061.06" y="785.72" type="curve" name="n16"/>
      <point x="861.66" y="785.72" type="line"/>
      <point x="861.22" y="700.24"/>
      <point x="817.74" y="649.68"/>
    </contour>
  </outline>
  <guideline angle="82.9991" x="580" y="0"/>
</glyph>
<glyph name="exclamdown" format="2">
  <advance width="502"/>
  <unicode hex="00A1"/>
  <outline>
    <contour>
      <point x="28.48" y="-336.6" type="line" name="n00"/>
      <point x="94.92" y="198" type="line"/>
      <point x="108.92" y="319.12"/>
      <point x="135.64" y="431"/>
      <point x="168.8" y="562.48" type="curve"/>
      <point x="324.84" y="562.48" type="line"/>
      <point x="326.24" y="431"/>
      <point x="323.6" y="319.12"/>
      <point x="308.04" y="198" type="curve"/>
      <point x="243.16" y="-336.6" type="line"/>
    </contour>
    <contour>
      <point x="132.56" y="891" type="curve" smooth="yes"/>
      <point x="132.56" y="805.08"/>
      <point x="198" y="739.64"/>
      <point x="283.92" y="739.64" type="curve" smooth="yes" name="n13"/>
      <point x="368.28" y="739.64"/>
      <point x="435.72" y="805.08"/>
      <point x="435.72" y="891" type="curve" smooth="yes"/>
      <point x="435.72" y="975.36"/>
      <point x="368.28" y="1042.8"/>
      <point x="283.92" y="1042.8" type="curve" smooth="yes" name="n19"/>
      <point x="198" y="1042.8"/>
      <point x="132.56" y="975.36"/>
    </contour>
  </outline>
  <guideline angle="90" x="281" y="0"/>
  <guideline angle="82.9991" x="100" y="0"/>
</glyph>
<glyph name="cent" format="2">
  <advance width="1160.0"/>
  <unicode hex="00A2"/>
  <guideline x="580.0" y="0.0" angle="82.9991"/>
  <outline>
    <contour>
      <point x="1068.42" y="898.68" type="line"/>
      <point x="984.14" y="988.32"/>
      <point x="867.42" y="1039.68"/>
      <point x="706.22" y="1039.68" type="curve" smooth="yes"/>
      <point x="327.86" y="1039.68"/>
      <point x="102.7" y="780.28"/>
      <point x="102.7" y="439.64" type="curve" smooth="yes"/>
      <point x="102.7" y="155.8"/>
      <point x="288.14" y="-15.120000000000001"/>
      <point x="540.82" y="-15.120000000000001" type="curve" smooth="yes"/>
      <point x="701.02" y="-15.120000000000001"/>
      <point x="867.54" y="26.799999999999997"/>
      <point x="988.86" y="150.32" type="curve"/>
      <point x="933.38" y="235.44" type="line" smooth="yes"/>
      <point x="925.14" y="248.36"/>
      <point x="911.1" y="255.04"/>
      <point x="891.5" y="255.04" type="curve" smooth="yes"/>
      <point x="834.94" y="255.04"/>
      <point x="780.62" y="165.56"/>
      <point x="597.42" y="165.56" type="curve" smooth="yes"/>
      <point x="432.94" y="165.56"/>
      <point x="337.3" y="270.32"/>
      <point x="337.3" y="451.0" type="curve" smooth="yes"/>
      <point x="337.3" y="699.84"/>
      <point x="453.06" y="859.0"/>
      <point x="691.74" y="859.0" type="curve" smooth="yes"/>
      <point x="849.18" y="859.0"/>
      <point x="897.58" y="787.28"/>
      <point x="944.78" y="787.28" type="curve" smooth="yes"/>
      <point x="969.06" y="787.28"/>
      <point x="981.98" y="795.52"/>
      <point x="996.9" y="814.68" type="curve"/>
    </contour>
    <contour>
      <point x="416.62" y="-222.76" type="line"/>
      <point x="504.62" y="-222.76" type="line" smooth="yes"/>
      <point x="540.7" y="-222.76"/>
      <point x="569.66" y="-193.36"/>
      <point x="576.34" y="-161.51999999999998" type="curve"/>
      <point x="869.1800000000001" y="1259.16" type="line"/>
      <point x="781.18" y="1259.16" type="line" smooth="yes"/>
      <point x="745.1" y="1259.16"/>
      <point x="716.14" y="1228.2"/>
      <point x="709.46" y="1197.92" type="curve"/>
    </contour>
  </outline>
</glyph>
<glyph name="sterling" format="2">
  <advance width="1160"/>
  <unicode hex="00A3"/>
  <outline>
    <contour>
      <point x="1072.36" y="204.52" type="line"/>
      <point x="474.28" y="204.52" type="line" smooth="yes"/>
      <point x="359.6" y="204.52"/>
      <point x="244.68" y="170.2"/>
      <point x="130.68" y="126.76" type="curve"/>
      <point x="4.36" y="151.48" type="line" name="n05"/>
      <point x="-14.8" y="0" type="line" name="n06"/>
      <point x="945.6" y="0" type="line" smooth="yes"/>
      <point x="1006.64" y="0"/>
      <point x="1053.64" y="55.92"/>
      <point x="1059.88" y="104.04" type="curve" smooth="yes"/>
    </contour>
    <contour>
      <point x="894.74" y="661.56" type="curve" smooth="yes"/>
      <point x="905.66" y="758.48" type="line"/>
      <point x="126.18" y="758.48" type="line" smooth="yes" name="n13"/>
      <point x="86.54" y="758.48"/>
      <point x="56.8" y="727.96"/>
      <point x="52.68" y="698.12" type="curve" smooth="yes"/>
      <point x="40.76" y="601.2" type="line" name="n17"/>
      <point x="821.02" y="601.2" type="line" smooth="yes"/>
      <point x="860.66" y="601.2"/>
      <point x="891.18" y="631.72"/>
    </contour>
    <contour>
      <point x="204.44" y="97.36" type="line"/>
      <point x="335.36" y="177"/>
      <point x="398.14" y="258.16"/>
      <point x="415.36" y="397.92" type="curve" smooth="yes"/>
      <point x="487.76" y="999.8" type="line" smooth="yes"/>
      <point x="507.4" y="1160.92"/>
      <point x="608.24" y="1258.72"/>
      <point x="749.96" y="1258.72" type="curve" smooth="yes" name="n28"/>
      <point x="860.36" y="1258.72"/>
      <point x="894.96" y="1221.56"/>
      <point x="941.2" y="1155.2" type="curve"/>
      <point x="971.72" y="1117.12"/>
      <point x="1013.16" y="1116.68"/>
      <point x="1058.6" y="1138.96" type="curve"/>
      <point x="1162.2" y="1201.8" type="line"/>
      <point x="1109.04" y="1351.44"/>
      <point x="1002.08" y="1461.24"/>
      <point x="773.8" y="1461.24" type="curve" smooth="yes" name="n38"/>
      <point x="467.88" y="1461.24"/>
      <point x="275.36" y="1250.48"/>
      <point x="243.8" y="998.24" type="curve" smooth="yes"/>
      <point x="162.04" y="332.4" type="line" smooth="yes"/>
      <point x="148.28" y="222.08"/>
      <point x="96.56" y="173.2"/>
      <point x="4.36" y="151.48" type="curve"/>
    </contour>
  </outline>
  <guideline angle="82.9991" x="580" y="0"/>
</glyph>
<glyph name="currency" format="2">
  <advance width="1160.0"/>
  <unicode hex="00A4"/>
  <guideline x="580.0" y="0.0" angle="82.9991"/>
  <outline>
    <contour>
      <point x="215.68" y="673.12" type="curve" smooth="yes"/>
      <point x="215.68" y="467.72"/>
      <point x="379.28" y="304.12"/>
      <point x="584.68" y="304.12" type="curve" smooth="yes"/>
      <point x="788.96" y="304.12"/>
      <point x="954.12" y="467.72"/>
      <point x="954.12" y="673.12" type="curve" smooth="yes"/>
      <point x="954.12" y="878.96"/>
      <point x="788.96" y="1042.56"/>
      <point x="584.68" y="1042.56" type="curve" smooth="yes"/>
      <point x="379.28" y="1042.56"/>
      <point x="215.68" y="878.96"/>
    </contour>
    <contour>
      <point x="397.92" y="673.12" type="curve"/>
      <point x="397.92" y="778.04"/>
      <point x="481.76" y="861.88"/>
      <point x="584.68" y="861.88" type="curve" smooth="yes"/>
      <point x="689.6" y="861.88"/>
      <point x="773.44" y="778.04"/>
      <point x="773.44" y="673.12" type="curve" smooth="yes"/>
      <point x="773.44" y="571.76"/>
      <point x="689.6" y="486.36"/>
      <point x="584.68" y="486.36" type="curve" smooth="yes"/>
      <point x="481.76" y="486.36"/>
      <point x="397.92" y="571.76"/>
    </contour>
    <contour>
      <point x="327.28" y="802.64" type="line"/>
      <point x="452.04" y="925.84" type="line"/>
      <point x="239.68" y="1138.2" type="line"/>
      <point x="114.92" y="1015.0" type="line"/>
    </contour>
    <contour>
      <point x="714.2" y="930.52" type="line"/>
      <point x="837.4" y="805.76" type="line"/>
      <point x="1049.76" y="1018.12" type="line"/>
      <point x="926.56" y="1142.88" type="line"/>
    </contour>
    <contour>
      <point x="456.72" y="415.72" type="line"/>
      <point x="331.96" y="540.48" type="line"/>
      <point x="119.6" y="328.12" type="line"/>
      <point x="242.8" y="203.36" type="line"/>
    </contour>
    <contour>
      <point x="842.08" y="545.16" type="line"/>
      <point x="717.3199999999999" y="420.4" type="line"/>
      <point x="929.68" y="208.04" type="line"/>
      <point x="1054.44" y="332.8" type="line"/>
    </contour>
  </outline>
</glyph>
<glyph name="yen" format="2">
  <advance width="1160.0"/>
  <unicode hex="00A5"/>
  <guideline x="580.0" y="0.0" angle="82.9991"/>
  <outline>
    <contour>
      <point x="1239.76" y="1445.24" type="line"/>
      <point x="1038.8" y="1445.24" type="line" smooth="yes"/>
      <point x="995.36" y="1445.24"/>
      <point x="963.28" y="1416.72"/>
      <point x="946.36" y="1385.76" type="curve"/>
      <point x="660.52" y="890.04" type="line"/>
      <point x="592.8" y="761.72"/>
      <point x="570.76" y="676.84"/>
      <point x="548.28" y="540.52" type="curve"/>
      <point x="683.28" y="540.52" type="line"/>
    </contour>
    <contour>
      <point x="449.56" y="540.52" type="line"/>
      <point x="592.36" y="540.52" type="line"/>
      <point x="604.4" y="678.4"/>
      <point x="597.96" y="760.16"/>
      <point x="560.76" y="890.04" type="curve"/>
      <point x="394.96000000000004" y="1385.76" type="line"/>
      <point x="385.15999999999997" y="1421.4"/>
      <point x="359.32" y="1445.24"/>
      <point x="315.88" y="1445.24" type="curve" smooth="yes"/>
      <point x="116.47999999999999" y="1445.24" type="line"/>
    </contour>
    <contour>
      <point x="695.08" y="609.56" type="line"/>
      <point x="455.8" y="609.56" type="line"/>
      <point x="381.8" y="0.0" type="line"/>
      <point x="619.52" y="0.0" type="line"/>
    </contour>
    <contour>
      <point x="91.48" y="268.4" type="line"/>
      <point x="974.16" y="268.4" type="line"/>
      <point x="990.2" y="402.28" type="line"/>
      <point x="109.08" y="402.28" type="line"/>
    </contour>
    <contour>
      <point x="120.4" y="497.52" type="line"/>
      <point x="1003.08" y="497.52" type="line"/>
      <point x="1019.12" y="631.4" type="line"/>
      <point x="136.44" y="631.4" type="line"/>
    </contour>
  </outline>
</glyph>
<glyph name="brokenbar" format="2">
  <advance width="537"/>
  <unicode hex="00A6"/>
  <outline>
    <contour>
      <point x="171.86" y="738.44" type="line"/>
      <point x="363.46" y="738.44" type="line"/>
      <point x="363.46" y="1547.24" type="line" name="n02"/>
      <point x="171.86" y="1547.24" type="line"/>
    </contour>
    <contour>
      <point x="171.86" y="-335.04" type="line" name="n04"/>
      <point x="363.46" y="-335.04" type="line"/>
      <point x="363.46" y="473.76" type="line"/>
      <point x="171.86" y="473.76" type="line"/>
    </contour>
  </outline>
  <guideline angle="82.9991" x="300" y="0"/>
</glyph>
<glyph name="section" format="2">
  <advance width="941.38"/>
  <unicode hex="00A7"/>
  <guideline x="465.24" y="0.0" angle="82.9991"/>
  <outline>
    <contour>
      <point x="476.6" y="968.2" type="line"/>
      <point x="219.28" y="953.0"/>
      <point x="91.75999999999999" y="824.92"/>
      <point x="91.75999999999999" y="652.52" type="curve" smooth="yes"/>
      <point x="91.75999999999999" y="346.88"/>
      <point x="547.16" y="387.84"/>
      <point x="547.16" y="193.16" type="curve" smooth="yes"/>
      <point x="547.16" y="105.8"/>
      <point x="483.08" y="47.80000000000001"/>
      <point x="376.44" y="47.80000000000001" type="curve" smooth="yes"/>
      <point x="233.2" y="47.80000000000001"/>
      <point x="210.60000000000002" y="129.72"/>
      <point x="152.72" y="129.72" type="curve" smooth="yes"/>
      <point x="121.75999999999999" y="129.72"/>
      <point x="102.6" y="118.36"/>
      <point x="87.68" y="95.64" type="curve" smooth="yes"/>
      <point x="20.839999999999996" y="3.84" type="line"/>
      <point x="84.84" y="-68.16"/>
      <point x="205.88" y="-120.4"/>
      <point x="335.44" y="-120.4" type="curve" smooth="yes"/>
      <point x="606.52" y="-120.4"/>
      <point x="761.04" y="41.64"/>
      <point x="761.04" y="250.2" type="curve" smooth="yes"/>
      <point x="761.04" y="541.56"/>
      <point x="308.76" y="529.32"/>
      <point x="308.76" y="712.68" type="curve" smooth="yes"/>
      <point x="308.76" y="782.36"/>
      <point x="348.03999999999996" y="830.04"/>
      <point x="459.2" y="871.52" type="curve"/>
    </contour>
    <contour>
      <point x="904.84" y="1334.04" type="line"/>
      <point x="843.96" y="1408.28"/>
      <point x="738.08" y="1459.68"/>
      <point x="606.88" y="1459.68" type="curve" smooth="yes"/>
      <point x="349.76" y="1459.68"/>
      <point x="205.96" y="1296.92"/>
      <point x="205.96" y="1110.8" type="curve" smooth="yes"/>
      <point x="205.96" y="795.56"/>
      <point x="653.2" y="826.0"/>
      <point x="653.2" y="632.92" type="curve" smooth="yes"/>
      <point x="653.2" y="559.92"/>
      <point x="610.56" y="500.44"/>
      <point x="498.4" y="473.2" type="curve"/>
      <point x="471.4" y="373.4" type="line"/>
      <point x="753.64" y="386.84"/>
      <point x="868.64" y="531.0"/>
      <point x="868.64" y="702.44" type="curve" smooth="yes"/>
      <point x="868.64" y="987.08"/>
      <point x="419.84000000000003" y="994.72"/>
      <point x="419.84000000000003" y="1149.12" type="curve" smooth="yes"/>
      <point x="419.84000000000003" y="1221.84"/>
      <point x="481.44" y="1283.68"/>
      <point x="588.84" y="1283.68" type="curve" smooth="yes"/>
      <point x="700.92" y="1283.68"/>
      <point x="742.92" y="1217.52"/>
      <point x="791.0" y="1217.52" type="curve" smooth="yes"/>
      <point x="812.16" y="1217.52"/>
      <point x="827.08" y="1225.76"/>
      <point x="841.56" y="1246.92" type="curve"/>
    </contour>
  </outline>
</glyph>
<glyph name="dieresis" format="2">
  <advance width="736"/>
  <unicode hex="00A8"/>
  <anchor x="462.4" y="1120" name="_top"/>
  <anchor x="501.4" y="1444.46" name="top"/>
  <outline>
    <contour>
      <point x="457.88" y="1292.48" type="curve" smooth="yes"/>
      <point x="457.88" y="1369.28"/>
      <point x="394" y="1432.72"/>
      <point x="317.64" y="1432.72" type="curve" smooth="yes" name="n03"/>
      <point x="245.52" y="1432.72"/>
      <point x="182.08" y="1369.28"/>
      <point x="182.08" y="1292.48" type="curve" smooth="yes"/>
      <point x="182.08" y="1217.68"/>
      <point x="245.52" y="1157.36"/>
      <point x="317.64" y="1157.36" type="curve" smooth="yes" name="n09"/>
      <point x="394" y="1157.36"/>
      <point x="457.88" y="1217.68"/>
    </contour>
    <contour>
      <point x="842.32" y="1292.48" type="curve" smooth="yes"/>
      <point x="842.32" y="1369.28"/>
      <point x="780" y="1432.72"/>
      <point x="703.64" y="1432.72" type="curve" smooth="yes"/>
      <point x="628.4" y="1432.72"/>
      <point x="566.52" y="1369.28"/>
      <point x="566.52" y="1292.48" type="curve" smooth="yes"/>
      <point x="566.52" y="1217.68"/>
      <point x="628.4" y="1157.36"/>
      <point x="703.64" y="1157.36" type="curve" smooth="yes"/>
      <point x="780" y="1157.36"/>
      <point x="842.32" y="1217.68"/>
    </contour>
  </outline>
  <guideline angle="82.9991" x="368" y="0"/>
</glyph>
<glyph name="copyright" format="2">
  <advance width="1649"/>
  <unicode hex="00A9"/>
  <outline>
    <contour>
      <point x="1064.56" y="513.48" type="curve"/>
      <point x="1005.96" y="498.08"/>
      <point x="984.12" y="447.6"/>
      <point x="852.4" y="447.6" type="curve" smooth="yes" name="n03"/>
      <point x="717.8" y="447.6"/>
      <point x="620.24" y="546.32"/>
      <point x="620.24" y="726.52" type="curve" smooth="yes"/>
      <point x="620.24" y="898.04"/>
      <point x="713.12" y="1005.88"/>
      <point x="872.64" y="1005.88" type="curve" smooth="yes" name="n09"/>
      <point x="1009.12" y="1005.88"/>
      <point x="1031.88" y="941.96"/>
      <point x="1077.52" y="941.96" type="curve" smooth="yes"/>
      <point x="1098.68" y="941.96"/>
      <point x="1112.04" y="956"/>
      <point x="1120.28" y="966.24" type="curve"/>
      <point x="1185.12" y="1056.48" type="line"/>
      <point x="1113.16" y="1133.84"/>
      <point x="1008.64" y="1189.68"/>
      <point x="860.16" y="1189.68" type="curve" smooth="yes" name="n19"/>
      <point x="600.4" y="1189.68"/>
      <point x="401.24" y="997.2"/>
      <point x="401.24" y="726.52" type="curve" smooth="yes"/>
      <point x="401.24" y="463.44"/>
      <point x="573.88" y="262.24"/>
      <point x="839.92" y="262.24" type="curve" smooth="yes" name="n25"/>
      <point x="992.8" y="262.24"/>
      <point x="1107.52" y="313.8"/>
      <point x="1181.28" y="408.76" type="curve"/>
      <point x="1099.08" y="496.76" type="line"/>
      <point x="1090.84" y="506.12"/>
      <point x="1077.92" y="513.92"/>
    </contour>
    <contour>
      <point x="100.32" y="723.4" type="curve" smooth="yes"/>
      <point x="100.32" y="316.92"/>
      <point x="431.24" y="-14"/>
      <point x="837.72" y="-14" type="curve" smooth="yes" name="n35"/>
      <point x="1245.76" y="-14"/>
      <point x="1576.68" y="316.92"/>
      <point x="1576.68" y="723.4" type="curve" smooth="yes"/>
      <point x="1576.68" y="1131.44"/>
      <point x="1245.76" y="1462.36"/>
      <point x="837.72" y="1462.36" type="curve" smooth="yes" name="n41"/>
      <point x="431.24" y="1462.36"/>
      <point x="100.32" y="1131.44"/>
    </contour>
    <contour>
      <point x="235.08" y="723.4" type="curve" smooth="yes"/>
      <point x="235.08" y="1071.08"/>
      <point x="499.4" y="1346.76"/>
      <point x="837.72" y="1346.76" type="curve" smooth="yes" name="n47"/>
      <point x="1177.6" y="1346.76"/>
      <point x="1445.48" y="1071.08"/>
      <point x="1445.48" y="723.4" type="curve" smooth="yes"/>
      <point x="1445.48" y="377.28"/>
      <point x="1177.6" y="105.16"/>
      <point x="837.72" y="105.16" type="curve" smooth="yes" name="n53"/>
      <point x="499.4" y="105.16"/>
      <point x="235.08" y="377.28"/>
    </contour>
  </outline>
  <guideline angle="82.9991" x="794" y="0"/>
</glyph>
<glyph name="ordfeminine" format="2">
  <advance width="686.46"/>
  <unicode hex="00AA"/>
  <guideline x="321.16" y="0.0" angle="82.9991"/>
  <anchor x="323.76" y="-70.0" name="bottom"/>
  <outline>
    <contour>
      <point x="457.92" y="1465.04" type="curve" smooth="yes"/>
      <point x="361.64" y="1465.04"/>
      <point x="273.56" y="1435.04"/>
      <point x="196.4" y="1367.24" type="curve"/>
      <point x="220.24" y="1311.32" type="line"/>
      <point x="228.48" y="1295.28"/>
      <point x="241.4" y="1279.24"/>
      <point x="265.68" y="1279.24" type="curve" smooth="yes"/>
      <point x="317.56" y="1279.24"/>
      <point x="338.36" y="1326.48"/>
      <point x="419.6" y="1326.48" type="curve" smooth="yes"/>
      <point x="480.15999999999997" y="1326.48"/>
      <point x="491.84000000000003" y="1280.96"/>
      <point x="488.32" y="1225.6" type="curve"/>
      <point x="655.4" y="1225.6" type="line"/>
      <point x="669.84" y="1354.56"/>
      <point x="591.28" y="1465.04"/>
    </contour>
    <contour>
      <point x="607.84" y="841.12" type="line"/>
      <point x="655.4" y="1225.6" type="line"/>
      <point x="488.32" y="1225.6" type="line"/>
      <point x="457.88" y="965.4" type="line"/>
      <point x="474.84" y="876.08" type="line"/>
      <point x="486.2" y="847.8"/>
      <point x="497.12" y="841.12"/>
      <point x="528.08" y="841.12" type="curve" smooth="yes"/>
    </contour>
    <contour>
      <point x="493.96" y="934.64" type="curve"/>
      <point x="486.84" y="1030.64" type="line"/>
      <point x="435.32" y="976.88"/>
      <point x="398.52" y="950.96"/>
      <point x="344.88" y="950.96" type="curve" smooth="yes"/>
      <point x="308.72" y="950.96"/>
      <point x="287.48" y="964.24"/>
      <point x="287.48" y="997.68" type="curve" smooth="yes"/>
      <point x="287.48" y="1053.76"/>
      <point x="335.28" y="1091.48"/>
      <point x="497.48" y="1093.24" type="curve"/>
      <point x="487.0" y="1199.04" type="line"/>
      <point x="198.28" y="1191.92"/>
      <point x="121.96000000000001" y="1076.92"/>
      <point x="121.96000000000001" y="976.52" type="curve" smooth="yes"/>
      <point x="121.96000000000001" y="884.28"/>
      <point x="181.28" y="832.68"/>
      <point x="275.36" y="832.68" type="curve" smooth="yes"/>
      <point x="365.56" y="832.68"/>
      <point x="416.4" y="867.32"/>
    </contour>
  </outline>
</glyph>
<glyph name="logicalnot" format="2">
  <advance width="1160"/>
  <unicode hex="00AC"/>
  <outline>
    <contour>
      <point x="132.28" y="582" type="line" name="n00"/>
      <point x="1013.84" y="582" type="line"/>
      <point x="1036.12" y="761.12" type="line"/>
      <point x="153" y="761.12" type="line" name="n03"/>
    </contour>
    <contour>
      <point x="777.56" y="299.16" type="line" name="n04"/>
      <point x="978.96" y="299.16" type="line"/>
      <point x="1036.12" y="761.12" type="line"/>
      <point x="834.72" y="761.12" type="line"/>
    </contour>
  </outline>
  <guideline angle="82.9991" x="580" y="0"/>
</glyph>
<glyph name="registered" format="2">
  <advance width="1649"/>
  <unicode hex="00AE"/>
  <outline>
    <contour>
      <point x="781.12" y="601.32" type="line" smooth="yes"/>
      <point x="814.44" y="601.32"/>
      <point x="831.12" y="592.88"/>
      <point x="841.12" y="571.52" type="curve"/>
      <point x="985.48" y="310.12" type="line" smooth="yes"/>
      <point x="997.72" y="288.08"/>
      <point x="1018.88" y="277.16"/>
      <point x="1048.28" y="277.16" type="curve" smooth="yes"/>
      <point x="1253.92" y="277.16" type="line"/>
      <point x="1072.8" y="583.12" type="line"/>
      <point x="1038.32" y="649.68"/>
      <point x="998.48" y="685.76"/>
      <point x="895.64" y="685.76" type="curve"/>
      <point x="809.8" y="640.32" type="line"/>
      <point x="846.08" y="640.32" type="line" smooth="yes" name="n14"/>
      <point x="1086.04" y="640.32"/>
      <point x="1194" y="756.84"/>
      <point x="1194" y="915.32" type="curve" smooth="yes"/>
      <point x="1194" y="1082.48"/>
      <point x="1082.2" y="1174.32"/>
      <point x="833.12" y="1174.32" type="curve" smooth="yes" name="n20"/>
      <point x="511.92" y="1174.32" type="line"/>
      <point x="511.92" y="277.16" type="line"/>
      <point x="726.24" y="277.16" type="line"/>
      <point x="726.24" y="1010.8" type="line"/>
      <point x="833.12" y="1010.8" type="line" smooth="yes" name="n25"/>
      <point x="955.64" y="1010.8"/>
      <point x="982.8" y="969.52"/>
      <point x="982.8" y="887.24" type="curve" smooth="yes"/>
      <point x="982.8" y="802.28"/>
      <point x="952.56" y="755.48"/>
      <point x="814.88" y="755.48" type="curve" smooth="yes" name="n31"/>
      <point x="668.12" y="755.48" type="line"/>
      <point x="661.88" y="601.32" type="line"/>
    </contour>
    <contour>
      <point x="100.32" y="723.4" type="curve" smooth="yes"/>
      <point x="100.32" y="316.92"/>
      <point x="431.24" y="-14"/>
      <point x="837.72" y="-14" type="curve" smooth="yes" name="n37"/>
      <point x="1245.76" y="-14"/>
      <point x="1576.68" y="316.92"/>
      <point x="1576.68" y="723.4" type="curve" smooth="yes"/>
      <point x="1576.68" y="1131.44"/>
      <point x="1245.76" y="1462.36"/>
      <point x="837.72" y="1462.36" type="curve" smooth="yes" name="n43"/>
      <point x="431.24" y="1462.36"/>
      <point x="100.32" y="1131.44"/>
    </contour>
    <contour>
      <point x="235.08" y="723.4" type="curve" smooth="yes"/>
      <point x="235.08" y="1071.08"/>
      <point x="499.4" y="1346.76"/>
      <point x="837.72" y="1346.76" type="curve" smooth="yes" name="n49"/>
      <point x="1177.6" y="1346.76"/>
      <point x="1445.48" y="1071.08"/>
      <point x="1445.48" y="723.4" type="curve" smooth="yes"/>
      <point x="1445.48" y="377.28"/>
      <point x="1177.6" y="105.16"/>
      <point x="837.72" y="105.16" type="curve" smooth="yes" name="n55"/>
      <point x="499.4" y="105.16"/>
      <point x="235.08" y="377.28"/>
    </contour>
  </outline>
  <guideline angle="82.9991" x="794" y="0"/>
</glyph>
<glyph name="macron" format="2">
  <advance width="736"/>
  <unicode hex="00AF"/>
  <unicode hex="02C9"/>
  <anchor x="400" y="1120" name="_top"/>
  <outline>
    <contour>
      <point x="229.66" y="1213.84" type="line" name="n00"/>
      <point x="779.64" y="1213.84" type="line"/>
      <point x="798.24" y="1372.68" type="line"/>
      <point x="247.48" y="1372.68" type="line" name="n03"/>
    </contour>
  </outline>
  <guideline angle="82.9991" x="368" y="0"/>
</glyph>
<glyph name="degree" format="2">
  <advance width="825.38"/>
  <unicode hex="00B0"/>
  <guideline x="391.94" y="0.0" angle="82.9991"/>
  <outline>
    <contour>
      <point x="126.6" y="1122.84" type="curve" smooth="yes"/>
      <point x="126.6" y="937.64"/>
      <point x="278.0" y="782.44"/>
      <point x="471.68" y="782.44" type="curve" smooth="yes"/>
      <point x="666.68" y="782.44"/>
      <point x="818.76" y="937.64"/>
      <point x="818.76" y="1122.84" type="curve" smooth="yes"/>
      <point x="818.76" y="1312.72"/>
      <point x="666.68" y="1464.36"/>
      <point x="471.68" y="1464.36" type="curve" smooth="yes"/>
      <point x="278.0" y="1464.36"/>
      <point x="126.6" y="1312.72"/>
    </contour>
    <contour>
      <point x="297.92" y="1121.28" type="curve" smooth="yes"/>
      <point x="297.92" y="1221.16"/>
      <point x="371.8" y="1299.28"/>
      <point x="471.68" y="1299.28" type="curve" smooth="yes"/>
      <point x="571.56" y="1299.28"/>
      <point x="645.0" y="1221.16"/>
      <point x="645.0" y="1121.28" type="curve" smooth="yes"/>
      <point x="645.0" y="1022.96"/>
      <point x="571.56" y="946.4"/>
      <point x="471.68" y="946.4" type="curve" smooth="yes"/>
      <point x="371.8" y="946.4"/>
      <point x="297.92" y="1022.96"/>
    </contour>
  </outline>
</glyph>
<glyph name="plusminus" format="2">
  <advance width="1160.0"/>
  <unicode hex="00B1"/>
  <guideline x="580.0" y="0.0" angle="82.9991"/>
  <outline>
    <contour>
      <point x="108.03999999999999" y="702.12" type="line"/>
      <point x="1079.96" y="702.12" type="line"/>
      <point x="1102.24" y="881.24" type="line"/>
      <point x="128.76" y="881.24" type="line"/>
    </contour>
    <contour>
      <point x="562.12" y="1237.92" type="line"/>
      <point x="454.12" y="359.03999999999996" type="line"/>
      <point x="647.28" y="359.03999999999996" type="line"/>
      <point x="755.28" y="1237.92" type="line"/>
    </contour>
    <contour>
      <point x="31.36" y="80.0" type="line"/>
      <point x="1003.28" y="80.0" type="line"/>
      <point x="1025.56" y="259.12" type="line"/>
      <point x="52.08" y="259.12" type="line"/>
    </contour>
  </outline>
</glyph>
<glyph name="acute" format="2">
  <advance width="736.0"/>
  <unicode hex="00B4"/>
  <guideline x="368.0" y="0.0" angle="82.9991"/>
  <anchor x="400.0" y="1120.0" name="_top"/>
  <outline>
    <contour>
      <point x="630.7" y="1462.8" type="line" smooth="yes"/>
      <point x="581.84" y="1462.8"/>
      <point x="559.02" y="1444.76"/>
      <point x="536.66" y="1409.6" type="curve" smooth="yes"/>
      <point x="379.15999999999997" y="1165.8" type="line"/>
      <point x="515.4" y="1165.8" type="line" smooth="yes"/>
      <point x="549.26" y="1165.8"/>
      <point x="568.52" y="1175.6"/>
      <point x="593.58" y="1201.88" type="curve"/>
      <point x="851.26" y="1462.8" type="line"/>
    </contour>
  </outline>
</glyph>
<glyph name="micro" format="2">
  <advance width="1234.98"/>
  <unicode hex="00B5"/>
  <guideline x="567.98" y="0.0" angle="82.9991"/>
  <anchor x="638.52" y="1120.0" name="top"/>
  <anchor x="530.48" y="-421.0" name="bottom"/>
  <outline>
    <contour>
      <point x="213.3" y="1026.8" type="line"/>
      <point x="58.66" y="-231.0" type="line"/>
      <point x="50.86" y="-297.84"/>
      <point x="85.84" y="-335.04"/>
      <point x="154.68" y="-335.04" type="curve" smooth="yes"/>
      <point x="277.44" y="-335.04" type="line"/>
      <point x="306.84000000000003" y="-96.08" type="line" smooth="yes"/>
      <point x="316.62" y="-15.159999999999997"/>
      <point x="320.6" y="96.2"/>
      <point x="292.28" y="161.51999999999998" type="curve"/>
      <point x="359.34000000000003" y="202.24" type="line"/>
      <point x="460.38" y="1026.8" type="line"/>
    </contour>
    <contour>
      <point x="241.8" y="420.64" type="line"/>
      <point x="210.46" y="166.8"/>
      <point x="276.66" y="15.200000000000003"/>
      <point x="468.86" y="15.200000000000003" type="curve" smooth="yes"/>
      <point x="603.38" y="15.200000000000003"/>
      <point x="710.28" y="117.9"/>
      <point x="802.92" y="287.64" type="curve"/>
      <point x="744.76" y="423.96000000000004" type="line"/>
      <point x="693.7" y="295.8"/>
      <point x="615.64" y="217.72"/>
      <point x="509.3" y="217.72" type="curve" smooth="yes"/>
      <point x="411.22" y="217.72"/>
      <point x="370.42" y="297.8"/>
      <point x="385.5" y="420.64" type="curve"/>
    </contour>
    <contour>
      <point x="716.04" y="315.72" type="line"/>
      <point x="738.88" y="304.5" type="line"/>
      <point x="713.64" y="88.32"/>
      <point x="813.8" y="-10.34"/>
      <point x="945.44" y="-10.34" type="curve" smooth="yes"/>
      <point x="1039.96" y="-10.34"/>
      <point x="1102.1" y="31.32"/>
      <point x="1107.78" y="73.76" type="curve"/>
      <point x="1119.7" y="172.68" type="line"/>
      <point x="1049.24" y="172.68" type="line" smooth="yes"/>
      <point x="985.48" y="172.68"/>
      <point x="951.36" y="214.52"/>
      <point x="962.12" y="303.72" type="curve" smooth="yes"/>
      <point x="1050.88" y="1026.8" type="line"/>
      <point x="803.8" y="1026.8" type="line"/>
    </contour>
  </outline>
</glyph>
<glyph name="paragraph" format="2">
  <advance width="1466"/>
  <unicode hex="00B6"/>
  <outline>
    <contour>
      <point x="834.7" y="1446.8" type="line"/>
      <point x="618.82" y="1446.8" type="line"/>
      <point x="415.46" y="-209.64" type="line" name="n02"/>
      <point x="631.34" y="-209.64" type="line"/>
    </contour>
    <contour>
      <point x="618.82" y="1446.8" type="line" smooth="yes"/>
      <point x="314.78" y="1446.8"/>
      <point x="108.5" y="1238.84"/>
      <point x="108.5" y="989.2" type="curve" smooth="yes"/>
      <point x="108.5" y="779.6"/>
      <point x="268.74" y="629.04"/>
      <point x="519.66" y="629.04" type="curve"/>
      <point x="642.18" y="1237.6" type="line"/>
      <point x="1474.3" y="1237.6" type="line" name="n12"/>
      <point x="1499.7" y="1446.8" type="line" name="n13"/>
    </contour>
    <contour>
      <point x="1285.3" y="1446.8" type="line"/>
      <point x="1069.42" y="1446.8" type="line"/>
      <point x="866.06" y="-209.64" type="line"/>
      <point x="1081.94" y="-209.64" type="line"/>
    </contour>
  </outline>
  <guideline angle="82.9991" x="600" y="0"/>
</glyph>
<glyph name="periodcentered" format="2">
  <advance width="549"/>
  <unicode hex="00B7"/>
  <unicode hex="2219"/>
  <outline>
    <contour>
      <point x="81.9" y="594.68" type="curve" smooth="yes"/>
      <point x="81.9" y="491.36"/>
      <point x="166.06" y="407.2"/>
      <point x="269.38" y="407.2" type="curve" smooth="yes" name="n03"/>
      <point x="375.14" y="407.2"/>
      <point x="459.3" y="491.36"/>
      <point x="459.3" y="594.68" type="curve" smooth="yes"/>
      <point x="459.3" y="700.44"/>
      <point x="375.14" y="784.6"/>
      <point x="269.38" y="784.6" type="curve" smooth="yes" name="n09"/>
      <point x="166.06" y="784.6"/>
      <point x="81.9" y="700.44"/>
    </contour>
  </outline>
  <guideline angle="82.9991" x="260" y="0"/>
</glyph>
<glyph name="cedilla" format="2">
  <advance width="736"/>
  <unicode hex="00B8"/>
  <anchor x="400" y="-70" name="_bottom"/>
  <outline>
    <contour>
      <point x="229.34" y="-233.6" type="curve" smooth="yes"/>
      <point x="212.86" y="-233.6"/>
      <point x="203.84" y="-241.84"/>
      <point x="198.28" y="-256.76" type="curve"/>
      <point x="165.98" y="-334.08" type="line"/>
      <point x="207.14" y="-348.48"/>
      <point x="249.22" y="-356.44"/>
      <point x="299" y="-356.44" type="curve" smooth="yes" name="n07"/>
      <point x="445.16" y="-356.44"/>
      <point x="549.48" y="-294.96"/>
      <point x="549.48" y="-192.8" type="curve" smooth="yes"/>
      <point x="549.48" y="-123.48"/>
      <point x="498.42" y="-71.18"/>
      <point x="349.62" y="-48.72" type="curve"/>
      <point x="398.4" y="-96.84" type="line"/>
      <point x="448.52" y="35.88" type="line" name="n15"/>
      <point x="310.62" y="35.88" type="line"/>
      <point x="232.66" y="-141.6" type="line"/>
      <point x="317.2" y="-154.16"/>
      <point x="355.88" y="-166.14"/>
      <point x="355.88" y="-200.7" type="curve" smooth="yes"/>
      <point x="355.88" y="-226.02"/>
      <point x="336.3" y="-247.96"/>
      <point x="295.3" y="-247.96" type="curve" smooth="yes" name="n23"/>
      <point x="261.22" y="-247.96"/>
      <point x="246.58" y="-233.6"/>
    </contour>
  </outline>
  <guideline angle="82.9991" x="368" y="0"/>
</glyph>
<glyph name="ordmasculine" format="2">
  <advance width="749.32"/>
  <unicode hex="00BA"/>
  <guideline x="358.28" y="0.0" angle="82.9991"/>
  <anchor x="355.3" y="-70.0" name="bottom"/>
  <outline>
    <contour>
      <point x="478.56" y="1463.48" type="curve" smooth="yes"/>
      <point x="279.84" y="1463.48"/>
      <point x="131.72" y="1323.92"/>
      <point x="131.72" y="1102.32" type="curve" smooth="yes"/>
      <point x="131.72" y="934.48"/>
      <point x="236.92" y="829.12"/>
      <point x="401.88" y="829.12" type="curve" smooth="yes"/>
      <point x="600.16" y="829.12"/>
      <point x="745.16" y="969.8"/>
      <point x="745.16" y="1192.96" type="curve" smooth="yes"/>
      <point x="745.16" y="1357.68"/>
      <point x="641.52" y="1463.48"/>
    </contour>
    <contour>
      <point x="419.48" y="969.92" type="curve" smooth="yes"/>
      <point x="349.88" y="969.92"/>
      <point x="317.08" y="1015.12"/>
      <point x="317.08" y="1099.2" type="curve" smooth="yes"/>
      <point x="317.08" y="1231.92"/>
      <point x="348.24" y="1322.68"/>
      <point x="462.52" y="1322.68" type="curve" smooth="yes"/>
      <point x="527.0" y="1322.68"/>
      <point x="560.24" y="1277.04"/>
      <point x="560.24" y="1192.96" type="curve" smooth="yes"/>
      <point x="560.24" y="1052.44"/>
      <point x="517.72" y="969.92"/>
    </contour>
  </outline>
</glyph>
<glyph name="questiondown" format="2">
  <advance width="842.24"/>
  <unicode hex="00BF"/>
  <guideline x="390.2" y="0.0" angle="82.9991"/>
  <outline>
    <contour>
      <point x="632.42" y="-102.75999999999999" type="line"/>
      <point x="624.18" y="-83.6"/>
      <point x="608.58" y="-73.79999999999998"/>
      <point x="587.42" y="-73.79999999999998" type="curve"/>
      <point x="547.78" y="-73.79999999999998"/>
      <point x="490.34000000000003" y="-156.56"/>
      <point x="353.78" y="-156.56" type="curve" smooth="yes"/>
      <point x="283.5" y="-156.56"/>
      <point x="224.54000000000002" y="-109.12"/>
      <point x="224.54000000000002" y="-16.159999999999997" type="curve" smooth="yes"/>
      <point x="224.54000000000002" y="183.04"/>
      <point x="525.3" y="213.12"/>
      <point x="529.7" y="397.84" type="curve" smooth="yes"/>
      <point x="534.1" y="562.48" type="line"/>
      <point x="371.9" y="562.48" type="line"/>
      <point x="331.42" y="415.44" type="line"/>
      <point x="292.26" y="277.04"/>
      <point x="-13.18" y="260.8"/>
      <point x="-13.18" y="-60.28" type="curve" smooth="yes"/>
      <point x="-13.18" y="-239.68"/>
      <point x="111.94" y="-351.28"/>
      <point x="309.66" y="-351.28" type="curve" smooth="yes"/>
      <point x="467.74" y="-351.28"/>
      <point x="587.58" y="-283.28"/>
      <point x="683.66" y="-204.36" type="curve"/>
    </contour>
    <component base="period" xOffset="326.16" yOffset="754.08"/>
  </outline>
</glyph>
<glyph name="AE" format="2">
  <advance width="1743.3"/>
  <unicode hex="00C6"/>
  <guideline x="855.36" y="0.0" angle="82.9991"/>
  <anchor x="1273.28" y="1518.62" name="Top"/>
  <anchor x="1273.28" y="1518.62" name="top"/>
  <anchor x="762.42" y="-70.0" name="bottom"/>
  <outline>
    <contour>
      <point x="-78.0" y="0.0" type="line"/>
      <point x="124.08000000000001" y="0.0" type="line" smooth="yes"/>
      <point x="167.52" y="0.0"/>
      <point x="204.72" y="28.96"/>
      <point x="222.76000000000002" y="59.92" type="curve" smooth="yes"/>
      <point x="780.36" y="1074.84" type="line" smooth="yes"/>
      <point x="834.24" y="1168.36"/>
      <point x="880.12" y="1293.56"/>
      <point x="926.0" y="1446.8" type="curve"/>
      <point x="760.24" y="1446.8" type="line"/>
    </contour>
    <contour>
      <point x="268.72" y="359.44" type="line"/>
      <point x="1037.88" y="359.44" type="line"/>
      <point x="1060.16" y="544.8" type="line"/>
      <point x="292.56" y="544.8" type="line"/>
    </contour>
    <contour>
      <point x="1099.12" y="1446.8" type="line"/>
      <point x="854.04" y="1446.8" type="line"/>
      <point x="854.04" y="0.0" type="line"/>
      <point x="1099.12" y="0.0" type="line"/>
    </contour>
    <contour>
      <point x="1084.0" y="828.08" type="line"/>
      <point x="1060.16" y="626.68" type="line"/>
      <point x="1541.76" y="626.68" type="line"/>
      <point x="1566.04" y="828.08" type="line"/>
    </contour>
    <contour>
      <point x="1049.0" y="1446.8" type="line"/>
      <point x="1023.6" y="1237.6" type="line"/>
      <point x="1742.0" y="1237.6" type="line"/>
      <point x="1767.4" y="1446.8" type="line"/>
    </contour>
    <contour>
      <point x="1024.48" y="209.20000000000002" type="line"/>
      <point x="999.08" y="0.0" type="line"/>
      <point x="1589.16" y="0.0" type="line"/>
      <point x="1615.44" y="209.20000000000002" type="line"/>
    </contour>
  </outline>
</glyph>
<glyph name="Eth" format="2">
  <advance width="1430.04"/>
  <unicode hex="00D0"/>
  <guideline x="727.68" y="0.0" angle="82.9991"/>
  <anchor x="731.48" y="1518.62" name="Top"/>
  <anchor x="731.48" y="1518.62" name="top"/>
  <anchor x="531.04" y="-70.0" name="bottom"/>
  <outline>
    <contour>
      <point x="1374.98" y="819.8" type="curve" smooth="yes"/>
      <point x="1374.98" y="1182.68"/>
      <point x="1148.02" y="1446.8"/>
      <point x="778.98" y="1446.8" type="curve"/>
      <point x="269.06" y="1446.8" type="line"/>
      <point x="92.38" y="0.0" type="line"/>
      <point x="602.3" y="0.0" type="line" smooth="yes"/>
      <point x="1048.22" y="0.0"/>
      <point x="1374.98" y="339.88"/>
    </contour>
    <contour>
      <point x="1108.74" y="813.56" type="curve" smooth="yes"/>
      <point x="1108.74" y="439.48"/>
      <point x="918.78" y="208.76000000000002"/>
      <point x="627.7" y="208.76000000000002" type="curve" smooth="yes"/>
      <point x="378.9" y="208.76000000000002" type="line"/>
      <point x="504.34000000000003" y="1238.04" type="line"/>
      <point x="753.58" y="1238.04" type="line" smooth="yes"/>
      <point x="978.7" y="1238.04"/>
      <point x="1108.74" y="1072.84"/>
    </contour>
    <contour>
      <point x="8.059999999999999" y="652.08" type="line"/>
      <point x="762.42" y="652.08" type="line"/>
      <point x="780.02" y="801.56" type="line"/>
      <point x="27.22" y="801.56" type="line"/>
    </contour>
  </outline>
</glyph>
<glyph name="multiply" format="2">
  <advance width="1160"/>
  <unicode hex="00D7"/>
  <outline>
    <contour>
      <point x="173.16" y="1000.28" type="line"/>
      <point x="872.28" y="204.04" type="line"/>
      <point x="1012.64" y="330.36" type="line"/>
      <point x="314.4" y="1127.04" type="line" name="n03"/>
    </contour>
    <contour>
      <point x="969.84" y="1125.04" type="line"/>
      <point x="75.6" y="328.36" type="line"/>
      <point x="185.88" y="202.04" type="line" name="n06"/>
      <point x="1080.56" y="998.28" type="line"/>
    </contour>
  </outline>
  <guideline angle="82.9991" x="580" y="0"/>
</glyph>
<glyph name="Oslash" format="2">
  <advance width="1506.36"/>
  <unicode hex="00D8"/>
  <guideline x="732.0" y="0.0" angle="82.9991"/>
  <anchor x="873.2" y="1518.62" name="Top"/>
  <anchor x="873.2" y="1518.62" name="top"/>
  <anchor x="619.58" y="-70.0" name="bottom"/>
  <outline>
    <contour>
      <point x="1507.8" y="1510.8" type="line"/>
      <point x="1375.24" y="1510.8" type="line" smooth="yes"/>
      <point x="1318.44" y="1510.8"/>
      <point x="1300.4" y="1492.76"/>
      <point x="1259.64" y="1445.76" type="curve"/>
      <point x="28.839999999999996" y="-111.36" type="line"/>
      <point x="131.32" y="-111.36" type="line" smooth="yes"/>
      <point x="179.88" y="-111.36"/>
      <point x="237.8" y="-91.76"/>
      <point x="281.68" y="-40.08" type="curve"/>
    </contour>
    <contour>
      <point x="1453.08" y="820.24" type="curve" smooth="yes"/>
      <point x="1453.08" y="1184.68"/>
      <point x="1226.12" y="1462.8"/>
      <point x="858.64" y="1462.8" type="curve" smooth="yes"/>
      <point x="412.48" y="1462.8"/>
      <point x="80.84" y="1104.48"/>
      <point x="80.84" y="625.0" type="curve" smooth="yes"/>
      <point x="80.84" y="260.56"/>
      <point x="307.8" y="-15.56"/>
      <point x="676.4" y="-15.56" type="curve" smooth="yes"/>
      <point x="1122.32" y="-15.56"/>
      <point x="1453.08" y="341.88"/>
    </contour>
    <contour>
      <point x="1186.84" y="814.0" type="curve" smooth="yes"/>
      <point x="1186.84" y="443.03999999999996"/>
      <point x="996.0" y="201.0"/>
      <point x="704.92" y="201.0" type="curve" smooth="yes"/>
      <point x="479.12" y="201.0"/>
      <point x="346.64" y="370.4"/>
      <point x="346.64" y="631.68" type="curve"/>
      <point x="346.64" y="1002.2"/>
      <point x="537.6800000000001" y="1246.24"/>
      <point x="827.0" y="1246.24" type="curve" smooth="yes"/>
      <point x="1052.12" y="1246.24"/>
      <point x="1186.84" y="1075.28"/>
    </contour>
  </outline>
</glyph>
<glyph name="Thorn" format="2">
  <advance width="1157"/>
  <unicode hex="00DE"/>
  <anchor x="478.96" y="1518.62" name="Top"/>
  <anchor x="200.02" y="-70" name="bottom"/>
  <anchor x="478.96" y="1518.62" name="top"/>
  <outline>
    <contour>
      <point x="512.82" y="1446.8" type="line" name="n00"/>
      <point x="253.26" y="1446.8" type="line"/>
      <point x="76.58" y="0" type="line" name="n02"/>
      <point x="334.58" y="0" type="line"/>
    </contour>
    <contour>
      <point x="396.18" y="992.2" type="line" name="n04"/>
      <point x="637.86" y="992.2" type="line" smooth="yes"/>
      <point x="796.94" y="992.2"/>
      <point x="871.02" y="907.84"/>
      <point x="871.02" y="776.72" type="curve" smooth="yes"/>
      <point x="871.02" y="594.92"/>
      <point x="778.86" y="466.2"/>
      <point x="573.94" y="466.2" type="curve" smooth="yes" name="n11"/>
      <point x="305.74" y="466.2" type="line"/>
      <point x="258.06" y="262.12" type="line"/>
      <point x="548.54" y="262.12" type="line" smooth="yes" name="n14"/>
      <point x="935.74" y="262.12"/>
      <point x="1132.14" y="487.56"/>
      <point x="1132.14" y="799.44" type="curve" smooth="yes"/>
      <point x="1132.14" y="1029.24"/>
      <point x="987.9" y="1194.72"/>
      <point x="663.7" y="1194.72" type="curve" smooth="yes"/>
      <point x="399.74" y="1194.72" type="line" name="n21"/>
    </contour>
  </outline>
  <guideline angle="82.9991" x="533" y="0"/>
</glyph>
<glyph name="germandbls" format="2">
  <advance width="1215"/>
  <unicode hex="00DF"/>
  <anchor x="740.52" y="1518.62" name="Top"/>
  <anchor x="514.22" y="-421" name="bottom"/>
  <anchor x="740.52" y="1518.62" name="top"/>
  <outline>
    <contour>
      <point x="782.92" y="1470.16" type="curve" smooth="yes" name="n00"/>
      <point x="479.32" y="1470.16"/>
      <point x="258.12" y="1180.16"/>
      <point x="222.56" y="899" type="curve"/>
      <point x="82.8" y="-247.32" type="line" name="n04"/>
      <point x="181.96" y="-247.32" type="line" smooth="yes"/>
      <point x="253.04" y="-247.32"/>
      <point x="288.68" y="-209.44"/>
      <point x="309.4" y="-144.84" type="curve"/>
      <point x="359.88" y="42.76" type="line"/>
      <point x="463.4" y="891.2" type="line" smooth="yes"/>
      <point x="488.04" y="1098.12"/>
      <point x="591.12" y="1295.72"/>
      <point x="750.84" y="1295.72" type="curve" smooth="yes" name="n13"/>
      <point x="869.76" y="1295.72"/>
      <point x="918.4" y="1228.36"/>
      <point x="918.4" y="1153.04" type="curve" smooth="yes"/>
      <point x="918.4" y="950.8"/>
      <point x="605.92" y="955.32"/>
      <point x="605.92" y="686.92" type="curve" smooth="yes"/>
      <point x="605.92" y="456.4"/>
      <point x="904.72" y="473.08"/>
      <point x="904.72" y="307.56" type="curve" smooth="yes"/>
      <point x="904.72" y="219.56"/>
      <point x="841.76" y="152.2"/>
      <point x="763.64" y="152.2" type="curve" smooth="yes" name="n25"/>
      <point x="657.84" y="152.2"/>
      <point x="628.56" y="235.68"/>
      <point x="571.12" y="235.68" type="curve" smooth="yes"/>
      <point x="541.72" y="235.68"/>
      <point x="521" y="222.76"/>
      <point x="506.08" y="201.6" type="curve" smooth="yes"/>
      <point x="439.24" y="109.8" type="line"/>
      <point x="504.8" y="37.8"/>
      <point x="609.8" y="-16"/>
      <point x="722.64" y="-16" type="curve" smooth="yes" name="n35"/>
      <point x="935.56" y="-16"/>
      <point x="1132.64" y="119.52"/>
      <point x="1132.64" y="372.4" type="curve" smooth="yes"/>
      <point x="1132.64" y="630.6"/>
      <point x="861.92" y="638.64"/>
      <point x="861.92" y="757.56" type="curve" smooth="yes"/>
      <point x="861.92" y="890.28"/>
      <point x="1149" y="896"/>
      <point x="1149" y="1160.6" type="curve" smooth="yes"/>
      <point x="1149" y="1288.4"/>
      <point x="1053.68" y="1470.16"/>
    </contour>
    <contour>
      <point x="377.84" y="843.12" type="line" name="n47"/>
      <point x="400.12" y="1014.44" type="line" name="n48"/>
      <point x="80.84" y="1014.44" type="line"/>
      <point x="69.92" y="915.96" type="line"/>
      <point x="64.8" y="880.76"/>
      <point x="87.52" y="864.28"/>
      <point x="123.6" y="856.48" type="curve"/>
      <point x="242.16" y="835.32" type="line"/>
      <point x="276" y="843.12" type="line"/>
    </contour>
  </outline>
  <guideline angle="82.9991" x="480" y="0"/>
</glyph>
<glyph name="ae" format="2">
  <advance width="1493.86"/>
  <unicode hex="00E6"/>
  <guideline x="729.62" y="0.0" angle="82.9991"/>
  <anchor x="827.48" y="1120.0" name="top"/>
  <anchor x="645.76" y="-70.0" name="bottom"/>
  <outline>
    <contour>
      <point x="1108.48" y="1041.24" type="curve" smooth="yes"/>
      <point x="806.8" y="1041.24"/>
      <point x="625.64" y="772.72"/>
      <point x="625.64" y="430.08" type="curve" smooth="yes"/>
      <point x="625.64" y="127.72"/>
      <point x="783.56" y="-15.120000000000001"/>
      <point x="974.44" y="-15.120000000000001" type="curve" smooth="yes"/>
      <point x="1159.68" y="-15.120000000000001"/>
      <point x="1282.38" y="48.0"/>
      <point x="1422.88" y="189.8" type="curve"/>
      <point x="1360.04" y="266.68" type="line" smooth="yes"/>
      <point x="1348.24" y="280.04"/>
      <point x="1332.2" y="289.4"/>
      <point x="1315.72" y="289.4" type="curve" smooth="yes"/>
      <point x="1237.58" y="289.4"/>
      <point x="1201.32" y="178.04"/>
      <point x="1023.24" y="178.04" type="curve" smooth="yes"/>
      <point x="894.04" y="178.04"/>
      <point x="818.36" y="263.64"/>
      <point x="818.36" y="449.68" type="curve" smooth="yes"/>
      <point x="818.36" y="695.64"/>
      <point x="901.48" y="867.92"/>
      <point x="1077.28" y="867.92" type="curve" smooth="yes"/>
      <point x="1156.04" y="867.92"/>
      <point x="1193.68" y="824.2"/>
      <point x="1193.68" y="765.24" type="curve" smooth="yes"/>
      <point x="1193.68" y="686.08"/>
      <point x="1125.04" y="617.52"/>
      <point x="804.52" y="596.6" type="curve"/>
      <point x="772.44" y="455.36" type="line"/>
      <point x="1293.28" y="458.48"/>
      <point x="1409.12" y="625.96"/>
      <point x="1409.12" y="777.72" type="curve" smooth="yes"/>
      <point x="1409.12" y="922.68"/>
      <point x="1278.8" y="1041.24"/>
    </contour>
    <contour>
      <point x="748.64" y="415.24" type="line"/>
      <point x="792.0" y="648.0" type="line" smooth="yes"/>
      <point x="821.12" y="881.16"/>
      <point x="748.44" y="1044.36"/>
      <point x="515.84" y="1044.36" type="curve" smooth="yes"/>
      <point x="371.56" y="1044.36"/>
      <point x="247.48" y="990.36"/>
      <point x="125.64" y="882.12" type="curve"/>
      <point x="158.84" y="804.8" type="line"/>
      <point x="170.64" y="780.52"/>
      <point x="191.36" y="761.36"/>
      <point x="223.44" y="761.36" type="curve" smooth="yes"/>
      <point x="299.6" y="761.36"/>
      <point x="344.12" y="852.3199999999999"/>
      <point x="488.88" y="852.3199999999999" type="curve" smooth="yes"/>
      <point x="586.92" y="852.3199999999999"/>
      <point x="632.64" y="786.92"/>
      <point x="616.0" y="648.0" type="curve" smooth="yes"/>
      <point x="586.68" y="415.24" type="line"/>
    </contour>
    <contour>
      <point x="586.68" y="415.24" type="line"/>
      <point x="563.36" y="228.68"/>
      <point x="464.88" y="149.08"/>
      <point x="346.84000000000003" y="149.08" type="curve" smooth="yes"/>
      <point x="276.32" y="149.08"/>
      <point x="233.56" y="186.12"/>
      <point x="233.56" y="261.48" type="curve" smooth="yes"/>
      <point x="233.56" y="372.12"/>
      <point x="318.8" y="453.84"/>
      <point x="626.28" y="461.15999999999997" type="curve"/>
      <point x="614.24" y="607.52" type="line"/>
      <point x="145.48" y="595.96"/>
      <point x="3.6400000000000006" y="410.2"/>
      <point x="3.6400000000000006" y="230.96" type="curve" smooth="yes"/>
      <point x="3.6400000000000006" y="72.08"/>
      <point x="104.52" y="-16.0"/>
      <point x="301.16" y="-16.0" type="curve" smooth="yes"/>
      <point x="488.64" y="-16.0"/>
      <point x="711.08" y="104.08"/>
      <point x="748.64" y="415.24" type="curve"/>
    </contour>
  </outline>
</glyph>
<glyph name="eth" format="2">
  <advance width="1064.54"/>
  <unicode hex="00F0"/>
  <guideline y="1406.78"/>
  <guideline x="522.56" y="0.0" angle="82.9991"/>
  <anchor x="727.78" y="1518.62" name="Top"/>
  <anchor x="727.78" y="1518.62" name="top"/>
  <anchor x="441.48" y="-70.0" name="bottom"/>
  <outline>
    <contour>
      <point x="397.12" y="1429.72" type="curve"/>
      <point x="360.8" y="1353.3" type="line"/>
      <point x="338.52" y="1306.86"/>
      <point x="345.08" y="1271.88"/>
      <point x="398.32" y="1254.5" type="curve"/>
      <point x="739.68" y="1150.9"/>
      <point x="839.76" y="964.7"/>
      <point x="796.88" y="601.56" type="curve"/>
      <point x="763.68" y="597.12" type="line"/>
      <point x="725.24" y="278.84000000000003"/>
      <point x="606.44" y="169.12"/>
      <point x="465.0" y="169.12" type="curve" smooth="yes"/>
      <point x="355.4" y="169.12"/>
      <point x="275.56" y="259.64"/>
      <point x="275.56" y="416.32" type="curve" smooth="yes"/>
      <point x="275.56" y="602.72"/>
      <point x="377.64" y="747.8"/>
      <point x="547.12" y="747.8" type="curve" smooth="yes"/>
      <point x="686.68" y="747.8"/>
      <point x="747.24" y="643.36"/>
      <point x="767.92" y="528.36" type="curve"/>
      <point x="878.64" y="583.84" type="line"/>
      <point x="836.8" y="807.52"/>
      <point x="713.4" y="931.6"/>
      <point x="521.04" y="931.6" type="curve" smooth="yes"/>
      <point x="243.72" y="931.6"/>
      <point x="39.4" y="690.72"/>
      <point x="39.4" y="404.96" type="curve" smooth="yes"/>
      <point x="39.4" y="145.56"/>
      <point x="203.24" y="-14.68"/>
      <point x="436.48" y="-14.68" type="curve" smooth="yes"/>
      <point x="792.12" y="-14.68"/>
      <point x="996.48" y="273.0"/>
      <point x="996.48" y="726.24" type="curve" smooth="yes"/>
      <point x="996.48" y="1154.44"/>
      <point x="730.6800000000001" y="1371.68"/>
    </contour>
    <contour>
      <point x="463.8" y="980.3" type="line"/>
      <point x="709.16" y="1137.96" type="line"/>
      <point x="728.76" y="1127.92" type="line"/>
      <point x="938.74" y="1261.56" type="line" smooth="yes"/>
      <point x="968.7" y="1279.04"/>
      <point x="968.48" y="1307.32"/>
      <point x="956.9" y="1329.04" type="curve"/>
      <point x="917.02" y="1408.14" type="line"/>
      <point x="665.28" y="1250.68" type="line"/>
      <point x="648.8" y="1260.72" type="line"/>
      <point x="433.06" y="1121.76" type="line" smooth="yes"/>
      <point x="414.02" y="1109.74"/>
      <point x="405.32" y="1084.02"/>
      <point x="419.02" y="1060.18" type="curve" smooth="yes"/>
    </contour>
  </outline>
</glyph>
<glyph name="divide" format="2">
  <advance width="1160"/>
  <unicode hex="00F7"/>
  <outline>
    <contour>
      <point x="88.56" y="582" type="line" name="n00"/>
      <point x="1062.04" y="582" type="line"/>
      <point x="1084.32" y="761.12" type="line"/>
      <point x="110.84" y="761.12" type="line" name="n03"/>
    </contour>
    <contour>
      <point x="480.2" y="1009.76" type="curve" smooth="yes"/>
      <point x="480.2" y="936.08"/>
      <point x="533.4" y="878.88"/>
      <point x="611.08" y="878.88" type="curve" smooth="yes" name="n07"/>
      <point x="699" y="878.88"/>
      <point x="778.68" y="949.44"/>
      <point x="778.68" y="1042.48" type="curve" smooth="yes"/>
      <point x="778.68" y="1116.6"/>
      <point x="723.48" y="1175.8"/>
      <point x="647.36" y="1175.8" type="curve" smooth="yes" name="n13"/>
      <point x="556.32" y="1175.8"/>
      <point x="480.2" y="1101.24"/>
    </contour>
    <contour>
      <point x="392.2" y="297.76" type="curve" smooth="yes"/>
      <point x="392.2" y="224.08"/>
      <point x="445.84" y="166.88"/>
      <point x="523.08" y="166.88" type="curve" smooth="yes" name="n19"/>
      <point x="611.44" y="166.88"/>
      <point x="690.68" y="237.44"/>
      <point x="690.68" y="330.48" type="curve" smooth="yes"/>
      <point x="690.68" y="404.6"/>
      <point x="635.48" y="463.8"/>
      <point x="559.36" y="463.8" type="curve" smooth="yes" name="n25"/>
      <point x="468.32" y="463.8"/>
      <point x="392.2" y="389.24"/>
    </contour>
  </outline>
  <guideline angle="82.9991" x="580" y="0"/>
</glyph>
<glyph name="oslash" format="2">
  <advance width="1045.08"/>
  <unicode hex="00F8"/>
  <guideline x="510.18" y="0.0" angle="82.9991"/>
  <anchor x="604.98" y="1120.0" name="top"/>
  <anchor x="400.46" y="-70.0" name="bottom"/>
  <outline>
    <contour>
      <point x="856.7" y="860.16" type="line"/>
      <point x="880.1" y="860.16" type="line"/>
      <point x="1035.78" y="1074.12" type="line"/>
      <point x="913.7" y="1074.12" type="line" smooth="yes"/>
      <point x="855.34" y="1074.12"/>
      <point x="837.3" y="1056.08"/>
      <point x="801.66" y="1007.52" type="curve" smooth="yes"/>
      <point x="700.54" y="867.72" type="line"/>
      <point x="675.58" y="867.72" type="line"/>
      <point x="164.26" y="164.2" type="line"/>
      <point x="140.86" y="164.2" type="line"/>
      <point x="-14.780000000000001" y="-49.04" type="line"/>
      <point x="75.66" y="-49.04" type="line" smooth="yes"/>
      <point x="127.34" y="-49.04"/>
      <point x="185.26" y="-29.439999999999998"/>
      <point x="224.02" y="23.799999999999997" type="curve" smooth="yes"/>
      <point x="323.98" y="162.2" type="line"/>
      <point x="347.38" y="162.2" type="line"/>
    </contour>
    <contour>
      <point x="460.86" y="160.88" type="curve" smooth="yes"/>
      <point x="346.42" y="160.88"/>
      <point x="274.78" y="253.4"/>
      <point x="274.78" y="417.2" type="curve" smooth="yes"/>
      <point x="274.78" y="682.88"/>
      <point x="395.06" y="866.8"/>
      <point x="560.78" y="866.8" type="curve" smooth="yes"/>
      <point x="674.78" y="866.8"/>
      <point x="746.86" y="775.84"/>
      <point x="746.86" y="610.48" type="curve" smooth="yes"/>
      <point x="746.86" y="347.24"/>
      <point x="626.58" y="160.88"/>
    </contour>
    <contour>
      <point x="438.58" y="-15.120000000000001" type="curve" smooth="yes"/>
      <point x="733.5" y="-15.120000000000001"/>
      <point x="978.34" y="259.24"/>
      <point x="978.34" y="612.04" type="curve" smooth="yes"/>
      <point x="978.34" y="886.8"/>
      <point x="809.78" y="1042.8"/>
      <point x="583.06" y="1042.8" type="curve" smooth="yes"/>
      <point x="288.14" y="1042.8"/>
      <point x="43.3" y="772.0"/>
      <point x="43.3" y="415.64" type="curve" smooth="yes"/>
      <point x="43.3" y="140.44"/>
      <point x="211.86" y="-15.120000000000001"/>
    </contour>
  </outline>
</glyph>
<glyph name="thorn" format="2">
  <advance width="1077.64"/>
  <unicode hex="00FE"/>
  <guideline x="534.22" y="0.0" angle="82.9991"/>
  <anchor x="392.1" y="1518.62" name="Top"/>
  <anchor x="392.1" y="1518.62" name="top"/>
  <anchor x="358.18" y="-421.0" name="bottom"/>
  <outline>
    <contour>
      <point x="152.14" y="-335.04" type="line" smooth="yes"/>
      <point x="206.94" y="-335.04"/>
      <point x="244.14000000000001" y="-294.72"/>
      <point x="249.26000000000002" y="-251.51999999999998" type="curve"/>
      <point x="464.14" y="1486.8" type="line"/>
      <point x="220.62" y="1486.8" type="line"/>
      <point x="-0.9400000000000048" y="-335.04" type="line"/>
    </contour>
    <contour>
      <point x="243.98000000000002" y="139.44" type="line"/>
      <point x="297.54" y="46.88"/>
      <point x="391.26" y="-15.120000000000001"/>
      <point x="512.82" y="-15.120000000000001" type="curve" smooth="yes"/>
      <point x="785.86" y="-15.120000000000001"/>
      <point x="1012.66" y="311.15999999999997"/>
      <point x="1012.66" y="659.56" type="curve" smooth="yes"/>
      <point x="1012.66" y="920.2"/>
      <point x="901.46" y="1042.36"/>
      <point x="730.58" y="1042.36" type="curve" smooth="yes"/>
      <point x="521.42" y="1042.36"/>
      <point x="338.1" y="829.92"/>
      <point x="241.22" y="541.72" type="curve"/>
      <point x="323.65999999999997" y="427.24" type="line"/>
      <point x="379.5" y="657.44"/>
      <point x="516.26" y="846.08"/>
      <point x="633.86" y="846.08" type="curve" smooth="yes"/>
      <point x="717.22" y="846.08"/>
      <point x="767.58" y="777.12"/>
      <point x="767.58" y="634.6" type="curve" smooth="yes"/>
      <point x="767.58" y="413.2"/>
      <point x="649.94" y="174.92000000000002"/>
      <point x="474.26" y="174.92000000000002" type="curve" smooth="yes"/>
      <point x="403.94" y="174.92000000000002"/>
      <point x="324.02" y="202.4"/>
      <point x="280.74" y="280.64" type="curve"/>
    </contour>
  </outline>
</glyph>
<glyph name="dcroat" format="2">
  <advance width="1078.64"/>
  <unicode hex="0111"/>
  <guideline x="535.68" y="0.0" angle="82.9991"/>
  <anchor x="904.84" y="1518.62" name="Top"/>
  <anchor x="904.84" y="1518.62" name="top"/>
  <anchor x="486.02" y="-70.0" name="bottom"/>
  <outline>
    <contour>
      <point x="587.38" y="1218.32" type="line"/>
      <point x="577.58" y="1158.16"/>
      <point x="599.42" y="1132.56"/>
      <point x="664.46" y="1132.56" type="curve" smooth="yes"/>
      <point x="1155.62" y="1132.56" type="line"/>
      <point x="1173.22" y="1282.04" type="line"/>
      <point x="597.18" y="1282.04" type="line"/>
    </contour>
    <contour>
      <point x="889.02" y="0.0" type="line"/>
      <point x="1072.82" y="1486.8" type="line"/>
      <point x="830.86" y="1486.8" type="line"/>
      <point x="680.78" y="278.6" type="line"/>
      <point x="688.58" y="261.03999999999996" type="line"/>
      <point x="677.58" y="82.64" type="line"/>
      <point x="677.58" y="36.08"/>
      <point x="695.18" y="0.0"/>
      <point x="758.22" y="0.0" type="curve" smooth="yes"/>
    </contour>
    <contour>
      <point x="809.66" y="858.6" type="line"/>
      <point x="756.1" y="951.16"/>
      <point x="662.38" y="1012.72"/>
      <point x="540.82" y="1012.72" type="curve" smooth="yes"/>
      <point x="267.78" y="1012.72"/>
      <point x="40.98" y="716.52"/>
      <point x="40.98" y="368.12" type="curve" smooth="yes"/>
      <point x="40.98" y="107.48"/>
      <point x="152.18" y="-15.120000000000001"/>
      <point x="323.06" y="-15.120000000000001" type="curve" smooth="yes"/>
      <point x="532.22" y="-15.120000000000001"/>
      <point x="715.54" y="197.76"/>
      <point x="812.42" y="485.96" type="curve"/>
      <point x="729.98" y="600.44" type="line"/>
      <point x="674.14" y="370.24"/>
      <point x="537.38" y="181.16"/>
      <point x="419.78" y="181.16" type="curve" smooth="yes"/>
      <point x="336.42" y="181.16"/>
      <point x="286.06" y="250.56"/>
      <point x="286.06" y="393.08" type="curve" smooth="yes"/>
      <point x="286.06" y="614.48"/>
      <point x="403.70000000000005" y="822.6800000000001"/>
      <point x="579.38" y="822.6800000000001" type="curve" smooth="yes"/>
      <point x="649.7" y="822.6800000000001"/>
      <point x="729.62" y="795.64"/>
      <point x="772.9" y="717.4" type="curve"/>
    </contour>
  </outline>
</glyph>
<glyph name="hcircumflex" format="2">
  <advance width="1082"/>
  <unicode hex="0125"/>
  <anchor x="558.28" y="721.84" name="Slash"/>
  <anchor x="392.88" y="1518.62" name="Top"/>
  <anchor x="465.76" y="-70" name="bottom"/>
  <anchor x="392.88" y="1518.62" name="top"/>
  <outline>
    <component base="h"/>
    <contour>
      <point x="10.16" y="1548.92" type="line" name="n00"/>
      <point x="189.28" y="1548.92" type="line" smooth="yes"/>
      <point x="209.32" y="1548.92"/>
      <point x="234.48" y="1555.6"/>
      <point x="249.84" y="1564.72" type="curve"/>
      <point x="346.88" y="1634.24" type="line"/>
      <point x="400.12" y="1668.76"/>
      <point x="442.68" y="1727.36"/>
      <point x="447.36" y="1767" type="curve" name="n08"/>
      <point x="259.08" y="1767" type="line"/>
    </contour>
    <contour>
      <point x="496.6" y="1767" type="line"/>
      <point x="308.32" y="1767" type="line"/>
      <point x="303.2" y="1727.36"/>
      <point x="331.28" y="1670.32"/>
      <point x="376.72" y="1634.24" type="curve"/>
      <point x="455.6" y="1564.72" type="line"/>
      <point x="470.52" y="1557.16"/>
      <point x="494.12" y="1548.92"/>
      <point x="512.16" y="1548.92" type="curve" smooth="yes"/>
      <point x="692.84" y="1548.92" type="line"/>
    </contour>
  </outline>
  <guideline angle="82.9991" x="502" y="0"/>
</glyph>
<glyph name="Hbar" format="2">
  <advance width="1455.14"/>
  <unicode hex="0126"/>
  <guideline x="728.82" y="0.0" angle="82.9991"/>
  <anchor x="829.78" y="1518.62" name="Top"/>
  <anchor x="829.78" y="1518.62" name="top"/>
  <anchor x="646.24" y="-70.0" name="bottom"/>
  <anchor x="-18.260000000000005" y="1120.0" name="onRight"/>
  <outline>
    <contour>
      <point x="82.44" y="1035.76" type="line"/>
      <point x="1486.96" y="1035.76" type="line"/>
      <point x="1504.56" y="1189.48" type="line"/>
      <point x="100.03999999999999" y="1189.48" type="line"/>
    </contour>
    <component base="H" xOffset="12.32"/>
  </outline>
</glyph>
<glyph name="hbar" format="2">
  <advance width="1081.88"/>
  <unicode hex="0127"/>
  <guideline x="542.56" y="0.0" angle="82.9991"/>
  <anchor x="379.62" y="1518.62" name="Top"/>
  <anchor x="379.62" y="1518.62" name="top"/>
  <anchor x="465.76" y="-70.0" name="bottom"/>
  <outline>
    <contour>
      <point x="33.8" y="1131.0" type="line"/>
      <point x="600.44" y="1131.0" type="line" smooth="yes"/>
      <point x="645.2" y="1131.0"/>
      <point x="673.04" y="1155.28"/>
      <point x="679.72" y="1196.04" type="curve" smooth="yes"/>
      <point x="692.64" y="1285.16" type="line"/>
      <point x="54.519999999999996" y="1285.16" type="line"/>
    </contour>
    <contour>
      <point x="286.8" y="0.0" type="line"/>
      <point x="467.03999999999996" y="1486.8" type="line"/>
      <point x="220.4" y="1486.8" type="line"/>
      <point x="40.16" y="0.0" type="line"/>
    </contour>
    <contour>
      <point x="902.48" y="0.0" type="line"/>
      <point x="976.48" y="621.76" type="line"/>
      <point x="729.84" y="621.76" type="line"/>
      <point x="655.84" y="0.0" type="line"/>
    </contour>
    <contour>
      <point x="976.48" y="621.76" type="line"/>
      <point x="1007.6" y="870.92"/>
      <point x="901.24" y="1011.16"/>
      <point x="727.6800000000001" y="1011.16" type="curve" smooth="yes"/>
      <point x="542.56" y="1011.16"/>
      <point x="359.92" y="865.04"/>
      <point x="250.12" y="566.76" type="curve"/>
      <point x="332.12" y="446.04" type="line"/>
      <point x="384.15999999999997" y="662.96"/>
      <point x="521.36" y="808.64"/>
      <point x="633.64" y="808.64" type="curve" smooth="yes"/>
      <point x="716.3199999999999" y="808.64"/>
      <point x="746.48" y="753.96"/>
      <point x="729.84" y="621.76" type="curve"/>
    </contour>
  </outline>
</glyph>
<glyph name="idotless" format="2">
  <advance width="490.06"/>
  <unicode hex="0131"/>
  <guideline x="257.46" y="0.0" angle="82.9991"/>
  <anchor x="299.0" y="1120.0" name="top"/>
  <anchor x="165.8" y="-70.0" name="bottom"/>
  <outline>
    <contour>
      <point x="172.72" y="1026.8" type="line"/>
      <point x="49.599999999999994" y="0.0" type="line"/>
      <point x="293.12" y="0.0" type="line"/>
      <point x="416.24" y="1026.8" type="line"/>
    </contour>
  </outline>
</glyph>
<glyph name="kgreenlandic" format="2">
  <advance width="999.6"/>
  <unicode hex="0138"/>
  <guideline x="509.72" y="0.0" angle="82.9991"/>
  <anchor x="557.18" y="1120.0" name="top"/>
  <anchor x="442.62" y="-70.0" name="bottom"/>
  <outline>
    <contour>
      <point x="165.62" y="1026.8" type="line"/>
      <point x="38.94" y="0.0" type="line"/>
      <point x="282.46000000000004" y="0.0" type="line"/>
      <point x="409.14" y="1026.8" type="line"/>
    </contour>
    <contour>
      <point x="274.5" y="635.84" type="line"/>
      <point x="299.02" y="469.64" type="line"/>
      <point x="373.1" y="469.64" type="line" smooth="yes"/>
      <point x="410.65999999999997" y="469.64"/>
      <point x="423.1" y="463.64"/>
      <point x="437.98" y="432.28" type="curve" smooth="yes"/>
      <point x="638.1" y="44.76" type="line"/>
      <point x="651.22" y="11.36"/>
      <point x="675.94" y="0.0"/>
      <point x="712.46" y="0.0" type="curve" smooth="yes"/>
      <point x="925.02" y="0.0" type="line"/>
      <point x="671.26" y="497.76" type="line"/>
      <point x="638.54" y="569.92"/>
      <point x="599.14" y="615.12"/>
      <point x="486.70000000000005" y="615.12" type="curve"/>
      <point x="478.02" y="539.6" type="line"/>
      <point x="569.98" y="539.6"/>
      <point x="639.7" y="575.24"/>
      <point x="695.58" y="645.84" type="curve"/>
      <point x="1029.3" y="1026.8" type="line"/>
      <point x="810.5" y="1026.8" type="line" smooth="yes"/>
      <point x="772.66" y="1026.8"/>
      <point x="748.62" y="1011.44"/>
      <point x="726.14" y="982.72" type="curve"/>
      <point x="454.06" y="669.44" type="line"/>
      <point x="432.06" y="643.2"/>
      <point x="414.5" y="635.84"/>
      <point x="385.78" y="635.84" type="curve" smooth="yes"/>
    </contour>
  </outline>
</glyph>
<glyph name="Lcaron" format="2">
  <advance width="966.36"/>
  <unicode hex="013D"/>
  <guideline x="475.8" y="0.0" angle="82.9991"/>
  <anchor x="404.18" y="1518.62" name="Top"/>
  <anchor x="404.18" y="1518.62" name="top"/>
  <anchor x="436.94" y="-70.0" name="bottom"/>
  <anchor x="292.58" y="721.84" name="Bar"/>
  <outline>
    <contour>
      <point x="742.14" y="1487.24" type="line"/>
      <point x="642.3" y="1143.28" type="line"/>
      <point x="726.3" y="1143.28" type="line" smooth="yes"/>
      <point x="767.5" y="1143.28"/>
      <point x="792.9" y="1149.28"/>
      <point x="814.06" y="1186.92" type="curve"/>
      <point x="927.34" y="1399.52"/>
      <point x="937.3" y="1432.32"/>
      <point x="937.3" y="1457.2" type="curve" smooth="yes"/>
      <point x="937.3" y="1470.76"/>
      <point x="931.74" y="1487.24"/>
      <point x="901.9" y="1487.24" type="curve" smooth="yes"/>
    </contour>
    <component base="L"/>
  </outline>
</glyph>
<glyph name="Lslash" format="2">
  <advance width="1003.3"/>
  <unicode hex="0141"/>
  <guideline x="507.96" y="0.0" angle="82.9991"/>
  <anchor x="441.12" y="1518.62" name="Top"/>
  <anchor x="441.12" y="1518.62" name="top"/>
  <anchor x="473.88" y="-70.0" name="bottom"/>
  <anchor x="329.52" y="721.84" name="Bar"/>
  <outline>
    <contour>
      <point x="-7.140000000000001" y="439.8" type="line"/>
      <point x="340.58" y="611.52" type="line"/>
      <point x="346.14" y="599.04" type="line"/>
      <point x="756.74" y="816.32" type="line"/>
      <point x="778.1" y="825.44"/>
      <point x="790.58" y="843.92"/>
      <point x="794.14" y="869.08" type="curve"/>
      <point x="815.98" y="1045.12" type="line"/>
      <point x="371.98" y="817.6" type="line"/>
      <point x="369.54" y="831.64" type="line"/>
      <point x="49.42" y="667.48" type="line"/>
      <point x="28.5" y="658.36"/>
      <point x="16.7" y="641.88"/>
      <point x="15.14" y="619.4" type="curve"/>
    </contour>
    <component base="L" xOffset="36.94"/>
  </outline>
</glyph>
<glyph name="lslash" format="2">
  <advance width="610"/>
  <unicode hex="0142"/>
  <anchor x="419.46" y="1518.62" name="Top"/>
  <anchor x="329.92" y="743.68" name="bar"/>
  <anchor x="225" y="-70" name="bottom"/>
  <anchor x="367.68" y="177.56" name="hook"/>
  <anchor x="419.46" y="1518.62" name="top"/>
  <outline>
    <component base="l" xScale="1" xOffset="72.9"/>
    <contour>
      <point x="43.72" y="589.48" type="line" name="n00"/>
      <point x="327.68" y="705.28" type="line"/>
      <point x="334.8" y="691.24" type="line"/>
      <point x="583.36" y="797.92" type="line"/>
      <point x="606.28" y="807.04"/>
      <point x="617.2" y="825.52"/>
      <point x="617.2" y="852.24" type="curve" smooth="yes"/>
      <point x="617.2" y="995.52" type="line" name="n07"/>
      <point x="334.8" y="880.16" type="line"/>
      <point x="329.24" y="894.2" type="line"/>
      <point x="74.44" y="785.52" type="line" smooth="yes"/>
      <point x="53.52" y="776.4"/>
      <point x="43.72" y="759.92"/>
      <point x="43.72" y="737.44" type="curve" smooth="yes"/>
    </contour>
  </outline>
  <guideline angle="82.9991" x="264" y="0"/>
</glyph>
